<?xml version="1.0" encoding="UTF-8" standalone="no"?>
<!-- Created with Inkscape (http://www.inkscape.org/) -->

<svg
   width="30.48mm"
   height="128.5mm"
   viewBox="0 0 30.480002 128.50002"
   version="1.1"
   id="svg8"
   inkscape:version="1.1.2 (b8e25be833, 2022-02-05)"
   sodipodi:docname="Dicotyledon.svg"
   xmlns:inkscape="http://www.inkscape.org/namespaces/inkscape"
   xmlns:sodipodi="http://sodipodi.sourceforge.net/DTD/sodipodi-0.dtd"
   xmlns="http://www.w3.org/2000/svg"
   xmlns:svg="http://www.w3.org/2000/svg"
   xmlns:rdf="http://www.w3.org/1999/02/22-rdf-syntax-ns#"
   xmlns:cc="http://creativecommons.org/ns#"
   xmlns:dc="http://purl.org/dc/elements/1.1/">
  <defs
     id="defs2">
    <rect
       x="-69.473244"
       y="80.786949"
       width="253.87363"
       height="98.101028"
       id="rect5840" />
    <rect
       x="-89.449013"
       y="47.72971"
       width="170.05917"
       height="70.710678"
       id="rect9263" />
    <rect
       x="-313.24829"
       y="359.21024"
       width="278.60007"
       height="40.305084"
       id="rect5705" />
    <rect
       x="-201.02036"
       y="146.47212"
       width="169.70563"
       height="40.406101"
       id="rect16734" />
    <rect
       x="-69.473244"
       y="80.786949"
       width="253.87363"
       height="98.101028"
       id="rect18697" />
  </defs>
  <sodipodi:namedview
     id="base"
     pagecolor="#ffffff"
     bordercolor="#666666"
     borderopacity="1.0"
     inkscape:pageopacity="0.0"
     inkscape:pageshadow="2"
     inkscape:zoom="2.828427"
     inkscape:cx="47.72971"
     inkscape:cy="283.19628"
     inkscape:document-units="mm"
     inkscape:current-layer="layer1"
     showgrid="false"
     units="mm"
     inkscape:snap-bbox="true"
     inkscape:snap-page="true"
     inkscape:bbox-nodes="false"
     inkscape:snap-bbox-edge-midpoints="false"
     inkscape:window-width="1027"
     inkscape:window-height="1033"
     inkscape:window-x="883"
     inkscape:window-y="0"
     inkscape:window-maximized="0"
     inkscape:snap-bbox-midpoints="true"
     inkscape:snap-nodes="false"
     inkscape:pagecheckerboard="0"
     width="60.96mm"
     inkscape:bbox-paths="false"
     inkscape:snap-midpoints="false"
     inkscape:snap-smooth-nodes="false"
     inkscape:snap-intersection-paths="true"
     inkscape:object-paths="false"
     inkscape:object-nodes="true"
     inkscape:snap-object-midpoints="true"
     inkscape:showpageshadow="2"
     inkscape:deskcolor="#d1d1d1"
     inkscape:snap-global="false" />
  <metadata
     id="metadata5">
    <rdf:RDF>
      <cc:Work
         rdf:about="">
        <dc:format>image/svg+xml</dc:format>
        <dc:type
           rdf:resource="http://purl.org/dc/dcmitype/StillImage" />
      </cc:Work>
    </rdf:RDF>
  </metadata>
  <g
     inkscape:label="Layer 1"
     inkscape:groupmode="layer"
     id="layer1"
     transform="translate(0,-168.49998)"
     style="display:inline">
    <rect
       style="display:inline;fill:#c6c6c6;fill-opacity:1;fill-rule:evenodd;stroke:none;stroke-width:0.649358;stroke-linecap:butt;stroke-linejoin:miter;stroke-miterlimit:4;stroke-dasharray:none;stroke-dashoffset:0;stroke-opacity:1;paint-order:normal"
       id="rect1736"
       width="30.48"
       height="128.5"
       x="8.6736174e-19"
       y="168.49998" />
    <text
       xml:space="preserve"
       transform="matrix(0.26458333,0,0,0.26458333,0,168.49998)"
       id="text16732"
       style="font-size:40px;line-height:1.25;font-family:sans-serif;letter-spacing:0px;white-space:pre;shape-inside:url(#rect16734);display:inline"><tspan
         x="-201.01953"
         y="223.37212"
         id="tspan1273"><tspan
           dx="0 30.820312 25.292969"
           id="tspan1271">DEL</tspan></tspan></text>
    <text
       xml:space="preserve"
       style="font-size:10.5833px;line-height:1.25;font-family:sans-serif;letter-spacing:0px;stroke-width:0.264583"
       x="21.639137"
       y="180.68971"
       id="text12854"><tspan
         sodipodi:role="line"
         id="tspan12852"
         style="stroke-width:0.264583"
         x="21.639137"
         y="180.68971" /></text>
    <text
       xml:space="preserve"
       transform="matrix(0.26458333,0,0,0.26458333,0,168.49998)"
       id="text5703"
       style="font-size:40px;line-height:1.25;font-family:'Eras Light ITC';-inkscape-font-specification:'Eras Light ITC';white-space:pre;shape-inside:url(#rect5705);display:inline" />
    <circle
       style="display:inline;fill:#f9f9f9;fill-opacity:0;stroke:#000000;stroke-width:0.284"
       id="circle18675"
       cx="15.24"
       cy="94.932808"
       r="4.8579998"
       transform="translate(0,168.49998)" />
    <circle
       style="display:inline;fill:#1a1a1a;stroke:#000000;stroke-width:0.3408"
       id="circle17925"
       cx="15.24"
       cy="59.228657"
       r="5.8295999"
       transform="translate(0,168.49998)" />
    <circle
       style="display:inline;fill:#1a1a1a;stroke:#000000;stroke-width:0.3408"
       id="circle18681"
       cx="15.24"
       cy="108.32097"
       r="5.8295999"
       transform="translate(0,168.49998)" />
    <circle
       style="display:inline;fill:#f9f9f9;fill-opacity:0;stroke:#000000;stroke-width:0.284"
       id="circle3576"
       cx="6.5087495"
       cy="45.70285"
       r="4.8579998"
       transform="translate(0,168.49998)" />
    <circle
       style="display:inline;fill:#f9f9f9;fill-opacity:0;stroke:#000000;stroke-width:0.284"
       id="circle18663"
       cx="6.5087495"
       cy="79.195808"
       r="4.8579998"
       transform="translate(0,168.49998)" />
    <circle
       style="display:inline;fill:#f9f9f9;fill-opacity:0;stroke:#000000;stroke-width:0.284"
       id="circle3546"
       cx="23.971251"
       cy="45.70285"
       r="4.8579998"
       transform="translate(0,168.49998)" />
    <circle
       style="display:inline;fill:#f9f9f9;fill-opacity:0;stroke:#000000;stroke-width:0.284"
       id="circle18669"
       cx="23.971251"
       cy="79.195808"
       r="4.8579998"
       transform="translate(0,168.49998)" />
    <g
       id="path1031"
       transform="translate(0,168.29066)"
       style="display:inline">
      <path
         style="color:#000000;fill:#000000;stroke-dasharray:0.894522, 0.298174;-inkscape-stroke:none"
         d="m 6.359375,51.923828 v 0.894531 h 0.2988281 v -0.894531 z m 0,1.193359 v 0.894532 h 0.2988281 v -0.894532 z m 0,1.19336 v 0.894531 h 0.2988281 v -0.894531 z m 0,1.191406 v 0.894531 h 0.2988281 v -0.894531 z m 0,1.193359 v 0.894532 h 0.2988281 v -0.894532 z m 0,1.19336 v 0.894531 h 0.2988281 v -0.894531 z m 0,1.191406 v 0.894531 h 0.2988281 v -0.894531 z m 0,1.193359 v 0.894532 h 0.2988281 v -0.894532 z m 0,1.19336 v 0.894531 h 0.2988281 v -0.894531 z m 0,1.191406 v 0.894531 h 0.2988281 v -0.894531 z m 0,1.193359 v 0.894532 h 0.2988281 v -0.894532 z m 0,1.19336 v 0.894531 h 0.2988281 v -0.894531 z m 0,1.191406 v 0.894531 h 0.2988281 v -0.894531 z m 0,1.193359 v 0.894532 h 0.2988281 v -0.894532 z m 0,1.19336 v 0.894531 h 0.2988281 v -0.894531 z m 0,1.191406 v 0.894531 h 0.2988281 v -0.894531 z m 0,1.193359 v 0.894532 h 0.2988281 v -0.894532 z m 0,1.19336 v 0.894531 h 0.2988281 v -0.894531 z"
         id="path14350" />
      <g
         id="g14334">
        <g
           transform="matrix(0,0.1789044,-0.1789044,0,6.5087495,73.26242)"
           id="g14340">
          <path
             style="color:#000000;fill:context-stroke;fill-rule:evenodd;-inkscape-stroke:none"
             d="m 4.625,-5.9453125 c -3.2469533,0 -5.9003906,2.6534373 -5.9003906,5.90039063 0,3.24695327 2.6534373,5.89843747 5.9003906,5.89843747 V 4.0546875 c -2.2730412,0 -4.09960937,-1.8265682 -4.09960938,-4.09960937 0,-2.27304123 1.82656818,-4.10156253 4.09960938,-4.10156253 z"
             id="path14336" />
          <path
             style="color:#000000;fill:context-stroke;fill-rule:evenodd;-inkscape-stroke:none"
             d="m -5.4121094,-5.9453125 v 1.7988281 c 2.2730412,0 4.0996094,1.8285213 4.0996094,4.10156253 0,2.27304117 -1.8265682,4.09960937 -4.0996094,4.09960937 v 1.7988281 c 3.2469533,0 5.89843753,-2.6514842 5.89843753,-5.89843747 0,-3.24695333 -2.65148423,-5.90039063 -5.89843753,-5.90039063 z"
             id="path14338" />
        </g>
      </g>
    </g>
    <g
       id="path324"
       style="display:inline"
       transform="translate(0,168.49998)">
      <path
         style="color:#000000;fill:#000000;stroke-dasharray:0.888621, 0.296207"
         d="m 23.822266,51.857422 v 0.888672 h 0.296875 v -0.888672 z m 0,1.185547 v 0.888672 h 0.296875 v -0.888672 z m 0,1.185547 v 0.888671 h 0.296875 v -0.888671 z m 0,1.183593 v 0.888672 h 0.296875 v -0.888672 z m 0,1.185547 v 0.888672 h 0.296875 v -0.888672 z m 0,1.185547 v 0.888672 h 0.296875 v -0.888672 z m 0,1.183594 v 0.888672 h 0.296875 v -0.888672 z m 0,1.185547 v 0.888672 h 0.296875 v -0.888672 z m 0,1.185547 v 0.886718 h 0.296875 v -0.886718 z m 0,1.183593 v 0.888672 h 0.296875 v -0.888672 z m 0,1.185547 v 0.888672 h 0.296875 v -0.888672 z m 0,1.183594 v 0.888672 h 0.296875 v -0.888672 z m 0,1.185547 v 0.888672 h 0.296875 v -0.888672 z m 0,1.185547 v 0.888672 h 0.296875 v -0.888672 z m 0,1.183593 v 0.888672 h 0.296875 v -0.888672 z m 0,1.185547 v 0.888672 h 0.296875 v -0.888672 z m 0,1.185547 v 0.888672 h 0.296875 v -0.888672 z m 0,1.183594 v 0.888672 h 0.296875 V 72 Z"
         id="path14294" />
      <g
         id="g14278">
        <g
           transform="matrix(0,0.17772421,-0.17772421,0,23.97125,72.915637)"
           id="g14284">
          <path
             style="color:#000000;fill:context-stroke;fill-rule:evenodd"
             d="m 4.625,-5.9453125 c -3.2469533,0 -5.9003906,2.6534373 -5.9003906,5.90039063 0,3.24695327 2.6534373,5.89843747 5.9003906,5.89843747 V 4.0546875 c -2.2730412,0 -4.09960937,-1.8265682 -4.09960938,-4.09960937 0,-2.27304123 1.82656818,-4.10156253 4.09960938,-4.10156253 z"
             id="path14280" />
          <path
             style="color:#000000;fill:context-stroke;fill-rule:evenodd"
             d="m -5.4121094,-5.9453125 v 1.7988281 c 2.2730412,0 4.0996094,1.8285213 4.0996094,4.10156253 0,2.27304117 -1.8265682,4.09960937 -4.0996094,4.09960937 v 1.7988281 c 3.2469533,0 5.89843753,-2.6514842 5.89843753,-5.89843747 0,-3.24695333 -2.65148423,-5.90039063 -5.89843753,-5.90039063 z"
             id="path14282" />
        </g>
      </g>
    </g>
    <g
       id="path459"
       style="display:inline"
       transform="translate(0,168.49998)">
      <path
         style="color:#000000;fill:#000000;stroke-dasharray:0.898437, 0.299479"
         d="m 15.089844,66.845703 v 0.898438 h 0.300781 v -0.898438 z m 0,1.197266 v 0.898437 h 0.300781 v -0.898437 z m 0,1.199218 v 0.898438 h 0.300781 v -0.898438 z m 0,1.197266 v 0.898438 h 0.300781 v -0.898438 z m 0,1.197266 v 0.898437 h 0.300781 v -0.898437 z m 0,1.199218 v 0.898438 h 0.300781 v -0.898438 z m 0,1.197266 v 0.898438 h 0.300781 v -0.898438 z m 0,1.197266 v 0.898437 h 0.300781 v -0.898437 z m 0,1.199218 v 0.898438 h 0.300781 v -0.898438 z m 0,1.197266 v 0.898438 h 0.300781 v -0.898438 z m 0,1.197266 v 0.898437 h 0.300781 v -0.898437 z m 0,1.199218 v 0.898438 h 0.300781 v -0.898438 z m 0,1.197266 v 0.898438 h 0.300781 v -0.898438 z m 0,1.197266 v 0.898437 h 0.300781 v -0.898437 z m 0,1.199218 v 0.898438 h 0.300781 v -0.898438 z m 0,1.197266 v 0.898438 h 0.300781 v -0.898438 z m 0,1.197266 v 0.898437 h 0.300781 v -0.898437 z m 0,1.199218 v 0.898438 h 0.300781 v -0.898438 z"
         id="path14322" />
      <g
         id="g14306">
        <g
           transform="matrix(0,0.1796874,-0.1796874,0,15.24,88.370828)"
           id="g14312">
          <path
             style="color:#000000;fill:context-stroke;fill-rule:evenodd"
             d="m 4.625,-5.9453125 c -3.2469533,0 -5.9003906,2.6534373 -5.9003906,5.90039063 0,3.24695327 2.6534373,5.89843747 5.9003906,5.89843747 V 4.0546875 c -2.2730412,0 -4.09960937,-1.8265682 -4.09960938,-4.09960937 0,-2.27304123 1.82656818,-4.10156253 4.09960938,-4.10156253 z"
             id="path14308" />
          <path
             style="color:#000000;fill:context-stroke;fill-rule:evenodd"
             d="m -5.4121094,-5.9453125 v 1.7988281 c 2.2730412,0 4.0996094,1.8285213 4.0996094,4.10156253 0,2.27304117 -1.8265682,4.09960937 -4.0996094,4.09960937 v 1.7988281 c 3.2469533,0 5.89843753,-2.6514842 5.89843753,-5.89843747 0,-3.24695333 -2.65148423,-5.90039063 -5.89843753,-5.90039063 z"
             id="path14310" />
        </g>
      </g>
    </g>
    <path
       style="display:inline;fill:none;stroke:#000000;stroke-width:0.264583px;stroke-linecap:butt;stroke-linejoin:miter;stroke-opacity:1"
       d="m 23.97125,89.932808 v 9.999998 l -2.731251,2.388164"
       id="path16290"
       transform="translate(0,168.49998)" />
    <path
       style="display:inline;fill:none;stroke:#000000;stroke-width:0.264583px;stroke-linecap:butt;stroke-linejoin:miter;stroke-opacity:1"
       d="m 6.3693334,89.83322 v 9.999998 l 2.73125,2.388162"
       id="path16292"
       transform="translate(0,168.49998)" />
    <path
       style="display:inline;fill:none;stroke:#000000;stroke-width:0.264583px;stroke-linecap:round;stroke-linejoin:miter;stroke-opacity:1"
       d="m 19.551998,91.171442 c 2.416074,-2.416074 2.416074,-2.416074 2.416074,-2.416074 v 0 0"
       id="path16310"
       transform="translate(0,168.49998)" />
    <path
       style="display:inline;fill:none;stroke:#000000;stroke-width:0.264583px;stroke-linecap:round;stroke-linejoin:miter;stroke-opacity:1"
       d="M 10.928002,91.171442 C 8.5119282,88.755368 8.5119282,88.755368 8.5119282,88.755368 v 0 0"
       id="path17040"
       transform="translate(0,168.49998)" />
    <path
       d="M 6.867116,36.693825 6.957033,35.221047 7.040749,32.80569 q 0.0031,-0.133325 0.0031,-0.344165 l 0.6852296,0.0031 0.8495609,-0.0031 q 0.598413,0 0.9580801,0.09302 0.362769,0.09302 0.6449224,0.384472 0.282153,0.288355 0.399976,0.657325 0.117822,0.365869 0.117822,0.790649 0,0.505396 -0.182935,0.976685 -0.179833,0.468186 -0.5364004,0.787546 -0.353467,0.319361 -0.8030511,0.430982 -0.446485,0.111621 -0.976685,0.111621 l -0.6573242,-0.0031 z m 0.2666506,-0.195337 q 0.5488036,0.0093 0.8650639,0.0093 0.313159,0 0.641821,-0.03101 0.331762,-0.03101 0.592212,-0.111621 0.2604481,-0.08061 0.5084951,-0.294556 0.251148,-0.21394 0.4092784,-0.47749 0.16123,-0.26355 0.238745,-0.58291 0.07752,-0.322461 0.07752,-0.651123 0,-0.31626 -0.07441,-0.607715 -0.05271,-0.21084 -0.161231,-0.393774 -0.120923,-0.207733 -0.2821534,-0.350359 -0.15813,-0.145728 -0.331763,-0.217042 -0.1736331,-0.07441 -0.4340821,-0.105419 -0.235644,-0.03101 -0.551904,-0.03411 h -0.737948 l -0.5984135,0.0031 z"
       id="path560"
       style="display:inline;font-size:24px;font-family:'Eras Light ITC';-inkscape-font-specification:'Eras Light ITC';white-space:pre;stroke-width:0.264583"
       transform="translate(0,168.49998)" />
    <path
       d="m 5.5252903,28.2368 0.0093,-0.306958 q 0.077514,0.0031 0.1581298,0.0031 0.080615,0 0.1581298,-0.0031 l -0.0093,0.306958 Q 5.7640349,28.2306 5.68342,28.2306 q -0.080615,0 -0.1581297,0.0062 z m -0.1116211,3.925342 q 0.034107,-0.465088 0.077515,-1.621606 0.046509,-1.156519 0.046509,-1.509986 0.080615,0.0031 0.1240234,0.0031 0.046509,0 0.1271241,-0.0031 -0.043408,0.589111 -0.086816,1.606104 -0.040308,1.016992 -0.040308,1.525488 -0.080615,-0.0031 -0.1240234,-0.0031 -0.043408,0 -0.1240241,0.0031 z"
       id="path562"
       style="display:inline;font-size:24px;font-family:'Eras Light ITC';-inkscape-font-specification:'Eras Light ITC';white-space:pre;stroke-width:0.264583"
       transform="translate(0,168.49998)" />
    <path
       d="m 6.9635098,195.00742 q -0.031006,0.12713 -0.043408,0.23565 -0.3937743,0.0775 -0.7348386,0.0775 -0.3224609,0 -0.6046145,-0.0899 -0.2790529,-0.0899 -0.480591,-0.28836 -0.2015382,-0.20153 -0.3007569,-0.50229 -0.096118,-0.30386 -0.096118,-0.63562 0,-0.45269 0.1519288,-0.86196 0.1550291,-0.40928 0.4898924,-0.64493 0.3379639,-0.23874 0.9115724,-0.23874 0.418579,0 0.7968504,0.11472 0.0031,0.10232 0.0217,0.21704 -0.3224607,-0.0992 -0.5053952,-0.12712 -0.1829348,-0.031 -0.3348633,-0.031 -0.3255616,0 -0.5767091,0.12712 -0.2511475,0.12402 -0.418579,0.35347 -0.1643312,0.22944 -0.2356446,0.5147 -0.068213,0.28215 -0.068213,0.5674 0,0.30696 0.077515,0.57361 0.077515,0.26665 0.2480469,0.43408 0.1705322,0.16743 0.418579,0.25735 0.2480469,0.0868 0.5208985,0.0868 0.1519287,0 0.3224609,-0.0279 0.1705324,-0.031 0.4402839,-0.11162 z"
       id="path564"
       style="font-size:24px;font-family:'Eras Light ITC';-inkscape-font-specification:'Eras Light ITC';white-space:pre;display:inline;stroke-width:0.264583" />
    <path
       d="m 8.4050028,187.37131 q 0.288354,0 0.558105,0.0806 0.269751,0.0806 0.47439,0.27596 0.20774,0.19223 0.316261,0.50539 0.10852,0.31316 0.10852,0.66353 0,0.37827 -0.114721,0.72553 -0.114722,0.34727 -0.325563,0.58292 -0.21084,0.23254 -0.496094,0.32866 -0.282153,0.0961 -0.601514,0.0961 -0.223242,0 -0.440283,-0.0527 -0.21394,-0.0496 -0.4030758,-0.17054 -0.186035,-0.12092 -0.328662,-0.31315 -0.139526,-0.19224 -0.21394,-0.45579 -0.07131,-0.26355 -0.07131,-0.5488 0,-0.4992 0.186035,-0.91158 0.186035,-0.41547 0.555005,-0.61081 0.3720698,-0.19534 0.7968508,-0.19534 z m -0.0062,0.17364 q -0.36897,0 -0.685229,0.17983 -0.3162598,0.17984 -0.4650878,0.5488 -0.148829,0.36897 -0.148829,0.80926 0,0.31006 0.08372,0.58291 0.08682,0.27285 0.275952,0.46199 0.189136,0.18603 0.4061768,0.26044 0.220142,0.0713 0.461988,0.0713 0.275952,0 0.517797,-0.0899 0.241846,-0.0899 0.424781,-0.30075 0.186035,-0.21084 0.272851,-0.5178 0.08682,-0.30696 0.08682,-0.65112 0,-0.31936 -0.08682,-0.59842 -0.08372,-0.28215 -0.26355,-0.44958 -0.179834,-0.17053 -0.409277,-0.23875 -0.229443,-0.0682 -0.471289,-0.0682 z"
       id="path566"
       style="font-size:24px;font-family:'Eras Light ITC';-inkscape-font-specification:'Eras Light ITC';white-space:pre;display:inline;stroke-width:0.264583" />
    <path
       d="m 13.375335,188.38053 q -0.02481,0.093 -0.03721,0.19534 -0.251148,0.062 -0.461987,0.062 -0.176734,0 -0.31626,-0.0403 -0.136426,-0.0372 -0.223242,-0.13643 -0.08682,-0.10232 -0.114722,-0.22324 -0.02791,-0.12403 -0.02791,-0.26355 0,-0.0248 0,-0.0775 0.0031,-0.0527 0.0124,-0.23255 l 0.102319,-2.05258 h -0.381372 q 0.0124,-0.0837 0.0155,-0.16744 h 0.378272 q 0.0155,-0.19533 0.0248,-0.58291 0.117822,-0.0155 0.204639,-0.0403 -0.0217,0.5023 -0.0217,0.62322 h 0.930176 q -0.0124,0.0837 -0.0155,0.16743 h -0.923975 l -0.102319,2.12701 -0.0031,0.12712 q 0,0.26045 0.05891,0.37827 0.06201,0.11782 0.170533,0.17053 0.111621,0.0527 0.229443,0.0527 0.08372,0 0.176733,-0.0124 0.09612,-0.0155 0.325562,-0.0744 z"
       id="path568"
       style="font-size:24px;font-family:'Eras Light ITC';-inkscape-font-specification:'Eras Light ITC';white-space:pre;display:inline;stroke-width:0.264583" />
    <path
       d="m 15.54271,188.53594 q 0,-0.10232 -0.0186,-0.24185 0.09612,0.0434 0.15813,0.062 0.06201,0.0217 0.148828,0.0341 0.08992,0.0155 0.164331,0.0155 0.176733,0 0.331763,-0.0899 0.155029,-0.0899 0.313159,-0.36587 0.15813,-0.27595 0.36897,-0.75964 l -0.68213,-1.90066 -0.489893,-1.32705 q 0.08992,0.003 0.148828,0.003 0.05891,0 0.145728,-0.003 l 0.05581,0.22014 q 0.03411,0.12713 0.07751,0.25735 0.05581,0.17984 0.164331,0.48059 l 0.703833,2.01228 0.979786,-2.18281 q 0.133325,-0.30076 0.186035,-0.43408 0.05271,-0.13333 0.127124,-0.35347 0.08992,0.003 0.139526,0.003 0.05271,0 0.142627,-0.003 -0.155029,0.34727 -0.567407,1.23093 l -0.604615,1.30535 -0.579809,1.27744 q -0.136426,0.29456 -0.235645,0.43408 -0.08061,0.10853 -0.167431,0.18604 -0.06511,0.0558 -0.145728,0.0961 -0.09612,0.0496 -0.207739,0.0744 -0.120923,0.031 -0.248047,0.031 -0.195337,0 -0.409277,-0.062 z"
       id="path570"
       style="font-size:24px;font-family:'Eras Light ITC';-inkscape-font-specification:'Eras Light ITC';white-space:pre;display:inline;stroke-width:0.264583" />
    <path
       d="m 19.975773,21.316369 q 0.142627,-2.585889 0.167431,-4.2323 0.08062,0.0031 0.127125,0.0031 0.04651,0 0.127123,-0.0031 l -0.07751,1.509986 -0.08992,2.722314 q -0.08062,-0.0031 -0.127124,-0.0031 -0.04651,0 -0.127124,0.0031 z"
       id="path572"
       style="display:inline;font-size:24px;font-family:'Eras Light ITC';-inkscape-font-specification:'Eras Light ITC';white-space:pre;stroke-width:0.264583"
       transform="translate(0,168.49998)" />
    <path
       d="m 24.326777,23.194882 q -0.02481,0.114722 -0.03721,0.232544 -0.257349,0.07441 -0.461988,0.10232 -0.204639,0.031 -0.418579,0.031 -0.37207,0 -0.660425,-0.09922 -0.285254,-0.10232 -0.489892,-0.334864 -0.204639,-0.235644 -0.291455,-0.527099 -0.08682,-0.291455 -0.08682,-0.620117 0,-0.430982 0.148828,-0.806153 0.148828,-0.378271 0.489893,-0.626318 0.341064,-0.248047 0.84646,-0.248047 0.347265,0 0.629419,0.130225 0.282153,0.127123 0.437182,0.418579 0.15813,0.291455 0.15813,0.69143 0,0.07441 -0.0062,0.142627 l -2.452563,0.0031 q -0.0155,0.201538 -0.0155,0.303858 0,0.294555 0.08682,0.570508 0.08682,0.275952 0.26045,0.461987 0.176733,0.186035 0.421679,0.275952 0.244947,0.08992 0.517798,0.08992 0.415479,0 0.923975,-0.192236 z m -2.16731,-1.680517 2.204517,0.0031 q -0.0031,-0.21394 -0.0248,-0.328662 -0.0217,-0.114721 -0.08062,-0.235644 -0.05891,-0.120923 -0.142627,-0.207739 -0.08062,-0.08992 -0.192237,-0.148829 -0.10852,-0.06201 -0.244946,-0.09302 -0.136426,-0.03101 -0.285254,-0.03101 -0.164331,0 -0.322461,0.03721 -0.15813,0.03721 -0.288354,0.102319 -0.130225,0.06511 -0.244947,0.167432 -0.111621,0.09922 -0.186035,0.217041 -0.07131,0.117822 -0.111621,0.226343 -0.03721,0.10542 -0.08062,0.291455 z"
       id="path574"
       style="display:inline;font-size:24px;font-family:'Eras Light ITC';-inkscape-font-specification:'Eras Light ITC';white-space:pre;stroke-width:0.264583"
       transform="translate(0,168.49998)" />
    <path
       d="m 26.186093,27.943675 q -0.08061,-0.0031 -0.120922,-0.0031 -0.04341,0 -0.124024,0.0031 l 0.04651,-0.787549 q -0.07441,0.179834 -0.139526,0.285254 -0.06201,0.10542 -0.161231,0.207739 -0.09612,0.09922 -0.235644,0.179834 -0.139527,0.08062 -0.322461,0.130225 -0.182935,0.04961 -0.378272,0.04961 -0.300757,0 -0.564306,-0.10852 -0.26045,-0.108521 -0.443384,-0.306958 -0.179834,-0.201538 -0.260449,-0.461987 -0.07752,-0.26355 -0.07752,-0.555005 0,-0.393775 0.145727,-0.759644 0.145728,-0.365869 0.42168,-0.613916 0.279053,-0.251147 0.629419,-0.353467 0.353467,-0.102319 0.744141,-0.102319 0.31936,0 0.697631,0.06821 0.0155,-0.294556 0.0155,-0.564307 0,-0.238745 -0.0093,-0.539502 0.08062,0.0031 0.130224,0.0031 0.04961,0 0.127124,-0.0031 -0.03411,0.57981 -0.05271,1.21543 l -0.04341,1.500684 q -0.0248,0.861962 -0.0248,1.134814 z m -0.151928,-2.914551 q -0.220142,-0.06821 -0.381372,-0.08682 -0.161231,-0.0217 -0.306958,-0.0217 -0.347266,0 -0.663526,0.09922 -0.31626,0.09922 -0.551904,0.322461 -0.235645,0.223242 -0.365869,0.564306 -0.127124,0.341065 -0.127124,0.672827 0,0.36587 0.139526,0.666627 0.142627,0.300756 0.399976,0.446484 0.260449,0.142627 0.579809,0.142627 0.189136,0 0.344165,-0.04341 0.15813,-0.04651 0.282154,-0.127124 0.127124,-0.08062 0.238745,-0.21394 0.114721,-0.136426 0.198437,-0.31936 0.08682,-0.182935 0.127124,-0.399976 0.04031,-0.217041 0.05581,-0.666626 z"
       id="path576"
       style="display:inline;font-size:24px;font-family:'Eras Light ITC';-inkscape-font-specification:'Eras Light ITC';white-space:pre;stroke-width:0.264583"
       transform="translate(0,168.49998)" />
    <path
       d="m 24.630626,29.316971 q 0.288354,0 0.558105,0.08061 0.269751,0.08061 0.47439,0.275952 0.207739,0.192237 0.31626,0.505396 0.10852,0.313159 0.10852,0.663525 0,0.378272 -0.114721,0.725537 -0.114722,0.347266 -0.325562,0.582911 -0.21084,0.232543 -0.496094,0.328662 -0.282153,0.09612 -0.601513,0.09612 -0.223243,0 -0.440284,-0.05271 -0.21394,-0.04961 -0.403076,-0.170533 -0.186035,-0.120922 -0.328662,-0.313159 -0.139526,-0.192236 -0.21394,-0.455786 -0.07131,-0.263549 -0.07131,-0.548803 0,-0.499195 0.186035,-0.911573 0.186035,-0.415478 0.555005,-0.610815 0.372071,-0.195337 0.796851,-0.195337 z m -0.0062,0.173633 q -0.36897,0 -0.68523,0.179834 -0.316259,0.179834 -0.465088,0.548803 -0.148828,0.36897 -0.148828,0.809253 0,0.310059 0.08372,0.58291 0.08682,0.272852 0.275952,0.461988 0.189136,0.186035 0.406177,0.260449 0.220142,0.07131 0.461987,0.07131 0.275952,0 0.517798,-0.08992 0.241846,-0.08992 0.42478,-0.300756 0.186036,-0.21084 0.272852,-0.517798 0.08682,-0.306958 0.08682,-0.651123 0,-0.31936 -0.08682,-0.598413 -0.08372,-0.282154 -0.26355,-0.449585 -0.179834,-0.170533 -0.409277,-0.238745 -0.229443,-0.06821 -0.471289,-0.06821 z"
       id="path578"
       style="display:inline;font-size:24px;font-family:'Eras Light ITC';-inkscape-font-specification:'Eras Light ITC';white-space:pre;stroke-width:0.264583"
       transform="translate(0,168.49998)" />
    <path
       d="m 21.140416,36.693823 0.10542,-1.894458 0.02791,-0.889868 q 0.0062,-0.238745 0.0062,-0.347266 0.08062,0.0031 0.120923,0.0031 0.03721,0 0.117822,-0.0031 l -0.04031,0.706934 q 0.06821,-0.145728 0.111621,-0.220142 0.04651,-0.07751 0.124023,-0.164331 0.07751,-0.08682 0.182935,-0.16123 0.10852,-0.07752 0.257348,-0.127124 0.151929,-0.05271 0.310059,-0.07441 0.15813,-0.02481 0.313159,-0.02481 0.260449,0 0.505396,0.05891 0.244946,0.05891 0.406177,0.204639 0.16123,0.142627 0.220141,0.331762 0.06201,0.186036 0.06201,0.399976 0,0.09612 -0.0093,0.285254 l -0.06511,1.410766 -0.0124,0.505396 q -0.06201,-0.0031 -0.120923,-0.0031 -0.05891,0 -0.117822,0.0031 0.03101,-0.387573 0.04961,-0.74104 l 0.04341,-0.79375 q 0.02481,-0.440283 0.02481,-0.63562 0,-0.204639 -0.05891,-0.365869 -0.05891,-0.161231 -0.204639,-0.266651 -0.142627,-0.10852 -0.341065,-0.155029 -0.198437,-0.04961 -0.409277,-0.04961 -0.294555,0 -0.520898,0.08062 -0.213941,0.07752 -0.375171,0.229443 -0.16123,0.148828 -0.26355,0.378272 -0.07751,0.167431 -0.117822,0.468188 -0.03721,0.26045 -0.06201,0.852661 -0.0217,0.589112 -0.0217,0.998389 -0.08062,-0.0031 -0.124023,-0.0031 -0.04341,0 -0.124024,0.0031 z"
       id="path580"
       style="display:inline;font-size:24px;font-family:'Eras Light ITC';-inkscape-font-specification:'Eras Light ITC';white-space:pre;stroke-width:0.264583"
       transform="translate(0,168.49998)" />
    <path
       style="display:inline;fill:#000000;fill-opacity:1;stroke:#000000;stroke-width:0.3408"
       id="path3060"
       sodipodi:type="arc"
       sodipodi:cx="16.567951"
       sodipodi:cy="-27.163141"
       sodipodi:rx="5.8295999"
       sodipodi:ry="5.8295999"
       sodipodi:start="0"
       sodipodi:end="5.2359878"
       sodipodi:arc-type="slice"
       transform="rotate(120,-48.641754,84.24999)"
       d="m 22.397551,-27.163141 a 5.8295999,5.8295999 0 0 1 -4.320788,5.630961 5.8295999,5.8295999 0 0 1 -6.557393,-2.716161 5.8295999,5.8295999 0 0 1 0.926432,-7.03695 5.8295999,5.8295999 0 0 1 7.036949,-0.926432 l -2.9148,5.048582 z" />
    <g
       aria-label="&gt;"
       transform="matrix(0.20731163,0,0,0.20731163,27.551152,192.63405)"
       id="text5838"
       style="display:inline;font-size:40px;font-family:'Eras Light ITC';-inkscape-font-specification:'Eras Light ITC';word-spacing:0px;white-space:pre">
      <path
         d="m -68.046875,110.35077 v -1.36718 l 15.839844,-6.875 -15.839844,-6.894536 v -1.367187 l 17.324219,7.617183 v 1.26954 z"
         id="path16139" />
    </g>
    <g
       id="path4531"
       style="display:inline"
       transform="translate(0,168.49998)">
      <path
         style="color:#000000;fill:#000000;stroke-dasharray:0.793749, 0.264583"
         d="m 15.341797,34.494141 -0.203125,0.167968 0.505859,0.611328 0.203125,-0.167968 z m 0.673828,0.814453 -0.203125,0.167968 0.505859,0.613282 0.205078,-0.169922 z m 0.675781,0.816406 -0.203125,0.167969 0.50586,0.611328 0.203125,-0.167969 z m 0.673828,0.814453 -0.203125,0.167969 0.50586,0.613281 0.203125,-0.169922 z m 0.675782,0.816406 -0.205079,0.167969 0.50586,0.611328 0.205078,-0.167969 z m 0.673828,0.814453 -0.203125,0.167969 0.505859,0.613281 0.203125,-0.169921 z m 0.675781,0.816407 -0.205078,0.167968 0.505859,0.611329 0.205078,-0.167969 z m 0.673828,0.814453 -0.203125,0.167969 0.07813,0.09766 0.205078,-0.169922 z"
         id="path14266" />
      <g
         id="g14250">
        <g
           transform="matrix(0.15874979,0,0,0.15874979,20.042188,40.382033)"
           id="g14256">
          <path
             style="color:#000000;fill:context-stroke;fill-rule:evenodd"
             d="m 4.625,-5.9453125 c -3.2469533,0 -5.9003906,2.6534373 -5.9003906,5.90039063 0,3.24695327 2.6534373,5.89843747 5.9003906,5.89843747 V 4.0546875 c -2.2730412,0 -4.09960937,-1.8265682 -4.09960938,-4.09960937 0,-2.27304123 1.82656818,-4.10156253 4.09960938,-4.10156253 z"
             id="path14252" />
          <path
             style="color:#000000;fill:context-stroke;fill-rule:evenodd"
             d="m -5.4121094,-5.9453125 v 1.7988281 c 2.2730412,0 4.0996094,1.8285213 4.0996094,4.10156253 0,2.27304117 -1.8265682,4.09960937 -4.0996094,4.09960937 v 1.7988281 c 3.2469533,0 5.89843753,-2.6514842 5.89843753,-5.89843747 0,-3.24695333 -2.65148423,-5.90039063 -5.89843753,-5.90039063 z"
             id="path14254" />
        </g>
      </g>
    </g>
    <g
       id="path4533"
       style="display:inline"
       transform="translate(0,168.49998)">
      <path
         style="color:#000000;fill:#000000;stroke-dasharray:0.779088, 0.259696"
         d="m 15.287109,34.494141 -0.484375,0.611328 0.203125,0.160156 0.484375,-0.609375 z m -0.646484,0.814453 -0.486328,0.609375 0.203125,0.160156 0.486328,-0.609375 z m -0.646484,0.8125 -0.486328,0.609375 0.203125,0.162109 0.486328,-0.611328 z m -0.648438,0.8125 -0.484375,0.609375 0.203125,0.162109 0.484375,-0.609375 z m -0.646484,0.8125 -0.484375,0.609375 0.203125,0.162109 0.484375,-0.609375 z m -0.646485,0.8125 -0.486328,0.609375 0.203125,0.162109 0.486328,-0.609375 z m -0.646484,0.8125 -0.486328,0.609375 0.203125,0.162109 0.486328,-0.609375 z m -0.648437,0.8125 -0.09375,0.11914 0.203125,0.16211 0.09375,-0.119141 z"
         id="path14238" />
      <g
         id="g14222">
        <g
           transform="matrix(0.1558176,0,0,0.1558176,10.765189,40.38375)"
           id="g14228">
          <path
             style="color:#000000;fill:context-stroke;fill-rule:evenodd"
             d="m 4.625,-5.9453125 c -3.2469533,0 -5.9003906,2.6534373 -5.9003906,5.90039063 0,3.24695327 2.6534373,5.89843747 5.9003906,5.89843747 V 4.0546875 c -2.2730412,0 -4.09960937,-1.8265682 -4.09960938,-4.09960937 0,-2.27304123 1.82656818,-4.10156253 4.09960938,-4.10156253 z"
             id="path14224" />
          <path
             style="color:#000000;fill:context-stroke;fill-rule:evenodd"
             d="m -5.4121094,-5.9453125 v 1.7988281 c 2.2730412,0 4.0996094,1.8285213 4.0996094,4.10156253 0,2.27304117 -1.8265682,4.09960937 -4.0996094,4.09960937 v 1.7988281 c 3.2469533,0 5.89843753,-2.6514842 5.89843753,-5.89843747 0,-3.24695333 -2.65148423,-5.90039063 -5.89843753,-5.90039063 z"
             id="path14226" />
        </g>
      </g>
    </g>
    <g
       id="g986"
       transform="matrix(0.01928605,0,0,0.01928605,11.320593,288.94823)">
      <path
         d="M 289.79,385.23 A 100.59,100.59 0 0 1 200,239.45 L 122.25,155 V 379.59 H 53.9 V 50.73 h 65.2 l 130.54,141.73 a 99.25,99.25 0 0 1 40.15,-8.34 100.56,100.56 0 1 1 0,201.11 M 111,126.32 l 102.65,111.45 -2,3.54 a 89.37,89.37 0 1 0 78.12,-46 88.09,88.09 0 0 0 -39.05,9 L 247,206.13 114.19,61.93 H 65.1 V 368.38 H 111 Z M 289.79,328 a 41.88,41.88 0 0 1 -7.25,-0.62 43.26,43.26 0 0 1 -36,-39.12 c -0.1,-1.18 -0.16,-2.41 -0.16,-3.65 a 43.45,43.45 0 0 1 43.39,-43.39 c 0.9,0 1.81,0.05 2.71,0.1 a 43.47,43.47 0 0 1 40.68,43.29 v 0.67 a 42.43,42.43 0 0 1 -1.76,11.59 43.29,43.29 0 0 1 -32.83,30.26 l -0.65,0.11 a 45,45 0 0 1 -8.15,0.76 m 0,-75.57 a 32.22,32.22 0 0 0 -32.18,32.18 c 0,0.92 0,1.84 0.11,2.71 a 32.12,32.12 0 0 0 26.72,29 32.54,32.54 0 0 0 11.87,-0.2 l 0.55,-0.11 a 32.1,32.1 0 0 0 23.82,-22.33 31.26,31.26 0 0 0 1.29,-8.49 v -0.6 a 32.23,32.23 0 0 0 -30.11,-32.11 c -0.67,0 -1.37,-0.07 -2.07,-0.07"
         id="path963" />
      <path
         d="m 289.81,131.85 a 43.39,43.39 0 1 1 43.39,-43.39 43.45,43.45 0 0 1 -43.39,43.39 m 0,-75.57 A 32.18,32.18 0 1 0 322,88.46 32.22,32.22 0 0 0 289.82,56.28"
         id="path965" />
      <polygon
         points="116.41,373.98 116.41,140.68 206.55,238.58 243.59,236.52 102.76,83.56 87.84,83.56 87.84,345.41 61.82,371.43 62.86,373.97 "
         id="polygon967" />
      <path
         d="M 199.93,317.51 227,307.58 a 66.69,66.69 0 0 0 45.87,41.53 63.28,63.28 0 0 0 10.94,1.9 68.18,68.18 0 0 0 13.49,-0.18 h 0.08 a 66.75,66.75 0 0 0 54.23,-41.94 65.32,65.32 0 0 0 4.2,-17.32 l 0.1,-1.18 a 66.31,66.31 0 0 0 -3.81,-28.68 l 27.08,-9.92 -0.43,0.16 A 95,95 0 1 1 200.4,317.34"
         id="path969" />
      <path
         d="m 254.08,297.66 a 37.31,37.31 0 0 1 -2.3,-13.08 c 0,-1 0,-2.11 0.14,-3.19 A 37.82,37.82 0 0 1 292.82,247 c 0.81,0.07 1.61,0.18 2.4,0.3 a 37.81,37.81 0 0 1 29.83,24.33 v 0 l 27.08,-9.93 a 66.62,66.62 0 0 0 -52.57,-42.9 c -1.41,-0.2 -2.82,-0.4 -4.23,-0.53 a 66.68,66.68 0 0 0 -72.11,60.62 c -0.16,1.89 -0.24,3.78 -0.24,5.61 a 66.13,66.13 0 0 0 4,23.06 z"
         id="path971" />
      <path
         d="M 255.11,101.8 A 37.753304,37.753304 0 1 0 325.67,74.92 Z"
         id="path973" />
    </g>
    <g
       aria-label="/|\|/|\|/|\|/|\|/|\|/|\"
       id="text4330"
       style="font-size:2.82223px;font-family:'Eras Light ITC';-inkscape-font-specification:'Eras Light ITC';stroke-width:0.264583">
      <path
         d="m 0.49763102,178.04532 0.40238827,-0.85163 0.68350881,-1.47588 0.071658,-0.16537 q 0.034451,0.001 0.057878,0.001 0.023427,0 0.057878,-0.001 l -1.0183731,2.18282 -0.13780421,0.31006 q -0.0344511,-0.003 -0.0578778,-0.003 -0.0261828,0 -0.0592558,0.003 z"
         id="path967" />
      <path
         d="m 2.5013041,175.55244 h 0.093707 v 2.35094 h -0.093707 z"
         id="path975" />
      <path
         d="m 4.5545868,178.04532 q -0.034451,-0.003 -0.060634,-0.003 -0.024805,0 -0.060634,0.003 l -0.1350481,-0.32108 -0.9618734,-2.1718 q 0.035829,0.001 0.059256,0.001 0.024805,0 0.060634,-0.001 l 0.089573,0.21773 0.6917771,1.56959 z"
         id="path977" />
      <path
         d="m 5.0589502,175.55244 h 0.093707 v 2.35094 h -0.093707 z"
         id="path979" />
      <path
         d="m 5.6129231,178.04532 0.4023883,-0.85163 0.6835088,-1.47588 0.071658,-0.16537 q 0.034451,0.001 0.057878,0.001 0.023427,0 0.057878,-0.001 l -1.018373,2.18282 -0.1378042,0.31006 q -0.034451,-0.003 -0.057878,-0.003 -0.026183,0 -0.059256,0.003 z"
         id="path981" />
      <path
         d="m 7.6165962,175.55244 h 0.093707 v 2.35094 h -0.093707 z"
         id="path983" />
      <path
         d="m 9.6698791,178.04532 q -0.034451,-0.003 -0.060634,-0.003 -0.024805,0 -0.060634,0.003 l -0.1350481,-0.32108 -0.9618734,-2.1718 q 0.035829,0.001 0.059256,0.001 0.024805,0 0.060634,-0.001 l 0.089573,0.21773 0.6917771,1.56959 z"
         id="path985" />
      <path
         d="m 10.174242,175.55244 h 0.09371 v 2.35094 h -0.09371 z"
         id="path987" />
      <path
         d="m 10.728215,178.04532 0.402388,-0.85163 0.683509,-1.47588 0.07166,-0.16537 q 0.03445,0.001 0.05788,0.001 0.02343,0 0.05788,-0.001 l -1.018373,2.18282 -0.137804,0.31006 q -0.03445,-0.003 -0.05788,-0.003 -0.02618,0 -0.05926,0.003 z"
         id="path989" />
      <path
         d="m 12.731888,175.55244 h 0.09371 v 2.35094 h -0.09371 z"
         id="path991" />
      <path
         d="m 14.785171,178.04532 q -0.03445,-0.003 -0.06063,-0.003 -0.02481,0 -0.06063,0.003 l -0.135048,-0.32108 -0.961873,-2.1718 q 0.03583,0.001 0.05926,0.001 0.02481,0 0.06063,-0.001 l 0.08957,0.21773 0.691777,1.56959 z"
         id="path993" />
      <path
         d="m 15.289534,175.55244 h 0.09371 v 2.35094 h -0.09371 z"
         id="path995" />
      <path
         d="m 15.843508,178.04532 0.402388,-0.85163 0.683509,-1.47588 0.07166,-0.16537 q 0.03445,0.001 0.05788,0.001 0.02343,0 0.05788,-0.001 l -1.018374,2.18282 -0.137804,0.31006 q -0.03445,-0.003 -0.05788,-0.003 -0.02618,0 -0.05926,0.003 z"
         id="path997" />
      <path
         d="m 17.84718,175.55244 h 0.09371 v 2.35094 h -0.09371 z"
         id="path999" />
      <path
         d="m 19.900463,178.04532 q -0.03445,-0.003 -0.06063,-0.003 -0.0248,0 -0.06063,0.003 l -0.135049,-0.32108 -0.961873,-2.1718 q 0.03583,0.001 0.05926,0.001 0.02481,0 0.06063,-0.001 l 0.08957,0.21773 0.691778,1.56959 z"
         id="path1001" />
      <path
         d="m 20.404826,175.55244 h 0.09371 v 2.35094 h -0.09371 z"
         id="path1003" />
      <path
         d="m 20.958799,178.04532 0.402389,-0.85163 0.683508,-1.47588 0.07166,-0.16537 q 0.03445,0.001 0.05788,0.001 0.02343,0 0.05788,-0.001 l -1.018373,2.18282 -0.137804,0.31006 q -0.03445,-0.003 -0.05788,-0.003 -0.02618,0 -0.05926,0.003 z"
         id="path1005" />
      <path
         d="m 22.962473,175.55244 h 0.09371 v 2.35094 h -0.09371 z"
         id="path1007" />
      <path
         d="m 25.015755,178.04532 q -0.03445,-0.003 -0.06063,-0.003 -0.0248,0 -0.06063,0.003 l -0.135048,-0.32108 -0.961873,-2.1718 q 0.03583,0.001 0.05926,0.001 0.02481,0 0.06063,-0.001 l 0.08957,0.21773 0.691777,1.56959 z"
         id="path1009" />
      <path
         d="m 25.520119,175.55244 h 0.09371 v 2.35094 h -0.09371 z"
         id="path1011" />
      <path
         d="m 26.074091,178.04532 0.402388,-0.85163 0.683509,-1.47588 0.07166,-0.16537 q 0.03445,0.001 0.05788,0.001 0.02343,0 0.05788,-0.001 l -1.018373,2.18282 -0.137805,0.31006 q -0.03445,-0.003 -0.05788,-0.003 -0.02618,0 -0.05926,0.003 z"
         id="path1013" />
      <path
         d="m 28.077765,175.55244 h 0.09371 v 2.35094 h -0.09371 z"
         id="path1015" />
      <path
         d="m 30.131046,178.04532 q -0.03445,-0.003 -0.06063,-0.003 -0.0248,0 -0.06063,0.003 l -0.135048,-0.32108 -0.961874,-2.1718 q 0.03583,0.001 0.05926,0.001 0.02481,0 0.06063,-0.001 l 0.08957,0.21773 0.691777,1.56959 z"
         id="path1017" />
    </g>
    <g
       aria-label="/|\|/|\|/|\|/|\|/|\|/|\"
       transform="scale(-1)"
       id="text6134"
       style="font-size:2.82223px;font-family:'Eras Light ITC';-inkscape-font-specification:'Eras Light ITC';stroke-width:0.264583">
      <path
         d="m -30.177818,-173.07351 0.402389,-0.85163 0.683508,-1.47589 0.07166,-0.16536 q 0.03445,0.001 0.05788,0.001 0.02343,0 0.05788,-0.001 l -1.018373,2.18282 -0.137804,0.31006 q -0.03445,-0.003 -0.05788,-0.003 -0.02618,0 -0.05926,0.003 z"
         id="path943" />
      <path
         d="m -28.174145,-175.56639 h 0.09371 v 2.35094 h -0.09371 z"
         id="path945" />
      <path
         d="m -26.120862,-173.07351 q -0.03445,-0.003 -0.06063,-0.003 -0.0248,0 -0.06063,0.003 l -0.135048,-0.32109 -0.961873,-2.17179 q 0.03583,0.001 0.05926,0.001 0.02481,0 0.06063,-0.001 l 0.08957,0.21773 0.691777,1.56959 z"
         id="path947" />
      <path
         d="m -25.616498,-175.56639 h 0.09371 v 2.35094 h -0.09371 z"
         id="path949" />
      <path
         d="m -25.062526,-173.07351 0.402389,-0.85163 0.683509,-1.47589 0.07166,-0.16536 q 0.03445,0.001 0.05788,0.001 0.02343,0 0.05788,-0.001 l -1.018373,2.18282 -0.137804,0.31006 q -0.03445,-0.003 -0.05788,-0.003 -0.02618,0 -0.05926,0.003 z"
         id="path951" />
      <path
         d="m -23.058852,-175.56639 h 0.09371 v 2.35094 h -0.09371 z"
         id="path953" />
      <path
         d="m -21.00557,-173.07351 q -0.03445,-0.003 -0.06063,-0.003 -0.0248,0 -0.06063,0.003 l -0.135048,-0.32109 -0.961874,-2.17179 q 0.03583,0.001 0.05926,0.001 0.02481,0 0.06063,-0.001 l 0.08957,0.21773 0.691777,1.56959 z"
         id="path955" />
      <path
         d="m -20.501206,-175.56639 h 0.09371 v 2.35094 h -0.09371 z"
         id="path957" />
      <path
         d="m -19.947233,-173.07351 0.402388,-0.85163 0.683509,-1.47589 0.07166,-0.16536 q 0.03445,0.001 0.05788,0.001 0.02343,0 0.05788,-0.001 l -1.018373,2.18282 -0.137804,0.31006 q -0.03445,-0.003 -0.05788,-0.003 -0.02618,0 -0.05926,0.003 z"
         id="path959" />
      <path
         d="m -17.94356,-175.56639 h 0.09371 v 2.35094 h -0.09371 z"
         id="path961" />
      <path
         d="m -15.890278,-173.07351 q -0.03445,-0.003 -0.06063,-0.003 -0.0248,0 -0.06063,0.003 l -0.135048,-0.32109 -0.961873,-2.17179 q 0.03583,0.001 0.05926,0.001 0.0248,0 0.06063,-0.001 l 0.08957,0.21773 0.691777,1.56959 z"
         id="path964" />
      <path
         d="m -15.385915,-175.56639 h 0.09371 v 2.35094 h -0.09371 z"
         id="path966" />
      <path
         d="m -14.831941,-173.07351 0.402388,-0.85163 0.683509,-1.47589 0.07166,-0.16536 q 0.03445,0.001 0.05788,0.001 0.02343,0 0.05788,-0.001 l -1.018373,2.18282 -0.137804,0.31006 q -0.03445,-0.003 -0.05788,-0.003 -0.02618,0 -0.05926,0.003 z"
         id="path968" />
      <path
         d="m -12.828269,-175.56639 h 0.09371 v 2.35094 h -0.09371 z"
         id="path970" />
      <path
         d="m -10.774985,-173.07351 q -0.03445,-0.003 -0.06063,-0.003 -0.02481,0 -0.06063,0.003 l -0.135048,-0.32109 -0.961874,-2.17179 q 0.03583,0.001 0.05926,0.001 0.0248,0 0.06063,-0.001 l 0.08957,0.21773 0.691777,1.56959 z"
         id="path972" />
      <path
         d="m -10.270623,-175.56639 h 0.09371 v 2.35094 h -0.09371 z"
         id="path974" />
      <path
         d="m -9.7166493,-173.07351 0.4023882,-0.85163 0.6835089,-1.47589 0.071658,-0.16536 q 0.034451,0.001 0.057878,0.001 0.023427,0 0.057878,-0.001 l -1.0183731,2.18282 -0.1378042,0.31006 q -0.034451,-0.003 -0.057878,-0.003 -0.026183,0 -0.059256,0.003 z"
         id="path976" />
      <path
         d="m -7.7129753,-175.56639 h 0.093707 v 2.35094 h -0.093707 z"
         id="path978" />
      <path
         d="m -5.6596938,-173.07351 q -0.034451,-0.003 -0.060634,-0.003 -0.024805,0 -0.060634,0.003 l -0.1350481,-0.32109 -0.9618734,-2.17179 q 0.035829,0.001 0.059256,0.001 0.024805,0 0.060634,-0.001 l 0.089573,0.21773 0.6917771,1.56959 z"
         id="path980" />
      <path
         d="m -5.1553295,-175.56639 h 0.093707 v 2.35094 h -0.093707 z"
         id="path982" />
      <path
         d="m -4.6013578,-173.07351 0.4023883,-0.85163 0.6835089,-1.47589 0.071658,-0.16536 q 0.034451,0.001 0.057878,0.001 0.023427,0 0.057878,-0.001 l -1.0183731,2.18282 -0.1378042,0.31006 q -0.034451,-0.003 -0.057878,-0.003 -0.026183,0 -0.059256,0.003 z"
         id="path984" />
      <path
         d="m -2.5976837,-175.56639 h 0.093707 v 2.35094 h -0.093707 z"
         id="path986" />
      <path
         d="m -0.54440222,-173.07351 q -0.034451,-0.003 -0.0606338,-0.003 -0.0248048,0 -0.0606339,0.003 l -0.13504812,-0.32109 -0.96187337,-2.17179 q 0.035829,0.001 0.059256,0.001 0.024805,0 0.060634,-0.001 l 0.089573,0.21773 0.69177712,1.56959 z"
         id="path988" />
    </g>
    <g
       aria-label="/|\|/|\|/|\|/|\|/|\|/|\"
       id="text6165"
       style="font-size:2.82223px;font-family:'Eras Light ITC';-inkscape-font-specification:'Eras Light ITC';stroke-width:0.264583">
      <path
         d="m 0.49763102,289.08246 0.40238827,-0.85163 0.68350881,-1.47588 0.071658,-0.16537 q 0.034451,0.001 0.057878,0.001 0.023427,0 0.057878,-0.001 l -1.0183731,2.18282 -0.13780421,0.31006 q -0.0344511,-0.003 -0.0578778,-0.003 -0.0261828,0 -0.0592558,0.003 z"
         id="path1066" />
      <path
         d="m 2.5013041,286.58958 h 0.093707 v 2.35094 h -0.093707 z"
         id="path1068" />
      <path
         d="m 4.5545868,289.08246 q -0.034451,-0.003 -0.060634,-0.003 -0.024805,0 -0.060634,0.003 l -0.1350481,-0.32108 -0.9618734,-2.1718 q 0.035829,0.001 0.059256,0.001 0.024805,0 0.060634,-0.001 l 0.089573,0.21773 0.6917771,1.56959 z"
         id="path1070" />
      <path
         d="m 5.0589502,286.58958 h 0.093707 v 2.35094 h -0.093707 z"
         id="path1072" />
      <path
         d="m 5.6129231,289.08246 0.4023883,-0.85163 0.6835088,-1.47588 0.071658,-0.16537 q 0.034451,0.001 0.057878,0.001 0.023427,0 0.057878,-0.001 l -1.018373,2.18282 -0.1378042,0.31006 q -0.034451,-0.003 -0.057878,-0.003 -0.026183,0 -0.059256,0.003 z"
         id="path1074" />
      <path
         d="m 7.6165962,286.58958 h 0.093707 v 2.35094 h -0.093707 z"
         id="path1076" />
      <path
         d="m 9.6698791,289.08246 q -0.034451,-0.003 -0.060634,-0.003 -0.024805,0 -0.060634,0.003 l -0.1350481,-0.32108 -0.9618734,-2.1718 q 0.035829,0.001 0.059256,0.001 0.024805,0 0.060634,-0.001 l 0.089573,0.21773 0.6917771,1.56959 z"
         id="path1078" />
      <path
         d="m 10.174242,286.58958 h 0.09371 v 2.35094 h -0.09371 z"
         id="path1080" />
      <path
         d="m 10.728215,289.08246 0.402388,-0.85163 0.683509,-1.47588 0.07166,-0.16537 q 0.03445,0.001 0.05788,0.001 0.02343,0 0.05788,-0.001 l -1.018373,2.18282 -0.137804,0.31006 q -0.03445,-0.003 -0.05788,-0.003 -0.02618,0 -0.05926,0.003 z"
         id="path1082" />
      <path
         d="m 12.731888,286.58958 h 0.09371 v 2.35094 h -0.09371 z"
         id="path1084" />
      <path
         d="m 14.785171,289.08246 q -0.03445,-0.003 -0.06063,-0.003 -0.02481,0 -0.06063,0.003 l -0.135048,-0.32108 -0.961873,-2.1718 q 0.03583,0.001 0.05926,0.001 0.02481,0 0.06063,-0.001 l 0.08957,0.21773 0.691777,1.56959 z"
         id="path1086" />
      <path
         d="m 15.289534,286.58958 h 0.09371 v 2.35094 h -0.09371 z"
         id="path1088" />
      <path
         d="m 15.843508,289.08246 0.402388,-0.85163 0.683509,-1.47588 0.07166,-0.16537 q 0.03445,0.001 0.05788,0.001 0.02343,0 0.05788,-0.001 l -1.018374,2.18282 -0.137804,0.31006 q -0.03445,-0.003 -0.05788,-0.003 -0.02618,0 -0.05926,0.003 z"
         id="path1090" />
      <path
         d="m 17.84718,286.58958 h 0.09371 v 2.35094 h -0.09371 z"
         id="path1092" />
      <path
         d="m 19.900463,289.08246 q -0.03445,-0.003 -0.06063,-0.003 -0.0248,0 -0.06063,0.003 l -0.135049,-0.32108 -0.961873,-2.1718 q 0.03583,0.001 0.05926,0.001 0.02481,0 0.06063,-0.001 l 0.08957,0.21773 0.691778,1.56959 z"
         id="path1094" />
      <path
         d="m 20.404826,286.58958 h 0.09371 v 2.35094 h -0.09371 z"
         id="path1096" />
      <path
         d="m 20.958799,289.08246 0.402389,-0.85163 0.683508,-1.47588 0.07166,-0.16537 q 0.03445,0.001 0.05788,0.001 0.02343,0 0.05788,-0.001 l -1.018373,2.18282 -0.137804,0.31006 q -0.03445,-0.003 -0.05788,-0.003 -0.02618,0 -0.05926,0.003 z"
         id="path1098" />
      <path
         d="m 22.962473,286.58958 h 0.09371 v 2.35094 h -0.09371 z"
         id="path1100" />
      <path
         d="m 25.015755,289.08246 q -0.03445,-0.003 -0.06063,-0.003 -0.0248,0 -0.06063,0.003 l -0.135048,-0.32108 -0.961873,-2.1718 q 0.03583,0.001 0.05926,0.001 0.02481,0 0.06063,-0.001 l 0.08957,0.21773 0.691777,1.56959 z"
         id="path1102" />
      <path
         d="m 25.520119,286.58958 h 0.09371 v 2.35094 h -0.09371 z"
         id="path1104" />
      <path
         d="m 26.074091,289.08246 0.402388,-0.85163 0.683509,-1.47588 0.07166,-0.16537 q 0.03445,0.001 0.05788,0.001 0.02343,0 0.05788,-0.001 l -1.018373,2.18282 -0.137805,0.31006 q -0.03445,-0.003 -0.05788,-0.003 -0.02618,0 -0.05926,0.003 z"
         id="path1106" />
      <path
         d="m 28.077765,286.58958 h 0.09371 v 2.35094 h -0.09371 z"
         id="path1108" />
      <path
         d="m 30.131046,289.08246 q -0.03445,-0.003 -0.06063,-0.003 -0.0248,0 -0.06063,0.003 l -0.135048,-0.32108 -0.961874,-2.1718 q 0.03583,0.001 0.05926,0.001 0.02481,0 0.06063,-0.001 l 0.08957,0.21773 0.691777,1.56959 z"
         id="path1110" />
    </g>
  </g>
  <g
     inkscape:groupmode="layer"
     id="layer2"
     inkscape:label="components"
     style="display:none">
    <g
       id="TrimPot"
       transform="translate(-20.272329,-10.52549)"
       style="display:none">
      <path
         style="display:inline;fill:#000000;fill-opacity:1;stroke:#000000;stroke-width:0.2272"
         id="path3594"
         sodipodi:type="arc"
         sodipodi:cx="182.47252"
         sodipodi:cy="-115.72007"
         sodipodi:rx="3.8864"
         sodipodi:ry="3.8864"
         sodipodi:start="0"
         sodipodi:end="5.2359878"
         sodipodi:arc-type="slice"
         transform="rotate(120,48.641754,-84.24999)"
         d="m 186.35892,-115.72007 a 3.8864,3.8864 0 0 1 -2.88053,3.75397 3.8864,3.8864 0 0 1 -4.37159,-1.81077 3.8864,3.8864 0 0 1 0.61762,-4.6913 3.8864,3.8864 0 0 1 4.6913,-0.61762 l -1.9432,3.36572 z" />
      <circle
         style="fill:#ff0000;fill-opacity:1;stroke:#000000;stroke-width:0;paint-order:stroke fill markers"
         id="circle3596"
         cx="8.9802608"
         cy="47.385891"
         r="1.8708867" />
    </g>
    <circle
       style="fill:#ff00ff;fill-opacity:1;stroke:#000000;stroke-width:0;paint-order:stroke fill markers"
       id="LIGHT_A"
       cx="15.24"
       cy="50.504276"
       r="1.8708867" />
    <g
       id="LightLatch"
       transform="translate(-38.434752,8.0471296)"
       style="display:none">
      <circle
         style="display:inline;fill:#1a1a1a;stroke:#000000;stroke-width:0.1136"
         id="circle6348"
         cx="30.481001"
         cy="35.542484"
         r="1.9432" />
      <circle
         style="fill:#ff00ff;fill-opacity:1;stroke:#000000;stroke-width:0;paint-order:stroke fill markers"
         id="circle290"
         cx="30.481001"
         cy="35.542484"
         r="1.8708867" />
      <circle
         style="fill:#ff0000;fill-opacity:1;stroke:#000000;stroke-width:0;paint-order:stroke fill markers"
         id="circle292"
         cx="30.481001"
         cy="35.542484"
         r="1.1102098" />
    </g>
    <circle
       style="fill:#0000ff;fill-opacity:1;stroke:#000000;stroke-width:0;paint-order:stroke fill markers"
       id="OUTPUT_COMPA"
       cx="15.24"
       cy="59.228657"
       r="1.8708867" />
    <circle
       style="fill:#00ff00;fill-opacity:1;stroke:#000000;stroke-width:0;paint-order:stroke fill markers"
       id="circle18677"
       cx="15.24"
       cy="94.932816"
       r="1.8708867" />
    <circle
       style="fill:#0000ff;fill-opacity:1;stroke:#000000;stroke-width:0;paint-order:stroke fill markers"
       id="OUTPUT_SWITCHB"
       cx="15.24"
       cy="108.32097"
       r="1.8708867" />
    <circle
       style="fill:#ff0000;fill-opacity:1;stroke:#000000;stroke-width:0;paint-order:stroke fill markers"
       id="circle3062"
       cx="15.24"
       cy="27.929842"
       r="1.8708867" />
    <circle
       style="fill:#00ff00;fill-opacity:1;stroke:#000000;stroke-width:0;paint-order:stroke fill markers"
       id="INPUT_COMPA1"
       cx="6.5087495"
       cy="45.702858"
       r="1.8708867" />
    <circle
       style="fill:#00ff00;fill-opacity:1;stroke:#000000;stroke-width:0;paint-order:stroke fill markers"
       id="INPUT_SWITCHB1"
       cx="6.5087495"
       cy="79.195808"
       r="1.8708867" />
    <circle
       style="fill:#ff00ff;fill-opacity:1;stroke:#000000;stroke-width:0;paint-order:stroke fill markers"
       id="circle3148"
       cx="6.5087495"
       cy="86.75219"
       r="1.8708867" />
    <circle
       style="fill:#00ff00;fill-opacity:1;stroke:#000000;stroke-width:0;paint-order:stroke fill markers"
       id="INPUT_COMPA2"
       cx="23.971251"
       cy="45.702854"
       r="1.8708867" />
    <circle
       style="fill:#00ff00;fill-opacity:1;stroke:#000000;stroke-width:0;paint-order:stroke fill markers"
       id="INPUT_SWITCHB2"
       cx="23.971251"
       cy="79.195808"
       r="1.8708867" />
    <circle
       style="fill:#ff00ff;fill-opacity:1;stroke:#000000;stroke-width:0;paint-order:stroke fill markers"
       id="circle3150"
       cx="23.971251"
       cy="86.75219"
       r="1.8708867" />
  </g>
  <g
     inkscape:groupmode="layer"
     id="layer3"
     inkscape:label="work"
     style="display:none">
    <circle
       style="display:inline;opacity:0.368876;fill:#ff0000;stroke:#000000;stroke-width:0;stroke-dasharray:0.894522, 0.298175;stroke-dashoffset:0;stroke-opacity:0.386792;paint-order:stroke fill markers"
       id="path1753"
       cx="15.24"
       cy="27.929842"
       r="10.149561" />
  </g>
  <script
     id="mesh_polyfill"
     type="text/javascript">
!function(){const t=&quot;http://www.w3.org/2000/svg&quot;,e=&quot;http://www.w3.org/1999/xlink&quot;,s=&quot;http://www.w3.org/1999/xhtml&quot;,r=2;if(document.createElementNS(t,&quot;meshgradient&quot;).x)return;const n=(t,e,s,r)=&gt;{let n=new x(.5*(e.x+s.x),.5*(e.y+s.y)),o=new x(.5*(t.x+e.x),.5*(t.y+e.y)),i=new x(.5*(s.x+r.x),.5*(s.y+r.y)),a=new x(.5*(n.x+o.x),.5*(n.y+o.y)),h=new x(.5*(n.x+i.x),.5*(n.y+i.y)),l=new x(.5*(a.x+h.x),.5*(a.y+h.y));return[[t,o,a,l],[l,h,i,r]]},o=t=&gt;{let e=t[0].distSquared(t[1]),s=t[2].distSquared(t[3]),r=.25*t[0].distSquared(t[2]),n=.25*t[1].distSquared(t[3]),o=e&gt;s?e:s,i=r&gt;n?r:n;return 18*(o&gt;i?o:i)},i=(t,e)=&gt;Math.sqrt(t.distSquared(e)),a=(t,e)=&gt;t.scale(2/3).add(e.scale(1/3)),h=t=&gt;{let e,s,r,n,o,i,a,h=new g;return t.match(/(\w+\(\s*[^)]+\))+/g).forEach(t=&gt;{let l=t.match(/[\w.-]+/g),d=l.shift();switch(d){case&quot;translate&quot;:2===l.length?e=new g(1,0,0,1,l[0],l[1]):(console.error(&quot;mesh.js: translate does not have 2 arguments!&quot;),e=new g(1,0,0,1,0,0)),h=h.append(e);break;case&quot;scale&quot;:1===l.length?s=new g(l[0],0,0,l[0],0,0):2===l.length?s=new g(l[0],0,0,l[1],0,0):(console.error(&quot;mesh.js: scale does not have 1 or 2 arguments!&quot;),s=new g(1,0,0,1,0,0)),h=h.append(s);break;case&quot;rotate&quot;:if(3===l.length&amp;&amp;(e=new g(1,0,0,1,l[1],l[2]),h=h.append(e)),l[0]){r=l[0]*Math.PI/180;let t=Math.cos(r),e=Math.sin(r);Math.abs(t)&lt;1e-16&amp;&amp;(t=0),Math.abs(e)&lt;1e-16&amp;&amp;(e=0),a=new g(t,e,-e,t,0,0),h=h.append(a)}else console.error(&quot;math.js: No argument to rotate transform!&quot;);3===l.length&amp;&amp;(e=new g(1,0,0,1,-l[1],-l[2]),h=h.append(e));break;case&quot;skewX&quot;:l[0]?(r=l[0]*Math.PI/180,n=Math.tan(r),o=new g(1,0,n,1,0,0),h=h.append(o)):console.error(&quot;math.js: No argument to skewX transform!&quot;);break;case&quot;skewY&quot;:l[0]?(r=l[0]*Math.PI/180,n=Math.tan(r),i=new g(1,n,0,1,0,0),h=h.append(i)):console.error(&quot;math.js: No argument to skewY transform!&quot;);break;case&quot;matrix&quot;:6===l.length?h=h.append(new g(...l)):console.error(&quot;math.js: Incorrect number of arguments for matrix!&quot;);break;default:console.error(&quot;mesh.js: Unhandled transform type: &quot;+d)}}),h},l=t=&gt;{let e=[],s=t.split(/[ ,]+/);for(let t=0,r=s.length-1;t&lt;r;t+=2)e.push(new x(parseFloat(s[t]),parseFloat(s[t+1])));return e},d=(t,e)=&gt;{for(let s in e)t.setAttribute(s,e[s])},c=(t,e,s,r,n)=&gt;{let o,i,a=[0,0,0,0];for(let h=0;h&lt;3;++h)e[h]&lt;t[h]&amp;&amp;e[h]&lt;s[h]||t[h]&lt;e[h]&amp;&amp;s[h]&lt;e[h]?a[h]=0:(a[h]=.5*((e[h]-t[h])/r+(s[h]-e[h])/n),o=Math.abs(3*(e[h]-t[h])/r),i=Math.abs(3*(s[h]-e[h])/n),a[h]&gt;o?a[h]=o:a[h]&gt;i&amp;&amp;(a[h]=i));return a},u=[[1,0,0,0,0,0,0,0,0,0,0,0,0,0,0,0],[0,0,0,0,1,0,0,0,0,0,0,0,0,0,0,0],[-3,3,0,0,-2,-1,0,0,0,0,0,0,0,0,0,0],[2,-2,0,0,1,1,0,0,0,0,0,0,0,0,0,0],[0,0,0,0,0,0,0,0,1,0,0,0,0,0,0,0],[0,0,0,0,0,0,0,0,0,0,0,0,1,0,0,0],[0,0,0,0,0,0,0,0,-3,3,0,0,-2,-1,0,0],[0,0,0,0,0,0,0,0,2,-2,0,0,1,1,0,0],[-3,0,3,0,0,0,0,0,-2,0,-1,0,0,0,0,0],[0,0,0,0,-3,0,3,0,0,0,0,0,-2,0,-1,0],[9,-9,-9,9,6,3,-6,-3,6,-6,3,-3,4,2,2,1],[-6,6,6,-6,-3,-3,3,3,-4,4,-2,2,-2,-2,-1,-1],[2,0,-2,0,0,0,0,0,1,0,1,0,0,0,0,0],[0,0,0,0,2,0,-2,0,0,0,0,0,1,0,1,0],[-6,6,6,-6,-4,-2,4,2,-3,3,-3,3,-2,-1,-2,-1],[4,-4,-4,4,2,2,-2,-2,2,-2,2,-2,1,1,1,1]],f=t=&gt;{let e=[];for(let s=0;s&lt;16;++s){e[s]=0;for(let r=0;r&lt;16;++r)e[s]+=u[s][r]*t[r]}return e},p=(t,e,s)=&gt;{const r=e*e,n=s*s,o=e*e*e,i=s*s*s;return t[0]+t[1]*e+t[2]*r+t[3]*o+t[4]*s+t[5]*s*e+t[6]*s*r+t[7]*s*o+t[8]*n+t[9]*n*e+t[10]*n*r+t[11]*n*o+t[12]*i+t[13]*i*e+t[14]*i*r+t[15]*i*o},y=t=&gt;{let e=[],s=[],r=[];for(let s=0;s&lt;4;++s)e[s]=[],e[s][0]=n(t[0][s],t[1][s],t[2][s],t[3][s]),e[s][1]=[],e[s][1].push(...n(...e[s][0][0])),e[s][1].push(...n(...e[s][0][1])),e[s][2]=[],e[s][2].push(...n(...e[s][1][0])),e[s][2].push(...n(...e[s][1][1])),e[s][2].push(...n(...e[s][1][2])),e[s][2].push(...n(...e[s][1][3]));for(let t=0;t&lt;8;++t){s[t]=[];for(let r=0;r&lt;4;++r)s[t][r]=[],s[t][r][0]=n(e[0][2][t][r],e[1][2][t][r],e[2][2][t][r],e[3][2][t][r]),s[t][r][1]=[],s[t][r][1].push(...n(...s[t][r][0][0])),s[t][r][1].push(...n(...s[t][r][0][1])),s[t][r][2]=[],s[t][r][2].push(...n(...s[t][r][1][0])),s[t][r][2].push(...n(...s[t][r][1][1])),s[t][r][2].push(...n(...s[t][r][1][2])),s[t][r][2].push(...n(...s[t][r][1][3]))}for(let t=0;t&lt;8;++t){r[t]=[];for(let e=0;e&lt;8;++e)r[t][e]=[],r[t][e][0]=s[t][0][2][e],r[t][e][1]=s[t][1][2][e],r[t][e][2]=s[t][2][2][e],r[t][e][3]=s[t][3][2][e]}return r};class x{constructor(t,e){this.x=t||0,this.y=e||0}toString(){return`(x=${this.x}, y=${this.y})`}clone(){return new x(this.x,this.y)}add(t){return new x(this.x+t.x,this.y+t.y)}scale(t){return void 0===t.x?new x(this.x*t,this.y*t):new x(this.x*t.x,this.y*t.y)}distSquared(t){let e=this.x-t.x,s=this.y-t.y;return e*e+s*s}transform(t){let e=this.x*t.a+this.y*t.c+t.e,s=this.x*t.b+this.y*t.d+t.f;return new x(e,s)}}class g{constructor(t,e,s,r,n,o){void 0===t?(this.a=1,this.b=0,this.c=0,this.d=1,this.e=0,this.f=0):(this.a=t,this.b=e,this.c=s,this.d=r,this.e=n,this.f=o)}toString(){return`affine: ${this.a} ${this.c} ${this.e} \n       ${this.b} ${this.d} ${this.f}`}append(t){t instanceof g||console.error(&quot;mesh.js: argument to Affine.append is not affine!&quot;);let e=this.a*t.a+this.c*t.b,s=this.b*t.a+this.d*t.b,r=this.a*t.c+this.c*t.d,n=this.b*t.c+this.d*t.d,o=this.a*t.e+this.c*t.f+this.e,i=this.b*t.e+this.d*t.f+this.f;return new g(e,s,r,n,o,i)}}class w{constructor(t,e){this.nodes=t,this.colors=e}paintCurve(t,e){if(o(this.nodes)&gt;r){const s=n(...this.nodes);let r=[[],[]],o=[[],[]];for(let t=0;t&lt;4;++t)r[0][t]=this.colors[0][t],r[1][t]=(this.colors[0][t]+this.colors[1][t])/2,o[0][t]=r[1][t],o[1][t]=this.colors[1][t];let i=new w(s[0],r),a=new w(s[1],o);i.paintCurve(t,e),a.paintCurve(t,e)}else{let s=Math.round(this.nodes[0].x);if(s&gt;=0&amp;&amp;s&lt;e){let r=4*(~~this.nodes[0].y*e+s);t[r]=Math.round(this.colors[0][0]),t[r+1]=Math.round(this.colors[0][1]),t[r+2]=Math.round(this.colors[0][2]),t[r+3]=Math.round(this.colors[0][3])}}}}class m{constructor(t,e){this.nodes=t,this.colors=e}split(){let t=[[],[],[],[]],e=[[],[],[],[]],s=[[[],[]],[[],[]]],r=[[[],[]],[[],[]]];for(let s=0;s&lt;4;++s){const r=n(this.nodes[0][s],this.nodes[1][s],this.nodes[2][s],this.nodes[3][s]);t[0][s]=r[0][0],t[1][s]=r[0][1],t[2][s]=r[0][2],t[3][s]=r[0][3],e[0][s]=r[1][0],e[1][s]=r[1][1],e[2][s]=r[1][2],e[3][s]=r[1][3]}for(let t=0;t&lt;4;++t)s[0][0][t]=this.colors[0][0][t],s[0][1][t]=this.colors[0][1][t],s[1][0][t]=(this.colors[0][0][t]+this.colors[1][0][t])/2,s[1][1][t]=(this.colors[0][1][t]+this.colors[1][1][t])/2,r[0][0][t]=s[1][0][t],r[0][1][t]=s[1][1][t],r[1][0][t]=this.colors[1][0][t],r[1][1][t]=this.colors[1][1][t];return[new m(t,s),new m(e,r)]}paint(t,e){let s,n=!1;for(let t=0;t&lt;4;++t)if((s=o([this.nodes[0][t],this.nodes[1][t],this.nodes[2][t],this.nodes[3][t]]))&gt;r){n=!0;break}if(n){let s=this.split();s[0].paint(t,e),s[1].paint(t,e)}else{new w([...this.nodes[0]],[...this.colors[0]]).paintCurve(t,e)}}}class b{constructor(t){this.readMesh(t),this.type=t.getAttribute(&quot;type&quot;)||&quot;bilinear&quot;}readMesh(t){let e=[[]],s=[[]],r=Number(t.getAttribute(&quot;x&quot;)),n=Number(t.getAttribute(&quot;y&quot;));e[0][0]=new x(r,n);let o=t.children;for(let t=0,r=o.length;t&lt;r;++t){e[3*t+1]=[],e[3*t+2]=[],e[3*t+3]=[],s[t+1]=[];let r=o[t].children;for(let n=0,o=r.length;n&lt;o;++n){let o=r[n].children;for(let r=0,i=o.length;r&lt;i;++r){let i=r;0!==t&amp;&amp;++i;let h,d=o[r].getAttribute(&quot;path&quot;),c=&quot;l&quot;;null!=d&amp;&amp;(c=(h=d.match(/\s*([lLcC])\s*(.*)/))[1]);let u=l(h[2]);switch(c){case&quot;l&quot;:0===i?(e[3*t][3*n+3]=u[0].add(e[3*t][3*n]),e[3*t][3*n+1]=a(e[3*t][3*n],e[3*t][3*n+3]),e[3*t][3*n+2]=a(e[3*t][3*n+3],e[3*t][3*n])):1===i?(e[3*t+3][3*n+3]=u[0].add(e[3*t][3*n+3]),e[3*t+1][3*n+3]=a(e[3*t][3*n+3],e[3*t+3][3*n+3]),e[3*t+2][3*n+3]=a(e[3*t+3][3*n+3],e[3*t][3*n+3])):2===i?(0===n&amp;&amp;(e[3*t+3][3*n+0]=u[0].add(e[3*t+3][3*n+3])),e[3*t+3][3*n+1]=a(e[3*t+3][3*n],e[3*t+3][3*n+3]),e[3*t+3][3*n+2]=a(e[3*t+3][3*n+3],e[3*t+3][3*n])):(e[3*t+1][3*n]=a(e[3*t][3*n],e[3*t+3][3*n]),e[3*t+2][3*n]=a(e[3*t+3][3*n],e[3*t][3*n]));break;case&quot;L&quot;:0===i?(e[3*t][3*n+3]=u[0],e[3*t][3*n+1]=a(e[3*t][3*n],e[3*t][3*n+3]),e[3*t][3*n+2]=a(e[3*t][3*n+3],e[3*t][3*n])):1===i?(e[3*t+3][3*n+3]=u[0],e[3*t+1][3*n+3]=a(e[3*t][3*n+3],e[3*t+3][3*n+3]),e[3*t+2][3*n+3]=a(e[3*t+3][3*n+3],e[3*t][3*n+3])):2===i?(0===n&amp;&amp;(e[3*t+3][3*n+0]=u[0]),e[3*t+3][3*n+1]=a(e[3*t+3][3*n],e[3*t+3][3*n+3]),e[3*t+3][3*n+2]=a(e[3*t+3][3*n+3],e[3*t+3][3*n])):(e[3*t+1][3*n]=a(e[3*t][3*n],e[3*t+3][3*n]),e[3*t+2][3*n]=a(e[3*t+3][3*n],e[3*t][3*n]));break;case&quot;c&quot;:0===i?(e[3*t][3*n+1]=u[0].add(e[3*t][3*n]),e[3*t][3*n+2]=u[1].add(e[3*t][3*n]),e[3*t][3*n+3]=u[2].add(e[3*t][3*n])):1===i?(e[3*t+1][3*n+3]=u[0].add(e[3*t][3*n+3]),e[3*t+2][3*n+3]=u[1].add(e[3*t][3*n+3]),e[3*t+3][3*n+3]=u[2].add(e[3*t][3*n+3])):2===i?(e[3*t+3][3*n+2]=u[0].add(e[3*t+3][3*n+3]),e[3*t+3][3*n+1]=u[1].add(e[3*t+3][3*n+3]),0===n&amp;&amp;(e[3*t+3][3*n+0]=u[2].add(e[3*t+3][3*n+3]))):(e[3*t+2][3*n]=u[0].add(e[3*t+3][3*n]),e[3*t+1][3*n]=u[1].add(e[3*t+3][3*n]));break;case&quot;C&quot;:0===i?(e[3*t][3*n+1]=u[0],e[3*t][3*n+2]=u[1],e[3*t][3*n+3]=u[2]):1===i?(e[3*t+1][3*n+3]=u[0],e[3*t+2][3*n+3]=u[1],e[3*t+3][3*n+3]=u[2]):2===i?(e[3*t+3][3*n+2]=u[0],e[3*t+3][3*n+1]=u[1],0===n&amp;&amp;(e[3*t+3][3*n+0]=u[2])):(e[3*t+2][3*n]=u[0],e[3*t+1][3*n]=u[1]);break;default:console.error(&quot;mesh.js: &quot;+c+&quot; invalid path type.&quot;)}if(0===t&amp;&amp;0===n||r&gt;0){let e=window.getComputedStyle(o[r]).stopColor.match(/^rgb\s*\(\s*(\d+)\s*,\s*(\d+)\s*,\s*(\d+)\s*\)$/i),a=window.getComputedStyle(o[r]).stopOpacity,h=255;a&amp;&amp;(h=Math.floor(255*a)),e&amp;&amp;(0===i?(s[t][n]=[],s[t][n][0]=Math.floor(e[1]),s[t][n][1]=Math.floor(e[2]),s[t][n][2]=Math.floor(e[3]),s[t][n][3]=h):1===i?(s[t][n+1]=[],s[t][n+1][0]=Math.floor(e[1]),s[t][n+1][1]=Math.floor(e[2]),s[t][n+1][2]=Math.floor(e[3]),s[t][n+1][3]=h):2===i?(s[t+1][n+1]=[],s[t+1][n+1][0]=Math.floor(e[1]),s[t+1][n+1][1]=Math.floor(e[2]),s[t+1][n+1][2]=Math.floor(e[3]),s[t+1][n+1][3]=h):3===i&amp;&amp;(s[t+1][n]=[],s[t+1][n][0]=Math.floor(e[1]),s[t+1][n][1]=Math.floor(e[2]),s[t+1][n][2]=Math.floor(e[3]),s[t+1][n][3]=h))}}e[3*t+1][3*n+1]=new x,e[3*t+1][3*n+2]=new x,e[3*t+2][3*n+1]=new x,e[3*t+2][3*n+2]=new x,e[3*t+1][3*n+1].x=(-4*e[3*t][3*n].x+6*(e[3*t][3*n+1].x+e[3*t+1][3*n].x)+-2*(e[3*t][3*n+3].x+e[3*t+3][3*n].x)+3*(e[3*t+3][3*n+1].x+e[3*t+1][3*n+3].x)+-1*e[3*t+3][3*n+3].x)/9,e[3*t+1][3*n+2].x=(-4*e[3*t][3*n+3].x+6*(e[3*t][3*n+2].x+e[3*t+1][3*n+3].x)+-2*(e[3*t][3*n].x+e[3*t+3][3*n+3].x)+3*(e[3*t+3][3*n+2].x+e[3*t+1][3*n].x)+-1*e[3*t+3][3*n].x)/9,e[3*t+2][3*n+1].x=(-4*e[3*t+3][3*n].x+6*(e[3*t+3][3*n+1].x+e[3*t+2][3*n].x)+-2*(e[3*t+3][3*n+3].x+e[3*t][3*n].x)+3*(e[3*t][3*n+1].x+e[3*t+2][3*n+3].x)+-1*e[3*t][3*n+3].x)/9,e[3*t+2][3*n+2].x=(-4*e[3*t+3][3*n+3].x+6*(e[3*t+3][3*n+2].x+e[3*t+2][3*n+3].x)+-2*(e[3*t+3][3*n].x+e[3*t][3*n+3].x)+3*(e[3*t][3*n+2].x+e[3*t+2][3*n].x)+-1*e[3*t][3*n].x)/9,e[3*t+1][3*n+1].y=(-4*e[3*t][3*n].y+6*(e[3*t][3*n+1].y+e[3*t+1][3*n].y)+-2*(e[3*t][3*n+3].y+e[3*t+3][3*n].y)+3*(e[3*t+3][3*n+1].y+e[3*t+1][3*n+3].y)+-1*e[3*t+3][3*n+3].y)/9,e[3*t+1][3*n+2].y=(-4*e[3*t][3*n+3].y+6*(e[3*t][3*n+2].y+e[3*t+1][3*n+3].y)+-2*(e[3*t][3*n].y+e[3*t+3][3*n+3].y)+3*(e[3*t+3][3*n+2].y+e[3*t+1][3*n].y)+-1*e[3*t+3][3*n].y)/9,e[3*t+2][3*n+1].y=(-4*e[3*t+3][3*n].y+6*(e[3*t+3][3*n+1].y+e[3*t+2][3*n].y)+-2*(e[3*t+3][3*n+3].y+e[3*t][3*n].y)+3*(e[3*t][3*n+1].y+e[3*t+2][3*n+3].y)+-1*e[3*t][3*n+3].y)/9,e[3*t+2][3*n+2].y=(-4*e[3*t+3][3*n+3].y+6*(e[3*t+3][3*n+2].y+e[3*t+2][3*n+3].y)+-2*(e[3*t+3][3*n].y+e[3*t][3*n+3].y)+3*(e[3*t][3*n+2].y+e[3*t+2][3*n].y)+-1*e[3*t][3*n].y)/9}}this.nodes=e,this.colors=s}paintMesh(t,e){let s=(this.nodes.length-1)/3,r=(this.nodes[0].length-1)/3;if(&quot;bilinear&quot;===this.type||s&lt;2||r&lt;2){let n;for(let o=0;o&lt;s;++o)for(let s=0;s&lt;r;++s){let r=[];for(let t=3*o,e=3*o+4;t&lt;e;++t)r.push(this.nodes[t].slice(3*s,3*s+4));let i=[];i.push(this.colors[o].slice(s,s+2)),i.push(this.colors[o+1].slice(s,s+2)),(n=new m(r,i)).paint(t,e)}}else{let n,o,a,h,l,d,u;const x=s,g=r;s++,r++;let w=new Array(s);for(let t=0;t&lt;s;++t){w[t]=new Array(r);for(let e=0;e&lt;r;++e)w[t][e]=[],w[t][e][0]=this.nodes[3*t][3*e],w[t][e][1]=this.colors[t][e]}for(let t=0;t&lt;s;++t)for(let e=0;e&lt;r;++e)0!==t&amp;&amp;t!==x&amp;&amp;(n=i(w[t-1][e][0],w[t][e][0]),o=i(w[t+1][e][0],w[t][e][0]),w[t][e][2]=c(w[t-1][e][1],w[t][e][1],w[t+1][e][1],n,o)),0!==e&amp;&amp;e!==g&amp;&amp;(n=i(w[t][e-1][0],w[t][e][0]),o=i(w[t][e+1][0],w[t][e][0]),w[t][e][3]=c(w[t][e-1][1],w[t][e][1],w[t][e+1][1],n,o));for(let t=0;t&lt;r;++t){w[0][t][2]=[],w[x][t][2]=[];for(let e=0;e&lt;4;++e)n=i(w[1][t][0],w[0][t][0]),o=i(w[x][t][0],w[x-1][t][0]),w[0][t][2][e]=n&gt;0?2*(w[1][t][1][e]-w[0][t][1][e])/n-w[1][t][2][e]:0,w[x][t][2][e]=o&gt;0?2*(w[x][t][1][e]-w[x-1][t][1][e])/o-w[x-1][t][2][e]:0}for(let t=0;t&lt;s;++t){w[t][0][3]=[],w[t][g][3]=[];for(let e=0;e&lt;4;++e)n=i(w[t][1][0],w[t][0][0]),o=i(w[t][g][0],w[t][g-1][0]),w[t][0][3][e]=n&gt;0?2*(w[t][1][1][e]-w[t][0][1][e])/n-w[t][1][3][e]:0,w[t][g][3][e]=o&gt;0?2*(w[t][g][1][e]-w[t][g-1][1][e])/o-w[t][g-1][3][e]:0}for(let s=0;s&lt;x;++s)for(let r=0;r&lt;g;++r){let n=i(w[s][r][0],w[s+1][r][0]),o=i(w[s][r+1][0],w[s+1][r+1][0]),c=i(w[s][r][0],w[s][r+1][0]),x=i(w[s+1][r][0],w[s+1][r+1][0]),g=[[],[],[],[]];for(let t=0;t&lt;4;++t){(d=[])[0]=w[s][r][1][t],d[1]=w[s+1][r][1][t],d[2]=w[s][r+1][1][t],d[3]=w[s+1][r+1][1][t],d[4]=w[s][r][2][t]*n,d[5]=w[s+1][r][2][t]*n,d[6]=w[s][r+1][2][t]*o,d[7]=w[s+1][r+1][2][t]*o,d[8]=w[s][r][3][t]*c,d[9]=w[s+1][r][3][t]*x,d[10]=w[s][r+1][3][t]*c,d[11]=w[s+1][r+1][3][t]*x,d[12]=0,d[13]=0,d[14]=0,d[15]=0,u=f(d);for(let e=0;e&lt;9;++e){g[t][e]=[];for(let s=0;s&lt;9;++s)g[t][e][s]=p(u,e/8,s/8),g[t][e][s]&gt;255?g[t][e][s]=255:g[t][e][s]&lt;0&amp;&amp;(g[t][e][s]=0)}}h=[];for(let t=3*s,e=3*s+4;t&lt;e;++t)h.push(this.nodes[t].slice(3*r,3*r+4));l=y(h);for(let s=0;s&lt;8;++s)for(let r=0;r&lt;8;++r)(a=new m(l[s][r],[[[g[0][s][r],g[1][s][r],g[2][s][r],g[3][s][r]],[g[0][s][r+1],g[1][s][r+1],g[2][s][r+1],g[3][s][r+1]]],[[g[0][s+1][r],g[1][s+1][r],g[2][s+1][r],g[3][s+1][r]],[g[0][s+1][r+1],g[1][s+1][r+1],g[2][s+1][r+1],g[3][s+1][r+1]]]])).paint(t,e)}}}transform(t){if(t instanceof x)for(let e=0,s=this.nodes.length;e&lt;s;++e)for(let s=0,r=this.nodes[0].length;s&lt;r;++s)this.nodes[e][s]=this.nodes[e][s].add(t);else if(t instanceof g)for(let e=0,s=this.nodes.length;e&lt;s;++e)for(let s=0,r=this.nodes[0].length;s&lt;r;++s)this.nodes[e][s]=this.nodes[e][s].transform(t)}scale(t){for(let e=0,s=this.nodes.length;e&lt;s;++e)for(let s=0,r=this.nodes[0].length;s&lt;r;++s)this.nodes[e][s]=this.nodes[e][s].scale(t)}}document.querySelectorAll(&quot;rect,circle,ellipse,path,text&quot;).forEach((r,n)=&gt;{let o=r.getAttribute(&quot;id&quot;);o||(o=&quot;patchjs_shape&quot;+n,r.setAttribute(&quot;id&quot;,o));const i=r.style.fill.match(/^url\(\s*&quot;?\s*#([^\s&quot;]+)&quot;?\s*\)/),a=r.style.stroke.match(/^url\(\s*&quot;?\s*#([^\s&quot;]+)&quot;?\s*\)/);if(i&amp;&amp;i[1]){const a=document.getElementById(i[1]);if(a&amp;&amp;&quot;meshgradient&quot;===a.nodeName){const i=r.getBBox();let l=document.createElementNS(s,&quot;canvas&quot;);d(l,{width:i.width,height:i.height});const c=l.getContext(&quot;2d&quot;);let u=c.createImageData(i.width,i.height);const f=new b(a);&quot;objectBoundingBox&quot;===a.getAttribute(&quot;gradientUnits&quot;)&amp;&amp;f.scale(new x(i.width,i.height));const p=a.getAttribute(&quot;gradientTransform&quot;);null!=p&amp;&amp;f.transform(h(p)),&quot;userSpaceOnUse&quot;===a.getAttribute(&quot;gradientUnits&quot;)&amp;&amp;f.transform(new x(-i.x,-i.y)),f.paintMesh(u.data,l.width),c.putImageData(u,0,0);const y=document.createElementNS(t,&quot;image&quot;);d(y,{width:i.width,height:i.height,x:i.x,y:i.y});let g=l.toDataURL();y.setAttributeNS(e,&quot;xlink:href&quot;,g),r.parentNode.insertBefore(y,r),r.style.fill=&quot;none&quot;;const w=document.createElementNS(t,&quot;use&quot;);w.setAttributeNS(e,&quot;xlink:href&quot;,&quot;#&quot;+o);const m=&quot;patchjs_clip&quot;+n,M=document.createElementNS(t,&quot;clipPath&quot;);M.setAttribute(&quot;id&quot;,m),M.appendChild(w),r.parentElement.insertBefore(M,r),y.setAttribute(&quot;clip-path&quot;,&quot;url(#&quot;+m+&quot;)&quot;),u=null,l=null,g=null}}if(a&amp;&amp;a[1]){const o=document.getElementById(a[1]);if(o&amp;&amp;&quot;meshgradient&quot;===o.nodeName){const i=parseFloat(r.style.strokeWidth.slice(0,-2))*(parseFloat(r.style.strokeMiterlimit)||parseFloat(r.getAttribute(&quot;stroke-miterlimit&quot;))||1),a=r.getBBox(),l=Math.trunc(a.width+i),c=Math.trunc(a.height+i),u=Math.trunc(a.x-i/2),f=Math.trunc(a.y-i/2);let p=document.createElementNS(s,&quot;canvas&quot;);d(p,{width:l,height:c});const y=p.getContext(&quot;2d&quot;);let g=y.createImageData(l,c);const w=new b(o);&quot;objectBoundingBox&quot;===o.getAttribute(&quot;gradientUnits&quot;)&amp;&amp;w.scale(new x(l,c));const m=o.getAttribute(&quot;gradientTransform&quot;);null!=m&amp;&amp;w.transform(h(m)),&quot;userSpaceOnUse&quot;===o.getAttribute(&quot;gradientUnits&quot;)&amp;&amp;w.transform(new x(-u,-f)),w.paintMesh(g.data,p.width),y.putImageData(g,0,0);const M=document.createElementNS(t,&quot;image&quot;);d(M,{width:l,height:c,x:0,y:0});let S=p.toDataURL();M.setAttributeNS(e,&quot;xlink:href&quot;,S);const k=&quot;pattern_clip&quot;+n,A=document.createElementNS(t,&quot;pattern&quot;);d(A,{id:k,patternUnits:&quot;userSpaceOnUse&quot;,width:l,height:c,x:u,y:f}),A.appendChild(M),o.parentNode.appendChild(A),r.style.stroke=&quot;url(#&quot;+k+&quot;)&quot;,g=null,p=null,S=null}}})}();
</script>
</svg>
