<?xml version="1.0" encoding="UTF-8" standalone="no"?>
<!-- Created with Inkscape (http://www.inkscape.org/) -->

<svg
   width="50.799999mm"
   height="128.5mm"
   viewBox="0 0 50.800006 128.50002"
   version="1.1"
   id="svg8"
   inkscape:version="1.1.2 (b8e25be833, 2022-02-05)"
   sodipodi:docname="Hellebore.svg"
   xmlns:inkscape="http://www.inkscape.org/namespaces/inkscape"
   xmlns:sodipodi="http://sodipodi.sourceforge.net/DTD/sodipodi-0.dtd"
   xmlns="http://www.w3.org/2000/svg"
   xmlns:svg="http://www.w3.org/2000/svg"
   xmlns:rdf="http://www.w3.org/1999/02/22-rdf-syntax-ns#"
   xmlns:cc="http://creativecommons.org/ns#"
   xmlns:dc="http://purl.org/dc/elements/1.1/">
  <defs
     id="defs2">
    <rect
       x="-192.51018"
       y="193.19043"
       width="117.6829"
       height="46.256864"
       id="rect13775" />
    <rect
       x="196.76173"
       y="16.325952"
       width="66.664304"
       height="13.434898"
       id="rect3713" />
    <rect
       x="-15.526671"
       y="-29.917244"
       width="176.85257"
       height="101.11271"
       id="rect12265" />
    <rect
       x="-80.249992"
       y="29.749998"
       width="196.24998"
       height="88.999992"
       id="rect1623" />
    <rect
       x="-18.384775"
       y="519.01636"
       width="280.01428"
       height="164.04877"
       id="rect3463" />
    <rect
       x="-71.5"
       y="121"
       width="55.75"
       height="60.749996"
       id="rect19101" />
    <rect
       x="-79.5"
       y="182.25"
       width="69.75"
       height="106.75"
       id="rect9921" />
    <inkscape:path-effect
       effect="bspline"
       id="path-effect4868"
       is_visible="true"
       lpeversion="1"
       weight="33.333333"
       steps="2"
       helper_size="0"
       apply_no_weight="true"
       apply_with_weight="true"
       only_selected="false" />
    <inkscape:perspective
       sodipodi:type="inkscape:persp3d"
       inkscape:vp_x="0 : 64.25001 : 1"
       inkscape:vp_y="0 : 1000 : 0"
       inkscape:vp_z="60.960006 : 64.25001 : 1"
       inkscape:persp3d-origin="30.480003 : 42.83334 : 1"
       id="perspective990" />
    <rect
       x="3.0304575"
       y="71.720833"
       width="36.36549"
       height="17.172592"
       id="rect41724" />
    <rect
       x="2.0203052"
       y="39.39595"
       width="56.568546"
       height="41.416252"
       id="rect21572" />
    <rect
       x="-201.02036"
       y="146.47212"
       width="169.70563"
       height="40.406101"
       id="rect16734" />
    <rect
       x="3.0304575"
       y="71.720833"
       width="36.36549"
       height="17.172592"
       id="rect54374" />
    <rect
       x="3.0304575"
       y="71.720833"
       width="36.36549"
       height="17.172592"
       id="rect54374-0" />
    <rect
       x="3.0304575"
       y="71.720833"
       width="46.972092"
       height="17.172592"
       id="rect54374-0-7" />
    <rect
       x="-334.46149"
       y="238.29497"
       width="352.7178"
       height="13.709198"
       id="rect24141" />
    <rect
       x="-334.46149"
       y="238.29497"
       width="352.7178"
       height="13.709198"
       id="rect1049" />
    <rect
       x="196.76173"
       y="16.325952"
       width="115.98228"
       height="15.985828"
       id="rect4513" />
    <rect
       x="196.76173"
       y="16.325952"
       width="244.41141"
       height="14.061796"
       id="rect6121" />
    <rect
       x="196.76173"
       y="16.325952"
       width="-22.926057"
       height="-25.732712"
       id="rect11749" />
    <rect
       x="196.76173"
       y="16.325952"
       width="244.41141"
       height="14.061796"
       id="rect11755" />
  </defs>
  <sodipodi:namedview
     id="base"
     pagecolor="#ffffff"
     bordercolor="#666666"
     borderopacity="1.0"
     inkscape:pageopacity="0.0"
     inkscape:pageshadow="2"
     inkscape:zoom="1.8022316"
     inkscape:cx="91.830595"
     inkscape:cy="261.34266"
     inkscape:document-units="mm"
     inkscape:current-layer="layer2"
     showgrid="false"
     units="mm"
     inkscape:snap-bbox="true"
     inkscape:snap-page="true"
     inkscape:bbox-nodes="false"
     inkscape:snap-bbox-edge-midpoints="false"
     inkscape:window-width="1920"
     inkscape:window-height="1051"
     inkscape:window-x="-9"
     inkscape:window-y="-9"
     inkscape:window-maximized="1"
     inkscape:snap-bbox-midpoints="true"
     inkscape:snap-nodes="false"
     inkscape:pagecheckerboard="0"
     width="2.4in"
     inkscape:bbox-paths="false"
     inkscape:showpageshadow="2"
     inkscape:deskcolor="#d1d1d1"
     inkscape:snap-global="true" />
  <metadata
     id="metadata5">
    <rdf:RDF>
      <cc:Work
         rdf:about="">
        <dc:format>image/svg+xml</dc:format>
        <dc:type
           rdf:resource="http://purl.org/dc/dcmitype/StillImage" />
      </cc:Work>
    </rdf:RDF>
  </metadata>
  <g
     inkscape:label="Layer 1"
     inkscape:groupmode="layer"
     id="layer1"
     transform="translate(0,-168.49998)"
     style="display:inline">
    <rect
       style="display:inline;opacity:1;vector-effect:none;fill:#c6c6c6;fill-opacity:1;fill-rule:evenodd;stroke:none;stroke-width:0.838319;stroke-linecap:butt;stroke-linejoin:miter;stroke-miterlimit:4;stroke-dasharray:none;stroke-dashoffset:0;stroke-opacity:1;paint-order:normal"
       id="rect420"
       width="50.799999"
       height="128.5"
       x="9.5316892e-09"
       y="168.49998"
       sodipodi:insensitive="true" />
    <text
       xml:space="preserve"
       transform="matrix(0.26458333,0,0,0.26458333,0,168.49998)"
       id="text16732"
       style="font-size:40px;line-height:1.25;font-family:sans-serif;letter-spacing:0px;white-space:pre;shape-inside:url(#rect16734);display:inline"><tspan
         x="-201.01953"
         y="223.37212"
         id="tspan1327"><tspan
           dx="0 30.820312 25.292969"
           id="tspan1325">DEL</tspan></tspan></text>
    <circle
       style="display:inline;fill:#1a1a1a;stroke:#000000;stroke-width:0.3408"
       id="circle574"
       cx="34.512451"
       cy="277.26474"
       r="5.8295999" />
    <circle
       style="display:inline;fill:#f9f9f9;fill-opacity:0;stroke:#000000;stroke-width:0.284"
       id="circle40"
       cx="9.2795706"
       cy="275.74152"
       r="4.8579998" />
    <text
       xml:space="preserve"
       style="font-size:10.5833px;line-height:1.25;font-family:sans-serif;letter-spacing:0px;stroke-width:0.264583"
       x="21.639137"
       y="180.68971"
       id="text12854"><tspan
         sodipodi:role="line"
         id="tspan12852"
         style="stroke-width:0.264583"
         x="21.639137"
         y="180.68971" /></text>
    <circle
       style="display:inline;fill:#f9f9f9;fill-opacity:0;stroke:#000000;stroke-width:0.284"
       id="circle1679"
       cx="-40.998997"
       cy="210.72229"
       r="4.8579998"
       transform="scale(-1,1)" />
    <path
       style="display:inline;fill:#000000;fill-opacity:1;stroke:#000000;stroke-width:0.2272"
       id="path1683"
       sodipodi:type="arc"
       sodipodi:cx="216.77951"
       sodipodi:cy="-73.516495"
       sodipodi:rx="3.8864"
       sodipodi:ry="3.8864"
       sodipodi:start="0"
       sodipodi:end="5.2359878"
       sodipodi:arc-type="slice"
       d="m 220.66591,-73.516495 a 3.8864,3.8864 0 0 1 -2.88053,3.753974 3.8864,3.8864 0 0 1 -4.37159,-1.810774 3.8864,3.8864 0 0 1 0.61762,-4.6913 3.8864,3.8864 0 0 1 4.6913,-0.617621 l -1.9432,3.365721 z"
       transform="matrix(0.5,0.8660254,0.8660254,-0.5,0,0)" />
    <path
       style="display:inline;fill:#000000;fill-opacity:1;stroke:#000000;stroke-width:0.2272"
       id="path1685"
       sodipodi:type="arc"
       sodipodi:cx="221.75639"
       sodipodi:cy="-154.60046"
       sodipodi:rx="3.8864"
       sodipodi:ry="3.8864"
       sodipodi:start="0"
       sodipodi:end="5.2359878"
       sodipodi:arc-type="slice"
       d="m 225.64279,-154.60046 a 3.8864,3.8864 0 0 1 -2.88052,3.75397 3.8864,3.8864 0 0 1 -4.3716,-1.81077 3.8864,3.8864 0 0 1 0.61762,-4.6913 3.8864,3.8864 0 0 1 4.6913,-0.61762 l -1.9432,3.36572 z"
       transform="rotate(120)" />
    <circle
       style="display:inline;fill:#f9f9f9;fill-opacity:0;stroke:#000000;stroke-width:0.284"
       id="circle1741"
       cx="6.322587"
       cy="194.35207"
       r="4.8579998" />
    <circle
       style="display:inline;fill:#f9f9f9;fill-opacity:0;stroke:#000000;stroke-width:0.284"
       id="circle973"
       cx="7.9154253"
       cy="239.80254"
       r="4.8579998" />
    <path
       style="display:inline;fill:#000000;fill-opacity:1;stroke:#000000;stroke-width:0.2272"
       id="path975"
       sodipodi:type="arc"
       sodipodi:cx="193.77841"
       sodipodi:cy="-119.55744"
       sodipodi:rx="3.8864"
       sodipodi:ry="3.8864"
       sodipodi:start="0"
       sodipodi:end="5.2359878"
       sodipodi:arc-type="slice"
       d="m 197.66481,-119.55744 a 3.8864,3.8864 0 0 1 -2.88052,3.75397 3.8864,3.8864 0 0 1 -4.3716,-1.81077 3.8864,3.8864 0 0 1 0.61762,-4.6913 3.8864,3.8864 0 0 1 4.6913,-0.61762 l -1.9432,3.36572 z"
       transform="rotate(120)" />
    <path
       style="display:inline;fill:#000000;fill-opacity:1;stroke:#000000;stroke-width:0.224;stroke-linecap:round;stroke-linejoin:round;stroke-miterlimit:4;stroke-dasharray:none;stroke-opacity:1;paint-order:stroke fill markers"
       id="path1743"
       transform="rotate(120.04771)"
       sodipodi:type="arc"
       sodipodi:arc-type="slice"
       sodipodi:start="0"
       sodipodi:end="5.2359878"
       sodipodi:ry="6"
       sodipodi:rx="6"
       sodipodi:cy="-115.08842"
       sodipodi:cx="181.6722"
       d="m 187.6722,-115.08842 a 6,6 0 0 1 -4.44709,5.79556 6,6 0 0 1 -6.74907,-2.79556 6,6 0 0 1 0.95351,-7.24264 6,6 0 0 1 7.24265,-0.95351 l -3,5.19615 z" />
    <path
       style="display:inline;fill:#000000;fill-opacity:1;stroke:#000000;stroke-width:0.401152;stroke-linecap:round;stroke-linejoin:round;stroke-miterlimit:4;stroke-dasharray:none;stroke-opacity:1;paint-order:stroke fill markers"
       id="path2605-1"
       transform="rotate(120.04771)"
       sodipodi:type="arc"
       sodipodi:arc-type="slice"
       sodipodi:start="0"
       sodipodi:end="5.2359878"
       sodipodi:ry="10.74515"
       sodipodi:rx="10.74515"
       sodipodi:cy="-147.26698"
       sodipodi:cx="207.27609"
       d="m 218.02124,-147.26698 a 10.74515,10.74515 0 0 1 -7.9641,10.37901 10.74515,10.74515 0 0 1 -12.08662,-5.00644 10.74515,10.74515 0 0 1 1.7076,-12.97054 10.74515,10.74515 0 0 1 12.97055,-1.70761 l -5.37258,9.30558 z" />
    <path
       style="display:inline;fill:#000000;fill-opacity:1;stroke:#000000;stroke-width:0.224;stroke-linecap:round;stroke-linejoin:round;stroke-miterlimit:4;stroke-dasharray:none;stroke-opacity:1;paint-order:stroke fill markers"
       id="path1677"
       transform="rotate(120.04771)"
       sodipodi:type="arc"
       sodipodi:arc-type="slice"
       sodipodi:start="0"
       sodipodi:end="5.2359878"
       sodipodi:ry="6"
       sodipodi:rx="6"
       sodipodi:cy="-135.78333"
       sodipodi:cx="182.86339"
       d="m 188.86339,-135.78333 a 6,6 0 0 1 -4.44709,5.79556 6,6 0 0 1 -6.74906,-2.79556 6,6 0 0 1 0.95351,-7.24264 6,6 0 0 1 7.24264,-0.95351 l -3,5.19615 z" />
    <text
       xml:space="preserve"
       transform="matrix(0.26458333,0,0,0.26458333,-51.424789,170.74976)"
       id="text4511"
       style="font-size:10.6667px;line-height:1.25;font-family:'Eras Light ITC';-inkscape-font-specification:'Eras Light ITC';word-spacing:0px;white-space:pre;shape-inside:url(#rect4513)"><tspan
         x="196.76172"
         y="25.574428"
         id="tspan1329">,`,`,`,`,`,`,`,`,`,`</tspan></text>
    <g
       aria-label=",`,`,`,`,`,`,`,`,`,`,`,`,`,`,`,`,`,`,`,`,`,`,`,`,`,"
       transform="matrix(0.26458333,0,0,0.26458333,-51.424789,170.74976)"
       id="text6119"
       style="font-size:10.6667px;font-family:'Eras Light ITC';-inkscape-font-specification:'Eras Light ITC';word-spacing:0px;white-space:pre">
      <path
         d="m 196.92318,26.636931 q 0.35417,-0.973961 0.54167,-1.625005 0.17708,0.0052 0.35416,0.0052 0.1823,0 0.35417,-0.0052 -0.13542,0.234376 -0.30208,0.500002 -0.16667,0.265626 -0.2448,0.406251 l -0.41145,0.718752 q -0.0886,-0.01042 -0.14584,-0.01042 -0.0625,0 -0.14583,0.01042 z"
         id="path16457" />
      <path
         d="m 201.86069,19.652534 q -0.0417,-0.01042 -0.10416,-0.01042 -0.0677,0 -0.10938,0.01042 -0.17187,-0.307292 -0.29687,-0.520835 l -0.5573,-0.932294 q 0.13021,0.0052 0.30209,0.0052 0.17187,0 0.30208,-0.0052 z"
         id="path16459" />
      <path
         d="m 204.33466,26.636931 q 0.35417,-0.973961 0.54167,-1.625005 0.17708,0.0052 0.35417,0.0052 0.18229,0 0.35416,-0.0052 -0.13541,0.234376 -0.30208,0.500002 -0.16667,0.265626 -0.24479,0.406251 l -0.41146,0.718752 q -0.0885,-0.01042 -0.14584,-0.01042 -0.0625,0 -0.14583,0.01042 z"
         id="path16461" />
      <path
         d="m 209.27218,19.652534 q -0.0417,-0.01042 -0.10417,-0.01042 -0.0677,0 -0.10938,0.01042 -0.17187,-0.307292 -0.29687,-0.520835 l -0.5573,-0.932294 q 0.13021,0.0052 0.30209,0.0052 0.17187,0 0.30208,-0.0052 z"
         id="path16463" />
      <path
         d="m 211.74614,26.636931 q 0.35417,-0.973961 0.54167,-1.625005 0.17708,0.0052 0.35417,0.0052 0.18229,0 0.35417,-0.0052 -0.13542,0.234376 -0.30209,0.500002 -0.16667,0.265626 -0.24479,0.406251 l -0.41146,0.718752 q -0.0885,-0.01042 -0.14583,-0.01042 -0.0625,0 -0.14584,0.01042 z"
         id="path16465" />
      <path
         d="m 216.68366,19.652534 q -0.0417,-0.01042 -0.10417,-0.01042 -0.0677,0 -0.10937,0.01042 -0.17188,-0.307292 -0.29688,-0.520835 l -0.55729,-0.932294 q 0.13021,0.0052 0.30208,0.0052 0.17188,0 0.30208,-0.0052 z"
         id="path16467" />
      <path
         d="m 219.15762,26.636931 q 0.35417,-0.973961 0.54167,-1.625005 0.17709,0.0052 0.35417,0.0052 0.18229,0 0.35417,-0.0052 -0.13542,0.234376 -0.30209,0.500002 -0.16666,0.265626 -0.24479,0.406251 l -0.41146,0.718752 q -0.0885,-0.01042 -0.14583,-0.01042 -0.0625,0 -0.14584,0.01042 z"
         id="path16469" />
      <path
         d="m 224.09514,19.652534 q -0.0417,-0.01042 -0.10417,-0.01042 -0.0677,0 -0.10937,0.01042 -0.17188,-0.307292 -0.29688,-0.520835 l -0.55729,-0.932294 q 0.1302,0.0052 0.30208,0.0052 0.17188,0 0.30208,-0.0052 z"
         id="path16471" />
      <path
         d="m 226.56911,26.636931 q 0.35416,-0.973961 0.54166,-1.625005 0.17709,0.0052 0.35417,0.0052 0.18229,0 0.35417,-0.0052 -0.13542,0.234376 -0.30209,0.500002 -0.16666,0.265626 -0.24479,0.406251 l -0.41146,0.718752 q -0.0885,-0.01042 -0.14583,-0.01042 -0.0625,0 -0.14583,0.01042 z"
         id="path16473" />
      <path
         d="m 231.50662,19.652534 q -0.0417,-0.01042 -0.10417,-0.01042 -0.0677,0 -0.10937,0.01042 -0.17188,-0.307292 -0.29688,-0.520835 l -0.55729,-0.932294 q 0.13021,0.0052 0.30208,0.0052 0.17188,0 0.30209,-0.0052 z"
         id="path16475" />
      <path
         d="m 233.98059,26.636931 q 0.35417,-0.973961 0.54167,-1.625005 0.17708,0.0052 0.35416,0.0052 0.1823,0 0.35417,-0.0052 -0.13541,0.234376 -0.30208,0.500002 -0.16667,0.265626 -0.24479,0.406251 l -0.41146,0.718752 q -0.0885,-0.01042 -0.14584,-0.01042 -0.0625,0 -0.14583,0.01042 z"
         id="path16477" />
      <path
         d="m 238.9181,19.652534 q -0.0417,-0.01042 -0.10417,-0.01042 -0.0677,0 -0.10937,0.01042 -0.17188,-0.307292 -0.29688,-0.520835 l -0.55729,-0.932294 q 0.13021,0.0052 0.30208,0.0052 0.17188,0 0.30209,-0.0052 z"
         id="path16479" />
      <path
         d="m 241.39207,26.636931 q 0.35417,-0.973961 0.54167,-1.625005 0.17708,0.0052 0.35416,0.0052 0.1823,0 0.35417,-0.0052 -0.13541,0.234376 -0.30208,0.500002 -0.16667,0.265626 -0.24479,0.406251 l -0.41146,0.718752 q -0.0885,-0.01042 -0.14584,-0.01042 -0.0625,0 -0.14583,0.01042 z"
         id="path16481" />
      <path
         d="m 246.32959,19.652534 q -0.0417,-0.01042 -0.10417,-0.01042 -0.0677,0 -0.10938,0.01042 -0.17187,-0.307292 -0.29687,-0.520835 l -0.5573,-0.932294 q 0.13021,0.0052 0.30209,0.0052 0.17187,0 0.30208,-0.0052 z"
         id="path16483" />
      <path
         d="m 248.80355,26.636931 q 0.35417,-0.973961 0.54167,-1.625005 0.17708,0.0052 0.35416,0.0052 0.1823,0 0.35417,-0.0052 -0.13541,0.234376 -0.30208,0.500002 -0.16667,0.265626 -0.24479,0.406251 l -0.41146,0.718752 q -0.0885,-0.01042 -0.14584,-0.01042 -0.0625,0 -0.14583,0.01042 z"
         id="path16485" />
      <path
         d="m 253.74107,19.652534 q -0.0417,-0.01042 -0.10417,-0.01042 -0.0677,0 -0.10938,0.01042 -0.17187,-0.307292 -0.29687,-0.520835 l -0.5573,-0.932294 q 0.13021,0.0052 0.30209,0.0052 0.17187,0 0.30208,-0.0052 z"
         id="path16487" />
      <path
         d="m 256.21503,26.636931 q 0.35417,-0.973961 0.54167,-1.625005 0.17708,0.0052 0.35417,0.0052 0.18229,0 0.35417,-0.0052 -0.13542,0.234376 -0.30209,0.500002 -0.16667,0.265626 -0.24479,0.406251 l -0.41146,0.718752 q -0.0885,-0.01042 -0.14583,-0.01042 -0.0625,0 -0.14584,0.01042 z"
         id="path16489" />
      <path
         d="m 261.15255,19.652534 q -0.0417,-0.01042 -0.10417,-0.01042 -0.0677,0 -0.10937,0.01042 -0.17188,-0.307292 -0.29688,-0.520835 l -0.55729,-0.932294 q 0.13021,0.0052 0.30208,0.0052 0.17188,0 0.30209,-0.0052 z"
         id="path16491" />
      <path
         d="m 263.62652,26.636931 q 0.35416,-0.973961 0.54166,-1.625005 0.17709,0.0052 0.35417,0.0052 0.18229,0 0.35417,-0.0052 -0.13542,0.234376 -0.30208,0.500002 -0.16667,0.265626 -0.2448,0.406251 l -0.41146,0.718752 q -0.0885,-0.01042 -0.14583,-0.01042 -0.0625,0 -0.14583,0.01042 z"
         id="path16493" />
      <path
         d="m 268.56403,19.652534 q -0.0417,-0.01042 -0.10416,-0.01042 -0.0677,0 -0.10938,0.01042 -0.17188,-0.307292 -0.29688,-0.520835 l -0.55729,-0.932294 q 0.13021,0.0052 0.30209,0.0052 0.17187,0 0.30208,-0.0052 z"
         id="path16495" />
      <path
         d="m 271.038,26.636931 q 0.35417,-0.973961 0.54167,-1.625005 0.17708,0.0052 0.35417,0.0052 0.18229,0 0.35416,-0.0052 -0.13541,0.234376 -0.30208,0.500002 -0.16667,0.265626 -0.24479,0.406251 l -0.41146,0.718752 q -0.0885,-0.01042 -0.14584,-0.01042 -0.0625,0 -0.14583,0.01042 z"
         id="path16497" />
      <path
         d="m 275.97551,19.652534 q -0.0417,-0.01042 -0.10417,-0.01042 -0.0677,0 -0.10937,0.01042 -0.17188,-0.307292 -0.29688,-0.520835 l -0.55729,-0.932294 q 0.13021,0.0052 0.30208,0.0052 0.17188,0 0.30209,-0.0052 z"
         id="path16499" />
      <path
         d="m 278.44948,26.636931 q 0.35416,-0.973961 0.54166,-1.625005 0.17709,0.0052 0.35417,0.0052 0.18229,0 0.35417,-0.0052 -0.13542,0.234376 -0.30208,0.500002 -0.16667,0.265626 -0.2448,0.406251 l -0.41146,0.718752 q -0.0885,-0.01042 -0.14583,-0.01042 -0.0625,0 -0.14583,0.01042 z"
         id="path16501" />
      <path
         d="m 283.38699,19.652534 q -0.0417,-0.01042 -0.10416,-0.01042 -0.0677,0 -0.10938,0.01042 -0.17188,-0.307292 -0.29688,-0.520835 l -0.55729,-0.932294 q 0.13021,0.0052 0.30209,0.0052 0.17187,0 0.30208,-0.0052 z"
         id="path16503" />
      <path
         d="m 285.86096,26.636931 q 0.35417,-0.973961 0.54167,-1.625005 0.17708,0.0052 0.35417,0.0052 0.18229,0 0.35416,-0.0052 -0.13541,0.234376 -0.30208,0.500002 -0.16667,0.265626 -0.24479,0.406251 l -0.41146,0.718752 q -0.0885,-0.01042 -0.14584,-0.01042 -0.0625,0 -0.14583,0.01042 z"
         id="path16505" />
      <path
         d="m 290.79848,19.652534 q -0.0417,-0.01042 -0.10417,-0.01042 -0.0677,0 -0.10938,0.01042 -0.17187,-0.307292 -0.29687,-0.520835 l -0.5573,-0.932294 q 0.13021,0.0052 0.30209,0.0052 0.17187,0 0.30208,-0.0052 z"
         id="path16507" />
      <path
         d="m 293.27244,26.636931 q 0.35417,-0.973961 0.54167,-1.625005 0.17709,0.0052 0.35417,0.0052 0.18229,0 0.35417,-0.0052 -0.13542,0.234376 -0.30209,0.500002 -0.16666,0.265626 -0.24479,0.406251 l -0.41146,0.718752 q -0.0885,-0.01042 -0.14583,-0.01042 -0.0625,0 -0.14584,0.01042 z"
         id="path16509" />
      <path
         d="m 298.20996,19.652534 q -0.0417,-0.01042 -0.10417,-0.01042 -0.0677,0 -0.10937,0.01042 -0.17188,-0.307292 -0.29688,-0.520835 l -0.55729,-0.932294 q 0.13021,0.0052 0.30208,0.0052 0.17188,0 0.30209,-0.0052 z"
         id="path16511" />
      <path
         d="m 300.68392,26.636931 q 0.35417,-0.973961 0.54167,-1.625005 0.17708,0.0052 0.35417,0.0052 0.18229,0 0.35416,-0.0052 -0.13541,0.234376 -0.30208,0.500002 -0.16667,0.265626 -0.24479,0.406251 l -0.41146,0.718752 q -0.0885,-0.01042 -0.14584,-0.01042 -0.0625,0 -0.14583,0.01042 z"
         id="path16513" />
      <path
         d="m 305.62144,19.652534 q -0.0417,-0.01042 -0.10417,-0.01042 -0.0677,0 -0.10938,0.01042 -0.17187,-0.307292 -0.29687,-0.520835 l -0.5573,-0.932294 q 0.13021,0.0052 0.30209,0.0052 0.17187,0 0.30208,-0.0052 z"
         id="path16515" />
      <path
         d="m 308.0954,26.636931 q 0.35417,-0.973961 0.54167,-1.625005 0.17709,0.0052 0.35417,0.0052 0.18229,0 0.35417,-0.0052 -0.13542,0.234376 -0.30209,0.500002 -0.16666,0.265626 -0.24479,0.406251 l -0.41146,0.718752 q -0.0885,-0.01042 -0.14583,-0.01042 -0.0625,0 -0.14584,0.01042 z"
         id="path16517" />
      <path
         d="m 313.03292,19.652534 q -0.0417,-0.01042 -0.10417,-0.01042 -0.0677,0 -0.10937,0.01042 -0.17188,-0.307292 -0.29688,-0.520835 l -0.55729,-0.932294 q 0.13021,0.0052 0.30208,0.0052 0.17188,0 0.30209,-0.0052 z"
         id="path16519" />
      <path
         d="m 315.50689,26.636931 q 0.35417,-0.973961 0.54167,-1.625005 0.17708,0.0052 0.35416,0.0052 0.1823,0 0.35417,-0.0052 -0.13542,0.234376 -0.30208,0.500002 -0.16667,0.265626 -0.2448,0.406251 l -0.41146,0.718752 q -0.0885,-0.01042 -0.14583,-0.01042 -0.0625,0 -0.14583,0.01042 z"
         id="path16521" />
      <path
         d="m 320.4444,19.652534 q -0.0417,-0.01042 -0.10416,-0.01042 -0.0677,0 -0.10938,0.01042 -0.17187,-0.307292 -0.29687,-0.520835 l -0.5573,-0.932294 q 0.13021,0.0052 0.30209,0.0052 0.17187,0 0.30208,-0.0052 z"
         id="path16523" />
      <path
         d="m 322.91837,26.636931 q 0.35417,-0.973961 0.54167,-1.625005 0.17708,0.0052 0.35417,0.0052 0.18229,0 0.35417,-0.0052 -0.13542,0.234376 -0.30209,0.500002 -0.16667,0.265626 -0.24479,0.406251 l -0.41146,0.718752 q -0.0885,-0.01042 -0.14584,-0.01042 -0.0625,0 -0.14583,0.01042 z"
         id="path16525" />
      <path
         d="m 327.85588,19.652534 q -0.0417,-0.01042 -0.10417,-0.01042 -0.0677,0 -0.10937,0.01042 -0.17188,-0.307292 -0.29688,-0.520835 l -0.55729,-0.932294 q 0.13021,0.0052 0.30208,0.0052 0.17188,0 0.30209,-0.0052 z"
         id="path16527" />
      <path
         d="m 330.32985,26.636931 q 0.35417,-0.973961 0.54167,-1.625005 0.17709,0.0052 0.35417,0.0052 0.18229,0 0.35417,-0.0052 -0.13542,0.234376 -0.30209,0.500002 -0.16666,0.265626 -0.24479,0.406251 l -0.41146,0.718752 q -0.0885,-0.01042 -0.14583,-0.01042 -0.0625,0 -0.14584,0.01042 z"
         id="path16529" />
      <path
         d="m 335.26736,19.652534 q -0.0417,-0.01042 -0.10416,-0.01042 -0.0677,0 -0.10938,0.01042 -0.17187,-0.307292 -0.29687,-0.520835 l -0.5573,-0.932294 q 0.13021,0.0052 0.30209,0.0052 0.17187,0 0.30208,-0.0052 z"
         id="path16531" />
      <path
         d="m 337.74134,26.636931 q 0.35417,-0.973961 0.54167,-1.625005 0.17708,0.0052 0.35416,0.0052 0.1823,0 0.35417,-0.0052 -0.13541,0.234376 -0.30208,0.500002 -0.16667,0.265626 -0.24479,0.406251 l -0.41146,0.718752 q -0.0885,-0.01042 -0.14584,-0.01042 -0.0625,0 -0.14583,0.01042 z"
         id="path16533" />
      <path
         d="m 342.67885,19.652534 q -0.0417,-0.01042 -0.10417,-0.01042 -0.0677,0 -0.10937,0.01042 -0.17188,-0.307292 -0.29688,-0.520835 l -0.55729,-0.932294 q 0.1302,0.0052 0.30208,0.0052 0.17188,0 0.30208,-0.0052 z"
         id="path16535" />
      <path
         d="m 345.15282,26.636931 q 0.35417,-0.973961 0.54167,-1.625005 0.17708,0.0052 0.35417,0.0052 0.18229,0 0.35417,-0.0052 -0.13542,0.234376 -0.30209,0.500002 -0.16667,0.265626 -0.24479,0.406251 l -0.41146,0.718752 q -0.0885,-0.01042 -0.14583,-0.01042 -0.0625,0 -0.14584,0.01042 z"
         id="path16537" />
      <path
         d="m 350.09033,19.652534 q -0.0417,-0.01042 -0.10417,-0.01042 -0.0677,0 -0.10937,0.01042 -0.17188,-0.307292 -0.29688,-0.520835 l -0.55729,-0.932294 q 0.13021,0.0052 0.30208,0.0052 0.17188,0 0.30209,-0.0052 z"
         id="path16539" />
      <path
         d="m 352.56429,26.636931 q 0.35417,-0.973961 0.54167,-1.625005 0.17708,0.0052 0.35417,0.0052 0.18229,0 0.35416,-0.0052 -0.13541,0.234376 -0.30208,0.500002 -0.16667,0.265626 -0.24479,0.406251 l -0.41146,0.718752 q -0.0885,-0.01042 -0.14584,-0.01042 -0.0625,0 -0.14583,0.01042 z"
         id="path16541" />
      <path
         d="m 357.50182,19.652534 q -0.0417,-0.01042 -0.10417,-0.01042 -0.0677,0 -0.10938,0.01042 -0.17187,-0.307292 -0.29687,-0.520835 l -0.5573,-0.932294 q 0.13021,0.0052 0.30209,0.0052 0.17187,0 0.30208,-0.0052 z"
         id="path16543" />
      <path
         d="m 359.97577,26.636931 q 0.35417,-0.973961 0.54167,-1.625005 0.17709,0.0052 0.35417,0.0052 0.18229,0 0.35417,-0.0052 -0.13542,0.234376 -0.30209,0.500002 -0.16666,0.265626 -0.24479,0.406251 l -0.41146,0.718752 q -0.0885,-0.01042 -0.14583,-0.01042 -0.0625,0 -0.14584,0.01042 z"
         id="path16545" />
      <path
         d="m 364.9133,19.652534 q -0.0417,-0.01042 -0.10417,-0.01042 -0.0677,0 -0.10937,0.01042 -0.17188,-0.307292 -0.29688,-0.520835 l -0.55729,-0.932294 q 0.13021,0.0052 0.30208,0.0052 0.17188,0 0.30209,-0.0052 z"
         id="path16547" />
      <path
         d="m 367.38726,26.636931 q 0.35417,-0.973961 0.54167,-1.625005 0.17708,0.0052 0.35416,0.0052 0.1823,0 0.35417,-0.0052 -0.13541,0.234376 -0.30208,0.500002 -0.16667,0.265626 -0.24479,0.406251 l -0.41146,0.718752 q -0.0885,-0.01042 -0.14584,-0.01042 -0.0625,0 -0.14583,0.01042 z"
         id="path16549" />
      <path
         d="m 372.32478,19.652534 q -0.0417,-0.01042 -0.10416,-0.01042 -0.0677,0 -0.10938,0.01042 -0.17188,-0.307292 -0.29688,-0.520835 l -0.55729,-0.932294 q 0.13021,0.0052 0.30209,0.0052 0.17187,0 0.30208,-0.0052 z"
         id="path16551" />
      <path
         d="m 374.79874,26.636931 q 0.35417,-0.973961 0.54167,-1.625005 0.17708,0.0052 0.35417,0.0052 0.18229,0 0.35417,-0.0052 -0.13542,0.234376 -0.30209,0.500002 -0.16667,0.265626 -0.24479,0.406251 l -0.41146,0.718752 q -0.0885,-0.01042 -0.14583,-0.01042 -0.0625,0 -0.14584,0.01042 z"
         id="path16553" />
      <path
         d="m 379.73625,19.652534 q -0.0417,-0.01042 -0.10417,-0.01042 -0.0677,0 -0.10937,0.01042 -0.17188,-0.307292 -0.29688,-0.520835 l -0.55729,-0.932294 q 0.13021,0.0052 0.30208,0.0052 0.17188,0 0.30209,-0.0052 z"
         id="path16555" />
      <path
         d="m 382.21023,26.636931 q 0.35416,-0.973961 0.54166,-1.625005 0.17709,0.0052 0.35417,0.0052 0.18229,0 0.35417,-0.0052 -0.13542,0.234376 -0.30208,0.500002 -0.16667,0.265626 -0.2448,0.406251 l -0.41146,0.718752 q -0.0885,-0.01042 -0.14583,-0.01042 -0.0625,0 -0.14583,0.01042 z"
         id="path16557" />
    </g>
    <g
       aria-label=",`,`,`,`,`,`,`,`,`,`,`,`,`,`,`,`,`,`,`,`,`,`,`,`,`,"
       transform="matrix(-0.26458333,0,0,-0.26458333,49.992563,173.61711)"
       id="text11747"
       style="font-size:10.6667px;font-family:'Eras Light ITC';-inkscape-font-specification:'Eras Light ITC';word-spacing:0px;white-space:pre">
      <path
         d="m 0.16145884,1.0625034 q 0.35416779,-0.97396145 0.54166838,-1.62500518 0.17708389,0.005208 0.35416778,0.005208 0.1822922,0 0.3541678,-0.005208 Q 1.2760457,-0.32812604 1.1093785,-0.0625002 0.94271131,0.20312564 0.86458606,0.34375109 L 0.45312643,1.0625034 q -0.0885419,-0.010417 -0.14583379,-0.010417 -0.0625002,0 -0.1458338,0.010417 z"
         id="path16662" />
      <path
         d="m 5.0989746,-5.9218937 q -0.041667,-0.010417 -0.104167,-0.010417 -0.067709,0 -0.1093754,0.010417 -0.1718755,-0.3072926 -0.2968759,-0.520835 L 4.0312628,-7.3750233 q 0.1302088,0.00521 0.3020843,0.00521 0.1718756,0 0.3020843,-0.00521 z"
         id="path16664" />
      <path
         d="m 7.5729407,1.0625034 q 0.3541678,-0.97396145 0.5416684,-1.62500518 0.1770839,0.005208 0.3541678,0.005208 0.1822922,0 0.3541677,-0.005208 Q 8.6875276,-0.32812604 8.5208604,-0.0625002 8.3541932,0.20312564 8.2760679,0.34375109 L 7.8646083,1.0625034 q -0.088542,-0.010417 -0.1458338,-0.010417 -0.0625,0 -0.1458338,0.010417 z"
         id="path16666" />
      <path
         d="m 12.510456,-5.9218937 q -0.04167,-0.010417 -0.104167,-0.010417 -0.06771,0 -0.109375,0.010417 -0.171875,-0.3072926 -0.296876,-0.520835 l -0.557293,-0.9322946 q 0.130208,0.00521 0.302084,0.00521 0.171876,0 0.302084,-0.00521 z"
         id="path16668" />
      <path
         d="m 14.984423,1.0625034 q 0.354167,-0.97396145 0.541668,-1.62500518 0.177084,0.005208 0.354168,0.005208 0.182292,0 0.354168,-0.005208 -0.135418,0.23437574 -0.302085,0.50000158 -0.166667,0.26562584 -0.244792,0.40625129 L 15.27609,1.0625034 q -0.08854,-0.010417 -0.145834,-0.010417 -0.0625,0 -0.145833,0.010417 z"
         id="path16670" />
      <path
         d="m 19.921939,-5.9218937 q -0.04167,-0.010417 -0.104167,-0.010417 -0.06771,0 -0.109375,0.010417 -0.171876,-0.3072926 -0.296876,-0.520835 l -0.557293,-0.9322946 q 0.130208,0.00521 0.302084,0.00521 0.171875,0 0.302084,-0.00521 z"
         id="path16672" />
      <path
         d="m 22.395904,1.0625034 q 0.354168,-0.97396145 0.541669,-1.62500518 0.177084,0.005208 0.354168,0.005208 0.182292,0 0.354167,-0.005208 -0.135417,0.23437574 -0.302084,0.50000158 -0.166667,0.26562584 -0.244792,0.40625129 l -0.41146,0.71875231 q -0.08854,-0.010417 -0.145834,-0.010417 -0.0625,0 -0.145834,0.010417 z"
         id="path16674" />
      <path
         d="m 27.333419,-5.9218937 q -0.04167,-0.010417 -0.104167,-0.010417 -0.06771,0 -0.109375,0.010417 -0.171876,-0.3072926 -0.296876,-0.520835 l -0.557294,-0.9322946 q 0.130209,0.00521 0.302085,0.00521 0.171875,0 0.302084,-0.00521 z"
         id="path16676" />
      <path
         d="m 29.807386,1.0625034 q 0.354168,-0.97396145 0.541669,-1.62500518 0.177084,0.005208 0.354167,0.005208 0.182293,0 0.354168,-0.005208 -0.135417,0.23437574 -0.302084,0.50000158 -0.166667,0.26562584 -0.244793,0.40625129 L 30.099054,1.0625034 q -0.08854,-0.010417 -0.145834,-0.010417 -0.0625,0 -0.145834,0.010417 z"
         id="path16678" />
      <path
         d="m 34.744903,-5.9218937 q -0.04167,-0.010417 -0.104167,-0.010417 -0.06771,0 -0.109375,0.010417 -0.171876,-0.3072926 -0.296876,-0.520835 l -0.557294,-0.9322946 q 0.130209,0.00521 0.302085,0.00521 0.171875,0 0.302084,-0.00521 z"
         id="path16680" />
      <path
         d="m 37.21887,1.0625034 q 0.354168,-0.97396145 0.541668,-1.62500518 0.177084,0.005208 0.354168,0.005208 0.182292,0 0.354168,-0.005208 -0.135417,0.23437574 -0.302084,0.50000158 -0.166667,0.26562584 -0.244793,0.40625129 L 37.510538,1.0625034 q -0.08854,-0.010417 -0.145834,-0.010417 -0.0625,0 -0.145834,0.010417 z"
         id="path16682" />
      <path
         d="m 42.156383,-5.9218937 q -0.04167,-0.010417 -0.104167,-0.010417 -0.06771,0 -0.109375,0.010417 -0.171876,-0.3072926 -0.296876,-0.520835 l -0.557294,-0.9322946 q 0.130209,0.00521 0.302084,0.00521 0.171876,0 0.302085,-0.00521 z"
         id="path16684" />
      <path
         d="m 44.63035,1.0625034 q 0.354168,-0.97396145 0.541668,-1.62500518 0.177084,0.005208 0.354168,0.005208 0.182292,0 0.354168,-0.005208 -0.135417,0.23437574 -0.302084,0.50000158 -0.166668,0.26562584 -0.244793,0.40625129 L 44.922018,1.0625034 q -0.08854,-0.010417 -0.145834,-0.010417 -0.0625,0 -0.145834,0.010417 z"
         id="path16686" />
      <path
         d="m 49.567867,-5.9218937 q -0.04167,-0.010417 -0.104167,-0.010417 -0.06771,0 -0.109376,0.010417 -0.171875,-0.3072926 -0.296876,-0.520835 l -0.557293,-0.9322946 q 0.130209,0.00521 0.302084,0.00521 0.171876,0 0.302085,-0.00521 z"
         id="path16688" />
      <path
         d="m 52.04183,1.0625034 q 0.354168,-0.97396145 0.541668,-1.62500518 0.177084,0.005208 0.354168,0.005208 0.182292,0 0.354168,-0.005208 -0.135417,0.23437574 -0.302084,0.50000158 -0.166668,0.26562584 -0.244793,0.40625129 L 52.333498,1.0625034 q -0.08854,-0.010417 -0.145834,-0.010417 -0.0625,0 -0.145834,0.010417 z"
         id="path16690" />
      <path
         d="m 56.979347,-5.9218937 q -0.04167,-0.010417 -0.104167,-0.010417 -0.06771,0 -0.109376,0.010417 -0.171875,-0.3072926 -0.296876,-0.520835 l -0.557293,-0.9322946 q 0.130209,0.00521 0.302084,0.00521 0.171876,0 0.302084,-0.00521 z"
         id="path16692" />
      <path
         d="m 59.453314,1.0625034 q 0.354167,-0.97396145 0.541668,-1.62500518 0.177084,0.005208 0.354168,0.005208 0.182292,0 0.354168,-0.005208 -0.135417,0.23437574 -0.302085,0.50000158 -0.166667,0.26562584 -0.244792,0.40625129 l -0.41146,0.71875231 q -0.08854,-0.010417 -0.145834,-0.010417 -0.0625,0 -0.145833,0.010417 z"
         id="path16694" />
      <path
         d="m 64.39083,-5.9218937 q -0.04167,-0.010417 -0.104167,-0.010417 -0.06771,0 -0.109375,0.010417 -0.171876,-0.3072926 -0.296876,-0.520835 l -0.557293,-0.9322946 q 0.130208,0.00521 0.302084,0.00521 0.171875,0 0.302084,-0.00521 z"
         id="path16696" />
      <path
         d="m 66.864797,1.0625034 q 0.354168,-0.97396145 0.541669,-1.62500518 0.177084,0.005208 0.354168,0.005208 0.182292,0 0.354167,-0.005208 -0.135417,0.23437574 -0.302084,0.50000158 -0.166667,0.26562584 -0.244792,0.40625129 l -0.41146,0.71875231 q -0.08854,-0.010417 -0.145834,-0.010417 -0.0625,0 -0.145834,0.010417 z"
         id="path16698" />
      <path
         d="m 71.802314,-5.9218937 q -0.04167,-0.010417 -0.104167,-0.010417 -0.06771,0 -0.109375,0.010417 -0.171876,-0.3072926 -0.296876,-0.520835 l -0.557294,-0.9322946 q 0.130209,0.00521 0.302085,0.00521 0.171875,0 0.302084,-0.00521 z"
         id="path16700" />
      <path
         d="m 74.276281,1.0625034 q 0.354168,-0.97396145 0.541669,-1.62500518 0.177084,0.005208 0.354167,0.005208 0.182293,0 0.354168,-0.005208 -0.135417,0.23437574 -0.302084,0.50000158 -0.166667,0.26562584 -0.244793,0.40625129 L 74.567949,1.0625034 q -0.08854,-0.010417 -0.145834,-0.010417 -0.0625,0 -0.145834,0.010417 z"
         id="path16702" />
      <path
         d="m 79.21379,-5.9218937 q -0.04167,-0.010417 -0.104167,-0.010417 -0.06771,0 -0.109375,0.010417 -0.171876,-0.3072926 -0.296876,-0.520835 l -0.557293,-0.9322946 q 0.130208,0.00521 0.302084,0.00521 0.171875,0 0.302084,-0.00521 z"
         id="path16704" />
      <path
         d="m 81.687757,1.0625034 q 0.354168,-0.97396145 0.541669,-1.62500518 0.177084,0.005208 0.354168,0.005208 0.182292,0 0.354167,-0.005208 -0.135417,0.23437574 -0.302084,0.50000158 -0.166667,0.26562584 -0.244792,0.40625129 l -0.41146,0.71875231 q -0.08854,-0.010417 -0.145834,-0.010417 -0.0625,0 -0.145834,0.010417 z"
         id="path16706" />
      <path
         d="m 86.625274,-5.9218937 q -0.04167,-0.010417 -0.104167,-0.010417 -0.06771,0 -0.109375,0.010417 -0.171876,-0.3072926 -0.296876,-0.520835 l -0.557294,-0.9322946 q 0.130209,0.00521 0.302085,0.00521 0.171875,0 0.302084,-0.00521 z"
         id="path16708" />
      <path
         d="m 89.099241,1.0625034 q 0.354168,-0.97396145 0.541669,-1.62500518 0.177083,0.005208 0.354167,0.005208 0.182293,0 0.354168,-0.005208 -0.135417,0.23437574 -0.302084,0.50000158 -0.166667,0.26562584 -0.244793,0.40625129 L 89.390909,1.0625034 q -0.08854,-0.010417 -0.145834,-0.010417 -0.0625,0 -0.145834,0.010417 z"
         id="path16710" />
      <path
         d="m 94.036758,-5.9218937 q -0.04167,-0.010417 -0.104167,-0.010417 -0.06771,0 -0.109376,0.010417 -0.171875,-0.3072926 -0.296875,-0.520835 l -0.557294,-0.9322946 q 0.130209,0.00521 0.302084,0.00521 0.171876,0 0.302085,-0.00521 z"
         id="path16712" />
      <path
         d="m 96.510725,1.0625034 q 0.354168,-0.97396145 0.541668,-1.62500518 0.177084,0.005208 0.354168,0.005208 0.182292,0 0.354168,-0.005208 -0.135417,0.23437574 -0.302084,0.50000158 -0.166668,0.26562584 -0.244793,0.40625129 l -0.41146,0.71875231 q -0.08854,-0.010417 -0.145833,-0.010417 -0.0625,0 -0.145834,0.010417 z"
         id="path16714" />
      <path
         d="m 101.44824,-5.9218937 q -0.0417,-0.010417 -0.10417,-0.010417 -0.0677,0 -0.10937,0.010417 -0.17188,-0.3072926 -0.29688,-0.520835 l -0.55729,-0.9322946 q 0.13021,0.00521 0.30208,0.00521 0.17188,0 0.30209,-0.00521 z"
         id="path16716" />
      <path
         d="m 103.9222,1.0625034 q 0.35417,-0.97396145 0.54167,-1.62500518 0.17708,0.005208 0.35417,0.005208 0.18229,0 0.35416,-0.005208 -0.13541,0.23437574 -0.30208,0.50000158 -0.16667,0.26562584 -0.24479,0.40625129 l -0.41146,0.71875231 q -0.0885,-0.010417 -0.14584,-0.010417 -0.0625,0 -0.14583,0.010417 z"
         id="path16718" />
      <path
         d="m 108.85972,-5.9218937 q -0.0417,-0.010417 -0.10417,-0.010417 -0.0677,0 -0.10937,0.010417 -0.17188,-0.3072926 -0.29688,-0.520835 l -0.55729,-0.9322946 q 0.1302,0.00521 0.30208,0.00521 0.17188,0 0.30208,-0.00521 z"
         id="path16720" />
      <path
         d="m 111.33368,1.0625034 q 0.35417,-0.97396145 0.54167,-1.62500518 0.17709,0.005208 0.35417,0.005208 0.18229,0 0.35417,-0.005208 -0.13542,0.23437574 -0.30209,0.50000158 -0.16666,0.26562584 -0.24479,0.40625129 l -0.41146,0.71875231 q -0.0885,-0.010417 -0.14583,-0.010417 -0.0625,0 -0.14584,0.010417 z"
         id="path16722" />
      <path
         d="m 116.2712,-5.9218937 q -0.0417,-0.010417 -0.10417,-0.010417 -0.0677,0 -0.10937,0.010417 -0.17188,-0.3072926 -0.29688,-0.520835 l -0.55729,-0.9322946 q 0.13021,0.00521 0.30208,0.00521 0.17188,0 0.30209,-0.00521 z"
         id="path16724" />
      <path
         d="m 118.74517,1.0625034 q 0.35417,-0.97396145 0.54167,-1.62500518 0.17708,0.005208 0.35416,0.005208 0.1823,0 0.35417,-0.005208 -0.13541,0.23437574 -0.30208,0.50000158 -0.16667,0.26562584 -0.24479,0.40625129 l -0.41146,0.71875231 q -0.0885,-0.010417 -0.14584,-0.010417 -0.0625,0 -0.14583,0.010417 z"
         id="path16726" />
      <path
         d="m 123.68269,-5.9218937 q -0.0417,-0.010417 -0.10417,-0.010417 -0.0677,0 -0.10938,0.010417 -0.17187,-0.3072926 -0.29687,-0.520835 l -0.5573,-0.9322946 q 0.13021,0.00521 0.30209,0.00521 0.17187,0 0.30208,-0.00521 z"
         id="path16728" />
      <path
         d="m 126.15665,1.0625034 q 0.35417,-0.97396145 0.54167,-1.62500518 0.17708,0.005208 0.35417,0.005208 0.18229,0 0.35417,-0.005208 -0.13542,0.23437574 -0.30209,0.50000158 -0.16667,0.26562584 -0.24479,0.40625129 l -0.41146,0.71875231 q -0.0885,-0.010417 -0.14583,-0.010417 -0.0625,0 -0.14584,0.010417 z"
         id="path16730" />
      <path
         d="m 131.09416,-5.9218937 q -0.0417,-0.010417 -0.10417,-0.010417 -0.0677,0 -0.10937,0.010417 -0.17188,-0.3072926 -0.29688,-0.520835 l -0.55729,-0.9322946 q 0.13021,0.00521 0.30208,0.00521 0.17188,0 0.30209,-0.00521 z"
         id="path16732" />
      <path
         d="m 133.56814,1.0625034 q 0.35416,-0.97396145 0.54166,-1.62500518 0.17709,0.005208 0.35417,0.005208 0.18229,0 0.35417,-0.005208 -0.13542,0.23437574 -0.30208,0.50000158 -0.16667,0.26562584 -0.2448,0.40625129 L 133.8598,1.0625034 q -0.0885,-0.010417 -0.14583,-0.010417 -0.0625,0 -0.14583,0.010417 z"
         id="path16734" />
      <path
         d="m 138.50565,-5.9218937 q -0.0417,-0.010417 -0.10417,-0.010417 -0.0677,0 -0.10938,0.010417 -0.17187,-0.3072926 -0.29687,-0.520835 l -0.5573,-0.9322946 q 0.13021,0.00521 0.30209,0.00521 0.17187,0 0.30208,-0.00521 z"
         id="path16736" />
      <path
         d="m 140.97962,1.0625034 q 0.35417,-0.97396145 0.54167,-1.62500518 0.17708,0.005208 0.35417,0.005208 0.18229,0 0.35416,-0.005208 -0.13541,0.23437574 -0.30208,0.50000158 -0.16667,0.26562584 -0.24479,0.40625129 l -0.41146,0.71875231 q -0.0885,-0.010417 -0.14584,-0.010417 -0.0625,0 -0.14583,0.010417 z"
         id="path16738" />
      <path
         d="m 145.91713,-5.9218937 q -0.0417,-0.010417 -0.10417,-0.010417 -0.0677,0 -0.10937,0.010417 -0.17188,-0.3072926 -0.29688,-0.520835 l -0.55729,-0.9322946 q 0.13021,0.00521 0.30208,0.00521 0.17188,0 0.30209,-0.00521 z"
         id="path16740" />
      <path
         d="m 148.3911,1.0625034 q 0.35417,-0.97396145 0.54167,-1.62500518 0.17709,0.005208 0.35417,0.005208 0.18229,0 0.35417,-0.005208 -0.13542,0.23437574 -0.30209,0.50000158 -0.16666,0.26562584 -0.24479,0.40625129 l -0.41146,0.71875231 q -0.0885,-0.010417 -0.14583,-0.010417 -0.0625,0 -0.14584,0.010417 z"
         id="path16742" />
      <path
         d="m 153.32861,-5.9218937 q -0.0417,-0.010417 -0.10416,-0.010417 -0.0677,0 -0.10938,0.010417 -0.17188,-0.3072926 -0.29688,-0.520835 l -0.55729,-0.9322946 q 0.13021,0.00521 0.30209,0.00521 0.17187,0 0.30208,-0.00521 z"
         id="path16744" />
      <path
         d="m 155.80257,1.0625034 q 0.35417,-0.97396145 0.54167,-1.62500518 0.17708,0.005208 0.35417,0.005208 0.18229,0 0.35417,-0.005208 -0.13542,0.23437574 -0.30209,0.50000158 -0.16667,0.26562584 -0.24479,0.40625129 l -0.41146,0.71875231 q -0.0885,-0.010417 -0.14583,-0.010417 -0.0625,0 -0.14584,0.010417 z"
         id="path16746" />
      <path
         d="m 160.7401,-5.9218937 q -0.0417,-0.010417 -0.10417,-0.010417 -0.0677,0 -0.10938,0.010417 -0.17187,-0.3072926 -0.29687,-0.520835 l -0.5573,-0.9322946 q 0.13021,0.00521 0.30209,0.00521 0.17187,0 0.30208,-0.00521 z"
         id="path16748" />
      <path
         d="m 163.21406,1.0625034 q 0.35416,-0.97396145 0.54166,-1.62500518 0.17709,0.005208 0.35417,0.005208 0.18229,0 0.35417,-0.005208 -0.13542,0.23437574 -0.30208,0.50000158 -0.16667,0.26562584 -0.2448,0.40625129 l -0.41146,0.71875231 q -0.0885,-0.010417 -0.14583,-0.010417 -0.0625,0 -0.14583,0.010417 z"
         id="path16750" />
      <path
         d="m 168.15158,-5.9218937 q -0.0417,-0.010417 -0.10417,-0.010417 -0.0677,0 -0.10937,0.010417 -0.17188,-0.3072926 -0.29688,-0.520835 l -0.55729,-0.9322946 q 0.13021,0.00521 0.30208,0.00521 0.17188,0 0.30209,-0.00521 z"
         id="path16752" />
      <path
         d="m 170.62554,1.0625034 q 0.35417,-0.97396145 0.54167,-1.62500518 0.17708,0.005208 0.35417,0.005208 0.18229,0 0.35416,-0.005208 -0.13541,0.23437574 -0.30208,0.50000158 -0.16667,0.26562584 -0.24479,0.40625129 l -0.41146,0.71875231 q -0.0885,-0.010417 -0.14584,-0.010417 -0.0625,0 -0.14583,0.010417 z"
         id="path16754" />
      <path
         d="m 175.56306,-5.9218937 q -0.0417,-0.010417 -0.10416,-0.010417 -0.0677,0 -0.10938,0.010417 -0.17187,-0.3072926 -0.29687,-0.520835 l -0.5573,-0.9322946 q 0.13021,0.00521 0.30209,0.00521 0.17187,0 0.30208,-0.00521 z"
         id="path16756" />
      <path
         d="m 178.03702,1.0625034 q 0.35417,-0.97396145 0.54167,-1.62500518 0.17709,0.005208 0.35417,0.005208 0.18229,0 0.35417,-0.005208 -0.13542,0.23437574 -0.30209,0.50000158 -0.16666,0.26562584 -0.24479,0.40625129 l -0.41146,0.71875231 q -0.0885,-0.010417 -0.14583,-0.010417 -0.0625,0 -0.14584,0.010417 z"
         id="path16758" />
      <path
         d="m 182.97453,-5.9218937 q -0.0417,-0.010417 -0.10416,-0.010417 -0.0677,0 -0.10938,0.010417 -0.17188,-0.3072926 -0.29688,-0.520835 l -0.55729,-0.9322946 q 0.13021,0.00521 0.30209,0.00521 0.17187,0 0.30208,-0.00521 z"
         id="path16760" />
      <path
         d="m 185.44851,1.0625034 q 0.35416,-0.97396145 0.54167,-1.62500518 0.17708,0.005208 0.35416,0.005208 0.1823,0 0.35417,-0.005208 -0.13542,0.23437574 -0.30208,0.50000158 -0.16667,0.26562584 -0.2448,0.40625129 l -0.41146,0.71875231 q -0.0885,-0.010417 -0.14583,-0.010417 -0.0625,0 -0.14583,0.010417 z"
         id="path16762" />
    </g>
    <g
       aria-label=",`,`,`,`,`,`,`,`,`,`,`,`,`,`,`,`,`,`,`,`,`,`,`,`,`,`,"
       transform="matrix(0.26458333,0,0,0.26458333,-51.424789,282.15879)"
       id="text11753"
       style="font-size:10.6667px;font-family:'Eras Light ITC';-inkscape-font-specification:'Eras Light ITC';word-spacing:0px;white-space:pre">
      <path
         d="m 196.92318,26.636931 q 0.35417,-0.973961 0.54167,-1.625005 0.17708,0.0052 0.35416,0.0052 0.1823,0 0.35417,-0.0052 -0.13542,0.234376 -0.30208,0.500002 -0.16667,0.265626 -0.2448,0.406251 l -0.41145,0.718752 q -0.0886,-0.01042 -0.14584,-0.01042 -0.0625,0 -0.14583,0.01042 z"
         id="path16966" />
      <path
         d="m 201.86069,19.652534 q -0.0417,-0.01042 -0.10416,-0.01042 -0.0677,0 -0.10938,0.01042 -0.17187,-0.307292 -0.29687,-0.520835 l -0.5573,-0.932294 q 0.13021,0.0052 0.30209,0.0052 0.17187,0 0.30208,-0.0052 z"
         id="path16968" />
      <path
         d="m 204.33466,26.636931 q 0.35417,-0.973961 0.54167,-1.625005 0.17708,0.0052 0.35417,0.0052 0.18229,0 0.35416,-0.0052 -0.13541,0.234376 -0.30208,0.500002 -0.16667,0.265626 -0.24479,0.406251 l -0.41146,0.718752 q -0.0885,-0.01042 -0.14584,-0.01042 -0.0625,0 -0.14583,0.01042 z"
         id="path16970" />
      <path
         d="m 209.27218,19.652534 q -0.0417,-0.01042 -0.10417,-0.01042 -0.0677,0 -0.10938,0.01042 -0.17187,-0.307292 -0.29687,-0.520835 l -0.5573,-0.932294 q 0.13021,0.0052 0.30209,0.0052 0.17187,0 0.30208,-0.0052 z"
         id="path16972" />
      <path
         d="m 211.74614,26.636931 q 0.35417,-0.973961 0.54167,-1.625005 0.17708,0.0052 0.35417,0.0052 0.18229,0 0.35417,-0.0052 -0.13542,0.234376 -0.30209,0.500002 -0.16667,0.265626 -0.24479,0.406251 l -0.41146,0.718752 q -0.0885,-0.01042 -0.14583,-0.01042 -0.0625,0 -0.14584,0.01042 z"
         id="path16974" />
      <path
         d="m 216.68366,19.652534 q -0.0417,-0.01042 -0.10417,-0.01042 -0.0677,0 -0.10937,0.01042 -0.17188,-0.307292 -0.29688,-0.520835 l -0.55729,-0.932294 q 0.13021,0.0052 0.30208,0.0052 0.17188,0 0.30208,-0.0052 z"
         id="path16976" />
      <path
         d="m 219.15762,26.636931 q 0.35417,-0.973961 0.54167,-1.625005 0.17709,0.0052 0.35417,0.0052 0.18229,0 0.35417,-0.0052 -0.13542,0.234376 -0.30209,0.500002 -0.16666,0.265626 -0.24479,0.406251 l -0.41146,0.718752 q -0.0885,-0.01042 -0.14583,-0.01042 -0.0625,0 -0.14584,0.01042 z"
         id="path16978" />
      <path
         d="m 224.09514,19.652534 q -0.0417,-0.01042 -0.10417,-0.01042 -0.0677,0 -0.10937,0.01042 -0.17188,-0.307292 -0.29688,-0.520835 l -0.55729,-0.932294 q 0.1302,0.0052 0.30208,0.0052 0.17188,0 0.30208,-0.0052 z"
         id="path16980" />
      <path
         d="m 226.56911,26.636931 q 0.35416,-0.973961 0.54166,-1.625005 0.17709,0.0052 0.35417,0.0052 0.18229,0 0.35417,-0.0052 -0.13542,0.234376 -0.30209,0.500002 -0.16666,0.265626 -0.24479,0.406251 l -0.41146,0.718752 q -0.0885,-0.01042 -0.14583,-0.01042 -0.0625,0 -0.14583,0.01042 z"
         id="path16982" />
      <path
         d="m 231.50662,19.652534 q -0.0417,-0.01042 -0.10417,-0.01042 -0.0677,0 -0.10937,0.01042 -0.17188,-0.307292 -0.29688,-0.520835 l -0.55729,-0.932294 q 0.13021,0.0052 0.30208,0.0052 0.17188,0 0.30209,-0.0052 z"
         id="path16984" />
      <path
         d="m 233.98059,26.636931 q 0.35417,-0.973961 0.54167,-1.625005 0.17708,0.0052 0.35416,0.0052 0.1823,0 0.35417,-0.0052 -0.13541,0.234376 -0.30208,0.500002 -0.16667,0.265626 -0.24479,0.406251 l -0.41146,0.718752 q -0.0885,-0.01042 -0.14584,-0.01042 -0.0625,0 -0.14583,0.01042 z"
         id="path16986" />
      <path
         d="m 238.9181,19.652534 q -0.0417,-0.01042 -0.10417,-0.01042 -0.0677,0 -0.10937,0.01042 -0.17188,-0.307292 -0.29688,-0.520835 l -0.55729,-0.932294 q 0.13021,0.0052 0.30208,0.0052 0.17188,0 0.30209,-0.0052 z"
         id="path16988" />
      <path
         d="m 241.39207,26.636931 q 0.35417,-0.973961 0.54167,-1.625005 0.17708,0.0052 0.35416,0.0052 0.1823,0 0.35417,-0.0052 -0.13541,0.234376 -0.30208,0.500002 -0.16667,0.265626 -0.24479,0.406251 l -0.41146,0.718752 q -0.0885,-0.01042 -0.14584,-0.01042 -0.0625,0 -0.14583,0.01042 z"
         id="path16990" />
      <path
         d="m 246.32959,19.652534 q -0.0417,-0.01042 -0.10417,-0.01042 -0.0677,0 -0.10938,0.01042 -0.17187,-0.307292 -0.29687,-0.520835 l -0.5573,-0.932294 q 0.13021,0.0052 0.30209,0.0052 0.17187,0 0.30208,-0.0052 z"
         id="path16992" />
      <path
         d="m 248.80355,26.636931 q 0.35417,-0.973961 0.54167,-1.625005 0.17708,0.0052 0.35416,0.0052 0.1823,0 0.35417,-0.0052 -0.13541,0.234376 -0.30208,0.500002 -0.16667,0.265626 -0.24479,0.406251 l -0.41146,0.718752 q -0.0885,-0.01042 -0.14584,-0.01042 -0.0625,0 -0.14583,0.01042 z"
         id="path16994" />
      <path
         d="m 253.74107,19.652534 q -0.0417,-0.01042 -0.10417,-0.01042 -0.0677,0 -0.10938,0.01042 -0.17187,-0.307292 -0.29687,-0.520835 l -0.5573,-0.932294 q 0.13021,0.0052 0.30209,0.0052 0.17187,0 0.30208,-0.0052 z"
         id="path16996" />
      <path
         d="m 256.21503,26.636931 q 0.35417,-0.973961 0.54167,-1.625005 0.17708,0.0052 0.35417,0.0052 0.18229,0 0.35417,-0.0052 -0.13542,0.234376 -0.30209,0.500002 -0.16667,0.265626 -0.24479,0.406251 l -0.41146,0.718752 q -0.0885,-0.01042 -0.14583,-0.01042 -0.0625,0 -0.14584,0.01042 z"
         id="path16998" />
      <path
         d="m 261.15255,19.652534 q -0.0417,-0.01042 -0.10417,-0.01042 -0.0677,0 -0.10937,0.01042 -0.17188,-0.307292 -0.29688,-0.520835 l -0.55729,-0.932294 q 0.13021,0.0052 0.30208,0.0052 0.17188,0 0.30209,-0.0052 z"
         id="path17000" />
      <path
         d="m 263.62652,26.636931 q 0.35416,-0.973961 0.54166,-1.625005 0.17709,0.0052 0.35417,0.0052 0.18229,0 0.35417,-0.0052 -0.13542,0.234376 -0.30208,0.500002 -0.16667,0.265626 -0.2448,0.406251 l -0.41146,0.718752 q -0.0885,-0.01042 -0.14583,-0.01042 -0.0625,0 -0.14583,0.01042 z"
         id="path17002" />
      <path
         d="m 268.56403,19.652534 q -0.0417,-0.01042 -0.10416,-0.01042 -0.0677,0 -0.10938,0.01042 -0.17188,-0.307292 -0.29688,-0.520835 l -0.55729,-0.932294 q 0.13021,0.0052 0.30209,0.0052 0.17187,0 0.30208,-0.0052 z"
         id="path17004" />
      <path
         d="m 271.038,26.636931 q 0.35417,-0.973961 0.54167,-1.625005 0.17708,0.0052 0.35417,0.0052 0.18229,0 0.35416,-0.0052 -0.13541,0.234376 -0.30208,0.500002 -0.16667,0.265626 -0.24479,0.406251 l -0.41146,0.718752 q -0.0885,-0.01042 -0.14584,-0.01042 -0.0625,0 -0.14583,0.01042 z"
         id="path17006" />
      <path
         d="m 275.97551,19.652534 q -0.0417,-0.01042 -0.10417,-0.01042 -0.0677,0 -0.10937,0.01042 -0.17188,-0.307292 -0.29688,-0.520835 l -0.55729,-0.932294 q 0.13021,0.0052 0.30208,0.0052 0.17188,0 0.30209,-0.0052 z"
         id="path17008" />
      <path
         d="m 278.44948,26.636931 q 0.35416,-0.973961 0.54166,-1.625005 0.17709,0.0052 0.35417,0.0052 0.18229,0 0.35417,-0.0052 -0.13542,0.234376 -0.30208,0.500002 -0.16667,0.265626 -0.2448,0.406251 l -0.41146,0.718752 q -0.0885,-0.01042 -0.14583,-0.01042 -0.0625,0 -0.14583,0.01042 z"
         id="path17010" />
      <path
         d="m 283.38699,19.652534 q -0.0417,-0.01042 -0.10416,-0.01042 -0.0677,0 -0.10938,0.01042 -0.17188,-0.307292 -0.29688,-0.520835 l -0.55729,-0.932294 q 0.13021,0.0052 0.30209,0.0052 0.17187,0 0.30208,-0.0052 z"
         id="path17012" />
      <path
         d="m 285.86096,26.636931 q 0.35417,-0.973961 0.54167,-1.625005 0.17708,0.0052 0.35417,0.0052 0.18229,0 0.35416,-0.0052 -0.13541,0.234376 -0.30208,0.500002 -0.16667,0.265626 -0.24479,0.406251 l -0.41146,0.718752 q -0.0885,-0.01042 -0.14584,-0.01042 -0.0625,0 -0.14583,0.01042 z"
         id="path17014" />
      <path
         d="m 290.79848,19.652534 q -0.0417,-0.01042 -0.10417,-0.01042 -0.0677,0 -0.10938,0.01042 -0.17187,-0.307292 -0.29687,-0.520835 l -0.5573,-0.932294 q 0.13021,0.0052 0.30209,0.0052 0.17187,0 0.30208,-0.0052 z"
         id="path17016" />
      <path
         d="m 293.27244,26.636931 q 0.35417,-0.973961 0.54167,-1.625005 0.17709,0.0052 0.35417,0.0052 0.18229,0 0.35417,-0.0052 -0.13542,0.234376 -0.30209,0.500002 -0.16666,0.265626 -0.24479,0.406251 l -0.41146,0.718752 q -0.0885,-0.01042 -0.14583,-0.01042 -0.0625,0 -0.14584,0.01042 z"
         id="path17018" />
      <path
         d="m 298.20996,19.652534 q -0.0417,-0.01042 -0.10417,-0.01042 -0.0677,0 -0.10937,0.01042 -0.17188,-0.307292 -0.29688,-0.520835 l -0.55729,-0.932294 q 0.13021,0.0052 0.30208,0.0052 0.17188,0 0.30209,-0.0052 z"
         id="path17020" />
      <path
         d="m 300.68392,26.636931 q 0.35417,-0.973961 0.54167,-1.625005 0.17708,0.0052 0.35417,0.0052 0.18229,0 0.35416,-0.0052 -0.13541,0.234376 -0.30208,0.500002 -0.16667,0.265626 -0.24479,0.406251 l -0.41146,0.718752 q -0.0885,-0.01042 -0.14584,-0.01042 -0.0625,0 -0.14583,0.01042 z"
         id="path17022" />
      <path
         d="m 305.62144,19.652534 q -0.0417,-0.01042 -0.10417,-0.01042 -0.0677,0 -0.10938,0.01042 -0.17187,-0.307292 -0.29687,-0.520835 l -0.5573,-0.932294 q 0.13021,0.0052 0.30209,0.0052 0.17187,0 0.30208,-0.0052 z"
         id="path17024" />
      <path
         d="m 308.0954,26.636931 q 0.35417,-0.973961 0.54167,-1.625005 0.17709,0.0052 0.35417,0.0052 0.18229,0 0.35417,-0.0052 -0.13542,0.234376 -0.30209,0.500002 -0.16666,0.265626 -0.24479,0.406251 l -0.41146,0.718752 q -0.0885,-0.01042 -0.14583,-0.01042 -0.0625,0 -0.14584,0.01042 z"
         id="path17026" />
      <path
         d="m 313.03292,19.652534 q -0.0417,-0.01042 -0.10417,-0.01042 -0.0677,0 -0.10937,0.01042 -0.17188,-0.307292 -0.29688,-0.520835 l -0.55729,-0.932294 q 0.13021,0.0052 0.30208,0.0052 0.17188,0 0.30209,-0.0052 z"
         id="path17028" />
      <path
         d="m 315.50689,26.636931 q 0.35417,-0.973961 0.54167,-1.625005 0.17708,0.0052 0.35416,0.0052 0.1823,0 0.35417,-0.0052 -0.13542,0.234376 -0.30208,0.500002 -0.16667,0.265626 -0.2448,0.406251 l -0.41146,0.718752 q -0.0885,-0.01042 -0.14583,-0.01042 -0.0625,0 -0.14583,0.01042 z"
         id="path17030" />
      <path
         d="m 320.4444,19.652534 q -0.0417,-0.01042 -0.10416,-0.01042 -0.0677,0 -0.10938,0.01042 -0.17187,-0.307292 -0.29687,-0.520835 l -0.5573,-0.932294 q 0.13021,0.0052 0.30209,0.0052 0.17187,0 0.30208,-0.0052 z"
         id="path17032" />
      <path
         d="m 322.91837,26.636931 q 0.35417,-0.973961 0.54167,-1.625005 0.17708,0.0052 0.35417,0.0052 0.18229,0 0.35417,-0.0052 -0.13542,0.234376 -0.30209,0.500002 -0.16667,0.265626 -0.24479,0.406251 l -0.41146,0.718752 q -0.0885,-0.01042 -0.14584,-0.01042 -0.0625,0 -0.14583,0.01042 z"
         id="path17034" />
      <path
         d="m 327.85588,19.652534 q -0.0417,-0.01042 -0.10417,-0.01042 -0.0677,0 -0.10937,0.01042 -0.17188,-0.307292 -0.29688,-0.520835 l -0.55729,-0.932294 q 0.13021,0.0052 0.30208,0.0052 0.17188,0 0.30209,-0.0052 z"
         id="path17036" />
      <path
         d="m 330.32985,26.636931 q 0.35417,-0.973961 0.54167,-1.625005 0.17709,0.0052 0.35417,0.0052 0.18229,0 0.35417,-0.0052 -0.13542,0.234376 -0.30209,0.500002 -0.16666,0.265626 -0.24479,0.406251 l -0.41146,0.718752 q -0.0885,-0.01042 -0.14583,-0.01042 -0.0625,0 -0.14584,0.01042 z"
         id="path17038" />
      <path
         d="m 335.26736,19.652534 q -0.0417,-0.01042 -0.10416,-0.01042 -0.0677,0 -0.10938,0.01042 -0.17187,-0.307292 -0.29687,-0.520835 l -0.5573,-0.932294 q 0.13021,0.0052 0.30209,0.0052 0.17187,0 0.30208,-0.0052 z"
         id="path17040" />
      <path
         d="m 337.74134,26.636931 q 0.35417,-0.973961 0.54167,-1.625005 0.17708,0.0052 0.35416,0.0052 0.1823,0 0.35417,-0.0052 -0.13541,0.234376 -0.30208,0.500002 -0.16667,0.265626 -0.24479,0.406251 l -0.41146,0.718752 q -0.0885,-0.01042 -0.14584,-0.01042 -0.0625,0 -0.14583,0.01042 z"
         id="path17042" />
      <path
         d="m 342.67885,19.652534 q -0.0417,-0.01042 -0.10417,-0.01042 -0.0677,0 -0.10937,0.01042 -0.17188,-0.307292 -0.29688,-0.520835 l -0.55729,-0.932294 q 0.1302,0.0052 0.30208,0.0052 0.17188,0 0.30208,-0.0052 z"
         id="path17044" />
      <path
         d="m 345.15282,26.636931 q 0.35417,-0.973961 0.54167,-1.625005 0.17708,0.0052 0.35417,0.0052 0.18229,0 0.35417,-0.0052 -0.13542,0.234376 -0.30209,0.500002 -0.16667,0.265626 -0.24479,0.406251 l -0.41146,0.718752 q -0.0885,-0.01042 -0.14583,-0.01042 -0.0625,0 -0.14584,0.01042 z"
         id="path17046" />
      <path
         d="m 350.09033,19.652534 q -0.0417,-0.01042 -0.10417,-0.01042 -0.0677,0 -0.10937,0.01042 -0.17188,-0.307292 -0.29688,-0.520835 l -0.55729,-0.932294 q 0.13021,0.0052 0.30208,0.0052 0.17188,0 0.30209,-0.0052 z"
         id="path17048" />
      <path
         d="m 352.56429,26.636931 q 0.35417,-0.973961 0.54167,-1.625005 0.17708,0.0052 0.35417,0.0052 0.18229,0 0.35416,-0.0052 -0.13541,0.234376 -0.30208,0.500002 -0.16667,0.265626 -0.24479,0.406251 l -0.41146,0.718752 q -0.0885,-0.01042 -0.14584,-0.01042 -0.0625,0 -0.14583,0.01042 z"
         id="path17050" />
      <path
         d="m 357.50182,19.652534 q -0.0417,-0.01042 -0.10417,-0.01042 -0.0677,0 -0.10938,0.01042 -0.17187,-0.307292 -0.29687,-0.520835 l -0.5573,-0.932294 q 0.13021,0.0052 0.30209,0.0052 0.17187,0 0.30208,-0.0052 z"
         id="path17052" />
      <path
         d="m 359.97577,26.636931 q 0.35417,-0.973961 0.54167,-1.625005 0.17709,0.0052 0.35417,0.0052 0.18229,0 0.35417,-0.0052 -0.13542,0.234376 -0.30209,0.500002 -0.16666,0.265626 -0.24479,0.406251 l -0.41146,0.718752 q -0.0885,-0.01042 -0.14583,-0.01042 -0.0625,0 -0.14584,0.01042 z"
         id="path17054" />
      <path
         d="m 364.9133,19.652534 q -0.0417,-0.01042 -0.10417,-0.01042 -0.0677,0 -0.10937,0.01042 -0.17188,-0.307292 -0.29688,-0.520835 l -0.55729,-0.932294 q 0.13021,0.0052 0.30208,0.0052 0.17188,0 0.30209,-0.0052 z"
         id="path17056" />
      <path
         d="m 367.38726,26.636931 q 0.35417,-0.973961 0.54167,-1.625005 0.17708,0.0052 0.35416,0.0052 0.1823,0 0.35417,-0.0052 -0.13541,0.234376 -0.30208,0.500002 -0.16667,0.265626 -0.24479,0.406251 l -0.41146,0.718752 q -0.0885,-0.01042 -0.14584,-0.01042 -0.0625,0 -0.14583,0.01042 z"
         id="path17058" />
      <path
         d="m 372.32478,19.652534 q -0.0417,-0.01042 -0.10416,-0.01042 -0.0677,0 -0.10938,0.01042 -0.17188,-0.307292 -0.29688,-0.520835 l -0.55729,-0.932294 q 0.13021,0.0052 0.30209,0.0052 0.17187,0 0.30208,-0.0052 z"
         id="path17060" />
      <path
         d="m 374.79874,26.636931 q 0.35417,-0.973961 0.54167,-1.625005 0.17708,0.0052 0.35417,0.0052 0.18229,0 0.35417,-0.0052 -0.13542,0.234376 -0.30209,0.500002 -0.16667,0.265626 -0.24479,0.406251 l -0.41146,0.718752 q -0.0885,-0.01042 -0.14583,-0.01042 -0.0625,0 -0.14584,0.01042 z"
         id="path17062" />
      <path
         d="m 379.73625,19.652534 q -0.0417,-0.01042 -0.10417,-0.01042 -0.0677,0 -0.10937,0.01042 -0.17188,-0.307292 -0.29688,-0.520835 l -0.55729,-0.932294 q 0.13021,0.0052 0.30208,0.0052 0.17188,0 0.30209,-0.0052 z"
         id="path17064" />
      <path
         d="m 382.21023,26.636931 q 0.35416,-0.973961 0.54166,-1.625005 0.17709,0.0052 0.35417,0.0052 0.18229,0 0.35417,-0.0052 -0.13542,0.234376 -0.30208,0.500002 -0.16667,0.265626 -0.2448,0.406251 l -0.41146,0.718752 q -0.0885,-0.01042 -0.14583,-0.01042 -0.0625,0 -0.14583,0.01042 z"
         id="path17066" />
      <path
         d="m 387.14773,19.652534 q -0.0417,-0.01042 -0.10416,-0.01042 -0.0677,0 -0.10938,0.01042 -0.17187,-0.307292 -0.29687,-0.520835 l -0.5573,-0.932294 q 0.13021,0.0052 0.30209,0.0052 0.17187,0 0.30208,-0.0052 z"
         id="path17068" />
      <path
         d="m 389.62171,26.636931 q 0.35417,-0.973961 0.54167,-1.625005 0.17708,0.0052 0.35417,0.0052 0.18229,0 0.35416,-0.0052 -0.13541,0.234376 -0.30208,0.500002 -0.16667,0.265626 -0.24479,0.406251 l -0.41146,0.718752 q -0.0885,-0.01042 -0.14584,-0.01042 -0.0625,0 -0.14583,0.01042 z"
         id="path17070" />
    </g>
    <path
       style="display:inline;fill:#000000;fill-opacity:1;stroke:#000000;stroke-width:0.224;stroke-linecap:round;stroke-linejoin:round;stroke-miterlimit:4;stroke-dasharray:none;stroke-opacity:1;paint-order:stroke fill markers"
       id="path1677-2"
       transform="matrix(0.50072096,0.86560876,0.86560876,-0.50072096,0,0)"
       sodipodi:type="arc"
       sodipodi:arc-type="slice"
       sodipodi:start="0"
       sodipodi:end="5.2359878"
       sodipodi:ry="6"
       sodipodi:rx="6"
       sodipodi:cy="-83.370331"
       sodipodi:cx="228.68539"
       d="m 234.68539,-83.370331 a 6,6 0 0 1 -4.44708,5.795555 6,6 0 0 1 -6.74907,-2.795555 6,6 0 0 1 0.95351,-7.242641 6,6 0 0 1 7.24264,-0.953511 l -3,5.196152 z" />
    <path
       style="fill:none;stroke:#000000;stroke-width:0.264583px;stroke-linecap:butt;stroke-linejoin:miter;stroke-opacity:1"
       d="M 9.4810217,197.82326 C 48.434131,270.90481 48.434131,270.90481 48.434131,270.90481"
       id="path18725" />
    <circle
       style="display:inline;fill:#1a1a1a;stroke:#000000;stroke-width:0.3408"
       id="circle1547"
       cx="43.866882"
       cy="264.54272"
       r="5.8295999" />
    <circle
       style="display:inline;fill:#f9f9f9;fill-opacity:0;stroke:#000000;stroke-width:0.284"
       id="circle1551"
       cx="14.928663"
       cy="184.43637"
       r="4.8579998" />
    <circle
       style="display:inline;fill:#f9f9f9;fill-opacity:0;stroke:#000000;stroke-width:0.284"
       id="circle1075"
       cx="26.624294"
       cy="207.24913"
       r="4.8579998" />
  </g>
  <g
     inkscape:groupmode="layer"
     id="layer2"
     inkscape:label="components"
     style="display:inline">
    <circle
       style="display:inline;fill:#ff0000;stroke:none;stroke-width:0;paint-order:stroke fill markers"
       id="path1939"
       cx="-42.341499"
       cy="70.796715"
       r="2.2489583"
       inkscape:label="VARIATION"
       transform="scale(-1,1)" />
    <circle
       style="display:inline;fill:#ff0000;stroke:none;stroke-width:0;paint-order:stroke fill markers"
       id="circle3479"
       cx="23.009718"
       cy="100.60732"
       r="2.2489583"
       inkscape:label="TIME_CV" />
    <circle
       style="display:inline;fill:#ff0000;stroke:none;stroke-width:0;paint-order:stroke fill markers"
       id="circle3481"
       cx="23.688128"
       cy="83.942116"
       r="2.2489583"
       inkscape:label="TIME" />
    <circle
       style="display:inline;fill:#ff0000;stroke:none;stroke-width:0;paint-order:stroke fill markers"
       id="circle3483"
       cx="-44.72263"
       cy="55.75528"
       r="2.2489583"
       inkscape:label="VARIATION_CV"
       transform="scale(-1,1)" />
    <circle
       style="display:inline;fill:#ff0000;stroke:none;stroke-width:0;paint-order:stroke fill markers"
       id="circle3485"
       cx="25.971739"
       cy="57.377033"
       r="2.2489583"
       inkscape:label="DRYWET" />
    <ellipse
       style="display:inline;fill:#ff0000;stroke:none;stroke-width:0;paint-order:stroke fill markers"
       id="circle3487"
       cx="8.6544676"
       cy="-45.983562"
       inkscape:label="SIZE"
       transform="scale(1,-1)"
       rx="2.2489583"
       ry="2.2490001" />
    <circle
       style="display:inline;fill:#00ff00;fill-opacity:1;stroke:none;stroke-width:1;stroke-linecap:butt;stroke-linejoin:bevel;stroke-dasharray:none;stroke-dashoffset:0;paint-order:normal"
       id="circle2143"
       cx="9.2795706"
       cy="107.24155"
       r="3.5546818"
       inkscape:label="TIME_CV" />
    <circle
       style="display:inline;fill:#00ff00;fill-opacity:1;stroke:none;stroke-width:1;stroke-linecap:butt;stroke-linejoin:bevel;stroke-dasharray:none;stroke-dashoffset:0;paint-order:normal"
       id="circle833"
       cx="-40.998997"
       cy="42.222279"
       r="3.5546818"
       inkscape:label="VARIATION_CV"
       transform="scale(-1,1)" />
    <ellipse
       style="display:inline;fill:#00ff00;fill-opacity:1;stroke:none;stroke-width:1;stroke-linecap:butt;stroke-linejoin:bevel;stroke-dasharray:none;stroke-dashoffset:0;paint-order:normal"
       id="circle837"
       cx="6.322587"
       cy="25.852095"
       inkscape:label="L"
       rx="3.5550001"
       ry="3.5546818" />
    <circle
       style="fill:#0000ff;fill-opacity:1;stroke:none;stroke-width:1;stroke-linejoin:bevel"
       id="path6028"
       cx="34.512451"
       cy="108.76476"
       r="3.2348239"
       inkscape:label="L" />
    <g
       id="g986"
       transform="matrix(0.01928605,0,0,0.01928605,21.106416,120.65978)"
       style="display:inline">
      <path
         d="M 289.79,385.23 A 100.59,100.59 0 0 1 200,239.45 L 122.25,155 V 379.59 H 53.9 V 50.73 h 65.2 l 130.54,141.73 a 99.25,99.25 0 0 1 40.15,-8.34 100.56,100.56 0 1 1 0,201.11 M 111,126.32 l 102.65,111.45 -2,3.54 a 89.37,89.37 0 1 0 78.12,-46 88.09,88.09 0 0 0 -39.05,9 L 247,206.13 114.19,61.93 H 65.1 V 368.38 H 111 Z M 289.79,328 a 41.88,41.88 0 0 1 -7.25,-0.62 43.26,43.26 0 0 1 -36,-39.12 c -0.1,-1.18 -0.16,-2.41 -0.16,-3.65 a 43.45,43.45 0 0 1 43.39,-43.39 c 0.9,0 1.81,0.05 2.71,0.1 a 43.47,43.47 0 0 1 40.68,43.29 v 0.67 a 42.43,42.43 0 0 1 -1.76,11.59 43.29,43.29 0 0 1 -32.83,30.26 l -0.65,0.11 a 45,45 0 0 1 -8.15,0.76 m 0,-75.57 a 32.22,32.22 0 0 0 -32.18,32.18 c 0,0.92 0,1.84 0.11,2.71 a 32.12,32.12 0 0 0 26.72,29 32.54,32.54 0 0 0 11.87,-0.2 l 0.55,-0.11 a 32.1,32.1 0 0 0 23.82,-22.33 31.26,31.26 0 0 0 1.29,-8.49 v -0.6 a 32.23,32.23 0 0 0 -30.11,-32.11 c -0.67,0 -1.37,-0.07 -2.07,-0.07"
         id="path963" />
      <path
         d="m 289.81,131.85 a 43.39,43.39 0 1 1 43.39,-43.39 43.45,43.45 0 0 1 -43.39,43.39 m 0,-75.57 A 32.18,32.18 0 1 0 322,88.46 32.22,32.22 0 0 0 289.82,56.28"
         id="path965" />
      <polygon
         points="243.59,236.52 102.76,83.56 87.84,83.56 87.84,345.41 61.82,371.43 62.86,373.97 116.41,373.98 116.41,140.68 206.55,238.58 "
         id="polygon967" />
      <path
         d="M 199.93,317.51 227,307.58 a 66.69,66.69 0 0 0 45.87,41.53 63.28,63.28 0 0 0 10.94,1.9 68.18,68.18 0 0 0 13.49,-0.18 h 0.08 a 66.75,66.75 0 0 0 54.23,-41.94 65.32,65.32 0 0 0 4.2,-17.32 l 0.1,-1.18 a 66.31,66.31 0 0 0 -3.81,-28.68 l 27.08,-9.92 -0.43,0.16 A 95,95 0 1 1 200.4,317.34"
         id="path969" />
      <path
         d="m 254.08,297.66 a 37.31,37.31 0 0 1 -2.3,-13.08 c 0,-1 0,-2.11 0.14,-3.19 A 37.82,37.82 0 0 1 292.82,247 c 0.81,0.07 1.61,0.18 2.4,0.3 a 37.81,37.81 0 0 1 29.83,24.33 v 0 l 27.08,-9.93 a 66.62,66.62 0 0 0 -52.57,-42.9 c -1.41,-0.2 -2.82,-0.4 -4.23,-0.53 a 66.68,66.68 0 0 0 -72.11,60.62 c -0.16,1.89 -0.24,3.78 -0.24,5.61 a 66.13,66.13 0 0 0 4,23.06 z"
         id="path971" />
      <path
         d="M 255.11,101.8 A 37.753304,37.753304 0 1 0 325.67,74.92 Z"
         id="path973" />
    </g>
    <ellipse
       style="display:inline;fill:#ff0000;stroke:none;stroke-width:0;paint-order:stroke fill markers"
       id="circle979"
       cx="6.6505914"
       cy="58.856182"
       inkscape:label="SIZE_CV"
       rx="2.2490001"
       ry="2.2489583" />
    <circle
       style="display:inline;fill:#00ff00;fill-opacity:1;stroke:none;stroke-width:1;stroke-linecap:butt;stroke-linejoin:bevel;stroke-dasharray:none;stroke-dashoffset:0;paint-order:normal"
       id="circle982"
       cx="7.9154253"
       cy="71.302559"
       r="3.5546818"
       inkscape:label="SIZE_CV" />
    <ellipse
       style="display:inline;fill:#ff0000;stroke:none;stroke-width:0;paint-order:stroke fill markers"
       id="circle3487-7"
       cx="39.791111"
       cy="-25.7302"
       inkscape:label="FREEZE"
       transform="scale(1,-1)"
       rx="2.2489583"
       ry="2.2490001" />
    <circle
       style="fill:#0000ff;fill-opacity:1;stroke:none;stroke-width:1;stroke-linejoin:bevel"
       id="circle1549"
       cx="43.866882"
       cy="96.042747"
       r="3.2348239"
       inkscape:label="R" />
    <circle
       style="display:inline;fill:#00ff00;fill-opacity:1;stroke:none;stroke-width:1;stroke-linecap:butt;stroke-linejoin:bevel;stroke-dasharray:none;stroke-dashoffset:0;paint-order:normal"
       id="circle1553"
       cx="14.928663"
       cy="15.936398"
       r="3.5546818"
       inkscape:label="R" />
    <circle
       style="display:inline;fill:#00ff00;fill-opacity:1;stroke:none;stroke-width:1;stroke-linecap:butt;stroke-linejoin:bevel;stroke-dasharray:none;stroke-dashoffset:0;paint-order:normal"
       id="circle1077"
       cx="26.624294"
       cy="38.749138"
       r="3.5546818"
       inkscape:label="FREEZE_CV" />
    <path
       style="fill:none;stroke:#000000;stroke-width:0.264583px;stroke-linecap:butt;stroke-linejoin:miter;stroke-opacity:1"
       d="m 39.158333,25.929166 c -11.1125,0.79375 -10.31875,8.598959 -10.31875,8.598959"
       id="path1914" />
    <path
       style="fill:none;stroke:#000000;stroke-width:0.264583px;stroke-linecap:butt;stroke-linejoin:miter;stroke-opacity:1"
       d="M 36.5125,103.98125 C 34.13125,93.662496 38.496875,84.269788 38.496875,84.269788"
       id="path1920" />
    <path
       style="fill:none;stroke:#000000;stroke-width:0.264583px;stroke-linecap:butt;stroke-linejoin:miter;stroke-opacity:1"
       d="m 17.859374,19.711458 c 6.879167,6.217708 -2.248958,21.298958 -2.248958,21.298958"
       id="path1922" />
    <path
       style="fill:none;stroke:#000000;stroke-width:0.264583px;stroke-linecap:butt;stroke-linejoin:miter;stroke-opacity:1"
       d="M 39.343098,66.283181 C 50.335056,62.975366 48.643553,49.80183 42.824869,49.305467 38.556439,48.94135 36.47765,43.96637 36.47765,43.96637"
       id="path2474"
       sodipodi:nodetypes="csc" />
    <path
       style="fill:none;stroke:#000000;stroke-width:0.264583px;stroke-linecap:butt;stroke-linejoin:miter;stroke-opacity:1"
       d="m 9.4746737,47.00157 c -10.9919576,3.307815 -9.30045466,16.481351 -3.4817706,16.977714 4.2684299,0.364117 6.3472189,5.339097 6.3472189,5.339097"
       id="path3856"
       sodipodi:nodetypes="csc" />
  </g>
  <g
     inkscape:groupmode="layer"
     id="layer3"
     inkscape:label="inv comp"
     style="display:none">
    <circle
       style="display:inline;fill:#1a1a1a;stroke:#000000;stroke-width:0.2272"
       id="circle981"
       cx="35.004612"
       cy="112.91367"
       r="3.8864" />
    <circle
       style="display:inline;fill:#1a1a1a;stroke:#000000;stroke-width:0.2272"
       id="circle983"
       cx="22.710215"
       cy="112.91367"
       r="3.8864" />
    <circle
       style="display:inline;fill:#1a1a1a;stroke:#000000;stroke-width:0.2272"
       id="circle985"
       cx="10.148547"
       cy="113.04731"
       r="3.8864" />
    <path
       style="display:inline;fill:none;stroke:#000000;stroke-width:0.264583px;stroke-linecap:butt;stroke-linejoin:miter;stroke-opacity:1"
       d="M 1.0690781,176.89954 59.868375,176.63227"
       id="path484"
       transform="translate(0,-168.49998)" />
    <path
       style="display:inline;fill:none;stroke:#000000;stroke-width:0.264583px;stroke-linecap:butt;stroke-linejoin:miter;stroke-opacity:1"
       d="M 1.0690781,176.89954 59.868375,176.63227"
       id="path1043"
       transform="translate(0,-168.49998)" />
    <path
       style="display:inline;fill:none;stroke:#000000;stroke-width:0.264583px;stroke-linecap:butt;stroke-linejoin:miter;stroke-opacity:1"
       d="M 2.5390605,289.13227 H 58.264755"
       id="path486"
       transform="translate(0,-168.49998)" />
  </g>
  <g
     aria-label="Hellebore"
     transform="matrix(0.26458333,0,0,0.26458333,73.079967,-40.60997)"
     id="text13773"
     style="font-size:24px;font-family:'Eras Light ITC';-inkscape-font-specification:'Eras Light ITC';word-spacing:0px;white-space:pre">
    <path
       d="m -190.76367,213.99992 q 0.28125,-5.05078 0.42187,-9.4336 0.14063,-4.38281 0.14063,-6.5625 0.30469,0.0117 0.51562,0.0117 0.21094,0 0.50391,-0.0117 l -0.31641,7.48828 h 10.89844 l 0.22266,-5.88281 q 0.0234,-0.49219 0.0234,-1.60547 0.30469,0.0117 0.51563,0.0117 0.21094,0 0.50391,-0.0117 -0.44532,7.26563 -0.60938,15.9961 -0.29297,-0.0117 -0.51562,-0.0117 -0.23438,0 -0.52735,0.0117 0.29297,-4.07813 0.36328,-7.79297 h -10.89843 l -0.1875,5.7539 -0.0234,2.03907 q -0.30469,-0.0117 -0.51563,-0.0117 -0.22265,0 -0.51562,0.0117 z"
       id="path16321" />
    <path
       d="m -165.35742,212.8632 q -0.0937,0.43359 -0.14063,0.8789 -0.97265,0.28125 -1.74609,0.38672 -0.77344,0.11719 -1.58203,0.11719 -1.40625,0 -2.4961,-0.375 -1.07812,-0.38672 -1.85156,-1.26562 -0.77344,-0.89063 -1.10156,-1.99219 -0.32813,-1.10156 -0.32813,-2.34375 0,-1.62891 0.5625,-3.04688 0.5625,-1.42968 1.85157,-2.36718 1.28906,-0.9375 3.19922,-0.9375 1.3125,0 2.3789,0.49218 1.06641,0.48047 1.65235,1.58203 0.59765,1.10157 0.59765,2.61329 0,0.28125 -0.0234,0.53906 l -9.26953,0.0117 q -0.0586,0.76172 -0.0586,1.14843 0,1.11329 0.32812,2.15625 0.32813,1.04297 0.98438,1.7461 0.66797,0.70312 1.59375,1.04297 0.92578,0.33984 1.95703,0.33984 1.57031,0 3.49219,-0.72656 z m -8.19141,-6.35156 8.33203,0.0117 q -0.0117,-0.80859 -0.0937,-1.24218 -0.082,-0.4336 -0.30468,-0.89063 -0.22266,-0.45703 -0.53907,-0.78515 -0.30468,-0.33985 -0.72656,-0.5625 -0.41016,-0.23438 -0.92578,-0.35157 -0.51563,-0.11718 -1.07813,-0.11718 -0.62109,0 -1.21875,0.14062 -0.59765,0.14063 -1.08984,0.38672 -0.49219,0.24609 -0.92578,0.63281 -0.42188,0.375 -0.70313,0.82031 -0.26953,0.44532 -0.42187,0.85547 -0.14063,0.39844 -0.30469,1.10157 z"
       id="path16323" />
    <path
       d="m -162.11133,213.99992 q 0.53906,-9.77344 0.63281,-15.9961 0.30469,0.0117 0.48047,0.0117 0.17578,0 0.48047,-0.0117 l -0.29297,5.70703 -0.33984,10.28907 q -0.30469,-0.0117 -0.48047,-0.0117 -0.17578,0 -0.48047,0.0117 z"
       id="path16325" />
    <path
       d="m -157.62305,213.99992 q 0.53907,-9.77344 0.63282,-15.9961 0.30468,0.0117 0.48046,0.0117 0.17579,0 0.48047,-0.0117 l -0.29297,5.70703 -0.33984,10.28907 q -0.30469,-0.0117 -0.48047,-0.0117 -0.17578,0 -0.48047,0.0117 z"
       id="path16327" />
    <path
       d="m -144.28711,212.8632 q -0.0937,0.43359 -0.14062,0.8789 -0.97266,0.28125 -1.7461,0.38672 -0.77344,0.11719 -1.58203,0.11719 -1.40625,0 -2.49609,-0.375 -1.07813,-0.38672 -1.85157,-1.26562 -0.77343,-0.89063 -1.10156,-1.99219 -0.32812,-1.10156 -0.32812,-2.34375 0,-1.62891 0.5625,-3.04688 0.5625,-1.42968 1.85156,-2.36718 1.28906,-0.9375 3.19922,-0.9375 1.3125,0 2.3789,0.49218 1.06641,0.48047 1.65235,1.58203 0.59765,1.10157 0.59765,2.61329 0,0.28125 -0.0234,0.53906 l -9.26953,0.0117 q -0.0586,0.76172 -0.0586,1.14843 0,1.11329 0.32813,2.15625 0.32812,1.04297 0.98437,1.7461 0.66797,0.70312 1.59375,1.04297 0.92578,0.33984 1.95703,0.33984 1.57032,0 3.49219,-0.72656 z m -8.19141,-6.35156 8.33204,0.0117 q -0.0117,-0.80859 -0.0937,-1.24218 -0.082,-0.4336 -0.30469,-0.89063 -0.22266,-0.45703 -0.53906,-0.78515 -0.30469,-0.33985 -0.72657,-0.5625 -0.41015,-0.23438 -0.92578,-0.35157 -0.51562,-0.11718 -1.07812,-0.11718 -0.6211,0 -1.21875,0.14062 -0.59766,0.14063 -1.08985,0.38672 -0.49218,0.24609 -0.92578,0.63281 -0.42187,0.375 -0.70312,0.82031 -0.26953,0.44532 -0.42188,0.85547 -0.14062,0.39844 -0.30469,1.10157 z"
       id="path16329" />
    <path
       d="m -140.98242,213.99992 0.0937,-1.16016 0.33984,-9.65625 0.12891,-5.17969 q 0.30469,0.0117 0.49219,0.0117 0.19921,0 0.5039,-0.0117 -0.1289,1.32422 -0.17578,2.625 l -0.082,1.82813 q 1.28906,-0.32813 2.15625,-0.4336 0.87891,-0.10546 1.73437,-0.10546 1.48829,0 2.58985,0.375 1.11328,0.36328 1.82812,1.23046 0.72657,0.85547 1.01953,1.91016 0.30469,1.05469 0.30469,2.21484 0,1.30079 -0.35156,2.53125 -0.35156,1.21875 -1.10156,2.20313 -0.73828,0.97266 -1.79297,1.41797 -1.04297,0.43359 -2.32031,0.43359 -0.73829,0 -1.41797,-0.17578 -0.66797,-0.17578 -1.1836,-0.48047 -0.5039,-0.30469 -0.84375,-0.66797 -0.33984,-0.375 -0.53906,-0.73828 -0.19922,-0.375 -0.41016,-1.00781 l -0.0234,2.83594 q -0.30469,-0.0117 -0.48047,-0.0117 -0.16406,0 -0.46875,0.0117 z m 1.27734,-10.71094 q -0.0937,2.37891 -0.14062,3.09375 -0.0469,0.71484 -0.0469,1.67578 0,1.25391 0.1875,2.22656 0.1875,0.97266 0.72656,1.73438 0.53907,0.76172 1.39454,1.17187 0.86718,0.39844 1.91015,0.39844 1.05469,0 1.96875,-0.39844 0.91406,-0.41015 1.52344,-1.27734 0.60937,-0.86719 0.92578,-2.02734 0.32813,-1.17188 0.32813,-2.33204 0,-1.64062 -0.63282,-2.80078 -0.62109,-1.17187 -1.67578,-1.67578 -1.04297,-0.5039 -2.46094,-0.5039 -0.86718,0 -1.80468,0.15234 -0.9375,0.15234 -2.20313,0.5625 z"
       id="path16331" />
    <path
       d="m -122.05664,201.91789 q 1.08984,0 2.10937,0.30468 1.01954,0.30469 1.79297,1.04297 0.78516,0.72656 1.19532,1.91016 0.41015,1.18359 0.41015,2.50781 0,1.42969 -0.43359,2.74219 -0.4336,1.3125 -1.23047,2.20312 -0.79688,0.87891 -1.875,1.24219 -1.06641,0.36328 -2.27344,0.36328 -0.84375,0 -1.66406,-0.19922 -0.80859,-0.1875 -1.52344,-0.64453 -0.70312,-0.45703 -1.24219,-1.18359 -0.52734,-0.72656 -0.80859,-1.72266 -0.26953,-0.99609 -0.26953,-2.07422 0,-1.88672 0.70312,-3.44531 0.70313,-1.57031 2.09766,-2.30859 1.40625,-0.73828 3.01172,-0.73828 z m -0.0234,0.65625 q -1.39453,0 -2.58984,0.67968 -1.19531,0.67969 -1.75781,2.07422 -0.5625,1.39453 -0.5625,3.0586 0,1.17187 0.3164,2.20312 0.32813,1.03125 1.04297,1.74609 0.71484,0.70313 1.53516,0.98438 0.83203,0.26953 1.74609,0.26953 1.04297,0 1.95703,-0.33984 0.91406,-0.33985 1.60547,-1.13672 0.70313,-0.79688 1.03125,-1.95703 0.32813,-1.16016 0.32813,-2.46094 0,-1.20703 -0.32813,-2.26172 -0.31641,-1.06641 -0.99609,-1.69922 -0.67969,-0.64453 -1.54688,-0.90234 -0.86719,-0.25781 -1.78125,-0.25781 z"
       id="path16333" />
    <path
       d="m -114.05273,213.99992 q 0.14062,-2.47266 0.26953,-5.8125 0.1289,-3.33985 0.1289,-4.96875 l -0.0117,-1.05469 q 0.23438,0.0117 0.4336,0.0117 0.21094,0 0.43359,-0.0117 l -0.10547,2.21484 q 0.39844,-0.79687 0.73828,-1.20703 0.33985,-0.41015 0.78516,-0.67969 0.45703,-0.28125 1.05469,-0.42187 0.60937,-0.15234 1.26562,-0.15234 0.48047,0 0.97266,0.11718 0,0.39844 0.0469,0.79688 -0.78515,-0.19922 -1.35937,-0.19922 -0.5625,0 -1.01953,0.15234 -0.44531,0.15235 -0.84375,0.44532 -0.38672,0.29296 -0.76172,0.80859 -0.375,0.50391 -0.5625,1.07812 -0.23438,0.66797 -0.31641,1.62891 -0.1289,1.5 -0.16406,3.42188 -0.0469,2.58984 -0.0469,3.83203 -0.30469,-0.0117 -0.46875,-0.0117 -0.16407,0 -0.46875,0.0117 z"
       id="path16335" />
    <path
       d="m -97.576172,212.8632 q -0.09375,0.43359 -0.140625,0.8789 -0.972656,0.28125 -1.746094,0.38672 -0.773439,0.11719 -1.582029,0.11719 -1.40625,0 -2.4961,-0.375 -1.07812,-0.38672 -1.85156,-1.26562 -0.77344,-0.89063 -1.10156,-1.99219 -0.32813,-1.10156 -0.32813,-2.34375 0,-1.62891 0.5625,-3.04688 0.5625,-1.42968 1.85157,-2.36718 1.28906,-0.9375 3.19922,-0.9375 1.312496,0 2.378902,0.49218 1.066406,0.48047 1.652344,1.58203 0.597656,1.10157 0.597656,2.61329 0,0.28125 -0.02344,0.53906 l -9.269532,0.0117 q -0.0586,0.76172 -0.0586,1.14843 0,1.11329 0.32812,2.15625 0.32813,1.04297 0.98438,1.7461 0.66797,0.70312 1.59375,1.04297 0.92578,0.33984 1.95703,0.33984 1.570311,0 3.492186,-0.72656 z m -8.191408,-6.35156 8.332033,0.0117 q -0.01172,-0.80859 -0.09375,-1.24218 -0.08203,-0.4336 -0.304687,-0.89063 -0.222657,-0.45703 -0.539063,-0.78515 -0.304687,-0.33985 -0.726562,-0.5625 -0.410157,-0.23438 -0.925781,-0.35157 -0.51563,-0.11718 -1.07813,-0.11718 -0.62109,0 -1.21875,0.14062 -0.59765,0.14063 -1.08984,0.38672 -0.49219,0.24609 -0.92578,0.63281 -0.42188,0.375 -0.70313,0.82031 -0.26953,0.44532 -0.42187,0.85547 -0.14063,0.39844 -0.30469,1.10157 z"
       id="path16337" />
  </g>
</svg>
