<?xml version="1.0" encoding="UTF-8" standalone="no"?>
<!-- Created with Inkscape (http://www.inkscape.org/) -->

<svg
   width="50.799999mm"
   height="128.5mm"
   viewBox="0 0 50.800006 128.50002"
   version="1.1"
   id="svg8"
   inkscape:version="1.1.2 (b8e25be833, 2022-02-05)"
   sodipodi:docname="Sinensis.svg"
   xmlns:inkscape="http://www.inkscape.org/namespaces/inkscape"
   xmlns:sodipodi="http://sodipodi.sourceforge.net/DTD/sodipodi-0.dtd"
   xmlns="http://www.w3.org/2000/svg"
   xmlns:svg="http://www.w3.org/2000/svg"
   xmlns:rdf="http://www.w3.org/1999/02/22-rdf-syntax-ns#"
   xmlns:cc="http://creativecommons.org/ns#"
   xmlns:dc="http://purl.org/dc/elements/1.1/">
  <defs
     id="defs2">
    <rect
       x="-15.526671"
       y="-29.917244"
       width="176.85257"
       height="101.11271"
       id="rect12265" />
    <rect
       x="-80.249992"
       y="29.749998"
       width="196.24998"
       height="88.999992"
       id="rect1623" />
    <rect
       x="-18.384775"
       y="519.01636"
       width="280.01428"
       height="164.04877"
       id="rect3463" />
    <rect
       x="-71.5"
       y="121"
       width="55.75"
       height="60.749996"
       id="rect19101" />
    <rect
       x="-79.5"
       y="182.25"
       width="69.75"
       height="106.75"
       id="rect9921" />
    <inkscape:path-effect
       effect="bspline"
       id="path-effect4868"
       is_visible="true"
       lpeversion="1"
       weight="33.333333"
       steps="2"
       helper_size="0"
       apply_no_weight="true"
       apply_with_weight="true"
       only_selected="false" />
    <inkscape:perspective
       sodipodi:type="inkscape:persp3d"
       inkscape:vp_x="0 : 64.25001 : 1"
       inkscape:vp_y="0 : 1000 : 0"
       inkscape:vp_z="60.960006 : 64.25001 : 1"
       inkscape:persp3d-origin="30.480003 : 42.83334 : 1"
       id="perspective990" />
    <rect
       x="3.0304575"
       y="71.720833"
       width="36.36549"
       height="17.172592"
       id="rect41724" />
    <rect
       x="2.0203052"
       y="39.39595"
       width="56.568546"
       height="41.416252"
       id="rect21572" />
    <rect
       x="-201.02036"
       y="146.47212"
       width="169.70563"
       height="40.406101"
       id="rect16734" />
    <rect
       x="3.0304575"
       y="71.720833"
       width="36.36549"
       height="17.172592"
       id="rect54374" />
    <rect
       x="3.0304575"
       y="71.720833"
       width="36.36549"
       height="17.172592"
       id="rect54374-0" />
    <rect
       x="3.0304575"
       y="71.720833"
       width="46.972092"
       height="17.172592"
       id="rect54374-0-7" />
    <rect
       x="-334.46149"
       y="238.29497"
       width="352.7178"
       height="13.709198"
       id="rect24141" />
    <rect
       x="-334.46149"
       y="238.29497"
       width="352.7178"
       height="13.709198"
       id="rect1049" />
  </defs>
  <sodipodi:namedview
     id="base"
     pagecolor="#ffffff"
     bordercolor="#666666"
     borderopacity="1.0"
     inkscape:pageopacity="0.0"
     inkscape:pageshadow="2"
     inkscape:zoom="1.4700521"
     inkscape:cx="-63.603188"
     inkscape:cy="233.32506"
     inkscape:document-units="mm"
     inkscape:current-layer="layer1"
     showgrid="false"
     units="mm"
     inkscape:snap-bbox="true"
     inkscape:snap-page="true"
     inkscape:bbox-nodes="false"
     inkscape:snap-bbox-edge-midpoints="false"
     inkscape:window-width="1920"
     inkscape:window-height="1051"
     inkscape:window-x="-9"
     inkscape:window-y="-9"
     inkscape:window-maximized="1"
     inkscape:snap-bbox-midpoints="true"
     inkscape:snap-nodes="false"
     inkscape:pagecheckerboard="0"
     width="2.4in"
     inkscape:bbox-paths="false"
     inkscape:showpageshadow="2"
     inkscape:deskcolor="#d1d1d1"
     inkscape:snap-global="true" />
  <metadata
     id="metadata5">
    <rdf:RDF>
      <cc:Work
         rdf:about="">
        <dc:format>image/svg+xml</dc:format>
        <dc:type
           rdf:resource="http://purl.org/dc/dcmitype/StillImage" />
      </cc:Work>
    </rdf:RDF>
  </metadata>
  <g
     inkscape:label="Layer 1"
     inkscape:groupmode="layer"
     id="layer1"
     transform="translate(0,-168.49998)"
     style="display:inline">
    <rect
       style="display:inline;opacity:1;vector-effect:none;fill:#c6c6c6;fill-opacity:1;fill-rule:evenodd;stroke:none;stroke-width:0.838319;stroke-linecap:butt;stroke-linejoin:miter;stroke-miterlimit:4;stroke-dasharray:none;stroke-dashoffset:0;stroke-opacity:1;paint-order:normal"
       id="rect420"
       width="50.799999"
       height="128.5"
       x="9.5316892e-09"
       y="168.49998"
       sodipodi:insensitive="true" />
    <text
       xml:space="preserve"
       transform="matrix(0.26458333,0,0,0.26458333,0,168.49998)"
       id="text16732"
       style="font-size:40px;line-height:1.25;font-family:sans-serif;letter-spacing:0px;white-space:pre;shape-inside:url(#rect16734);display:inline"><tspan
         x="-201.01953"
         y="223.37212"
         id="tspan1539"><tspan
           dx="0 30.820312 25.292969"
           id="tspan1537">DEL</tspan></tspan></text>
    <circle
       style="display:inline;fill:#1a1a1a;stroke:#000000;stroke-width:0.3408"
       id="circle574"
       cx="25.612551"
       cy="264.29181"
       r="5.8295999" />
    <circle
       style="display:inline;fill:#f9f9f9;fill-opacity:0;stroke:#000000;stroke-width:0.284"
       id="circle40"
       cx="16.637266"
       cy="185.36073"
       r="4.8579998" />
    <text
       xml:space="preserve"
       style="font-size:10.5833px;line-height:1.25;font-family:sans-serif;letter-spacing:0px;stroke-width:0.264583"
       x="21.639137"
       y="180.68971"
       id="text12854"><tspan
         sodipodi:role="line"
         id="tspan12852"
         style="stroke-width:0.264583"
         x="21.639137"
         y="180.68971" /></text>
    <path
       style="display:inline;fill:#000000;fill-opacity:1;stroke:#000000;stroke-width:0.401152;stroke-linecap:round;stroke-linejoin:round;stroke-miterlimit:4;stroke-dasharray:none;stroke-opacity:1;paint-order:stroke fill markers"
       id="path2605"
       transform="rotate(120.04771)"
       d="m 194.39316,-121.04788 a 10.74515,10.74515 0 0 1 -7.9641,10.37902 10.74515,10.74515 0 0 1 -12.08662,-5.00645 10.74515,10.74515 0 0 1 1.7076,-12.97054 10.74515,10.74515 0 0 1 12.97055,-1.7076 l -5.37258,9.30557 z"
       sodipodi:type="arc"
       sodipodi:arc-type="slice"
       sodipodi:start="0"
       sodipodi:end="5.2359878"
       sodipodi:ry="10.74515"
       sodipodi:rx="10.74515"
       sodipodi:cy="-121.04788"
       sodipodi:cx="183.64801" />
    <path
       style="display:inline;fill:#000000;fill-opacity:1;stroke:#000000;stroke-width:0.2272"
       id="circle865"
       sodipodi:type="arc"
       sodipodi:cx="223.70787"
       sodipodi:cy="-138.75526"
       sodipodi:rx="3.8864"
       sodipodi:ry="3.8864"
       sodipodi:start="0"
       sodipodi:end="5.2359878"
       sodipodi:arc-type="slice"
       d="m 227.59427,-138.75526 a 3.8864,3.8864 0 0 1 -2.88053,3.75397 3.8864,3.8864 0 0 1 -4.37159,-1.81077 3.8864,3.8864 0 0 1 0.61762,-4.6913 3.8864,3.8864 0 0 1 4.6913,-0.61763 l -1.9432,3.36573 z"
       transform="rotate(120)" />
    <circle
       style="display:inline;fill:#f9f9f9;fill-opacity:0;stroke:#000000;stroke-width:0.284"
       id="circle1679"
       cx="34.705517"
       cy="185.36075"
       r="4.8579998" />
    <circle
       style="display:inline;fill:#f9f9f9;fill-opacity:0;stroke:#000000;stroke-width:0.284"
       id="circle1681"
       cx="15.357212"
       cy="278.80502"
       r="4.8579998" />
    <path
       style="display:inline;fill:#000000;fill-opacity:1;stroke:#000000;stroke-width:0.2272"
       id="path1683"
       sodipodi:type="arc"
       sodipodi:cx="149.36545"
       sodipodi:cy="-138.58228"
       sodipodi:rx="3.8864"
       sodipodi:ry="3.8864"
       sodipodi:start="0"
       sodipodi:end="5.2359878"
       sodipodi:arc-type="slice"
       d="m 153.25185,-138.58228 a 3.8864,3.8864 0 0 1 -2.88053,3.75398 3.8864,3.8864 0 0 1 -4.37159,-1.81078 3.8864,3.8864 0 0 1 0.61762,-4.6913 3.8864,3.8864 0 0 1 4.6913,-0.61762 l -1.9432,3.36572 z"
       transform="rotate(120)" />
    <path
       style="display:inline;fill:#000000;fill-opacity:1;stroke:#000000;stroke-width:0.2272"
       id="path1685"
       sodipodi:type="arc"
       sodipodi:cx="168.81456"
       sodipodi:cy="-104.89544"
       sodipodi:rx="3.8864"
       sodipodi:ry="3.8864"
       sodipodi:start="0"
       sodipodi:end="5.2359878"
       sodipodi:arc-type="slice"
       d="m 172.70096,-104.89544 a 3.8864,3.8864 0 0 1 -2.88053,3.75397 3.8864,3.8864 0 0 1 -4.37159,-1.81077 3.8864,3.8864 0 0 1 0.61762,-4.6913 3.8864,3.8864 0 0 1 4.6913,-0.61762 l -1.9432,3.36572 z"
       transform="rotate(120)" />
    <circle
       style="display:inline;fill:#f9f9f9;fill-opacity:0;stroke:#000000;stroke-width:0.284"
       id="circle1741"
       cx="25.612551"
       cy="202.51518"
       r="4.8579998" />
    <circle
       style="display:inline;fill:#f9f9f9;fill-opacity:0;stroke:#000000;stroke-width:0.284"
       id="circle973"
       cx="36.598763"
       cy="278.80502"
       r="4.8579998" />
    <path
       style="display:inline;fill:#000000;fill-opacity:1;stroke:#000000;stroke-width:0.2272"
       id="path975"
       sodipodi:type="arc"
       sodipodi:cx="206.25691"
       sodipodi:cy="-168.98128"
       sodipodi:rx="3.8864"
       sodipodi:ry="3.8864"
       sodipodi:start="0"
       sodipodi:end="5.2359878"
       sodipodi:arc-type="slice"
       d="m 210.14331,-168.98128 a 3.8864,3.8864 0 0 1 -2.88052,3.75398 3.8864,3.8864 0 0 1 -4.3716,-1.81078 3.8864,3.8864 0 0 1 0.61762,-4.6913 3.8864,3.8864 0 0 1 4.6913,-0.61762 l -1.9432,3.36572 z"
       transform="rotate(120)" />
    <path
       style="display:inline;fill:#000000;fill-opacity:1;stroke:#000000;stroke-width:0.224;stroke-linecap:round;stroke-linejoin:round;stroke-miterlimit:4;stroke-dasharray:none;stroke-opacity:1;paint-order:stroke fill markers"
       id="path1743"
       transform="rotate(120.04771)"
       sodipodi:type="arc"
       sodipodi:arc-type="slice"
       sodipodi:start="0"
       sodipodi:end="5.2359878"
       sodipodi:ry="6"
       sodipodi:rx="6"
       sodipodi:cy="-156.31224"
       sodipodi:cx="193.33394"
       d="m 199.33394,-156.31224 a 6,6 0 0 1 -4.44709,5.79555 6,6 0 0 1 -6.74906,-2.79555 6,6 0 0 1 0.95351,-7.24264 6,6 0 0 1 7.24264,-0.95351 l -3,5.19615 z" />
    <path
       style="display:inline;fill:none;stroke:#000000;stroke-width:0.264583px;stroke-linecap:butt;stroke-linejoin:miter;stroke-opacity:1"
       d="m 38.26494,236.10892 c 0,2.65689 0,2.65689 0,2.65689"
       id="path1140-0" />
    <path
       style="display:inline;fill:none;stroke:#000000;stroke-width:0.264583px;stroke-linecap:butt;stroke-linejoin:miter;stroke-opacity:1"
       d="m 43.570325,250.11939 c 0,2.65689 0,2.65689 0,2.65689"
       id="path1823" />
    <path
       style="display:inline;fill:none;stroke:#000000;stroke-width:0.251933px;stroke-linecap:butt;stroke-linejoin:miter;stroke-opacity:1"
       d="m 43.85278,250.36737 c 0,2.40891 0,2.40891 0,2.40891"
       id="path1825" />
    <path
       style="display:inline;fill:none;stroke:#000000;stroke-width:0.251933px;stroke-linecap:butt;stroke-linejoin:miter;stroke-opacity:1"
       d="m 44.2463,250.36737 c 0,2.40891 0,2.40891 0,2.40891"
       id="path1827" />
    <path
       style="display:inline;fill:none;stroke:#000000;stroke-width:0.251933px;stroke-linecap:butt;stroke-linejoin:miter;stroke-opacity:1"
       d="m 44.823492,250.36737 c 0,2.40891 0,2.40891 0,2.40891"
       id="path1829" />
    <path
       style="display:inline;fill:none;stroke:#000000;stroke-width:0.251933px;stroke-linecap:butt;stroke-linejoin:miter;stroke-opacity:1"
       d="m 45.633838,250.36737 c 0,2.40891 0,2.40891 0,2.40891"
       id="path1417" />
    <path
       style="display:inline;fill:none;stroke:#000000;stroke-width:0.251933px;stroke-linecap:butt;stroke-linejoin:miter;stroke-opacity:1"
       d="m 47.015423,250.36737 c 0,2.40891 0,2.40891 0,2.40891"
       id="path1419" />
    <path
       style="display:inline;fill:#000000;fill-opacity:1;stroke:#000000;stroke-width:0.401152;stroke-linecap:round;stroke-linejoin:round;stroke-miterlimit:4;stroke-dasharray:none;stroke-opacity:1;paint-order:stroke fill markers"
       id="path2605-1"
       transform="rotate(120.04771)"
       sodipodi:type="arc"
       sodipodi:arc-type="slice"
       sodipodi:start="0"
       sodipodi:end="5.2359878"
       sodipodi:ry="10.74515"
       sodipodi:rx="10.74515"
       sodipodi:cy="-143.07782"
       sodipodi:cx="170.90454"
       d="m 181.64969,-143.07782 a 10.74515,10.74515 0 0 1 -7.9641,10.37902 10.74515,10.74515 0 0 1 -12.08662,-5.00645 10.74515,10.74515 0 0 1 1.7076,-12.97054 10.74515,10.74515 0 0 1 12.97055,-1.7076 l -5.37258,9.30557 z" />
    <path
       style="display:inline;fill:none;stroke:#000000;stroke-width:0.219155px;stroke-linecap:butt;stroke-linejoin:miter;stroke-opacity:1"
       d="m 31.81019,230.29827 -1.369595,-1.61364 -1.40373,1.62628"
       id="path2028"
       sodipodi:nodetypes="ccc" />
    <path
       style="display:inline;fill:none;stroke:#000000;stroke-width:0.2;stroke-linecap:butt;stroke-linejoin:miter;stroke-miterlimit:4;stroke-dasharray:none;stroke-opacity:1"
       d="m 38.833974,208.03154 -0.553229,-1.68163 -0.567017,1.6948"
       id="path1991"
       sodipodi:nodetypes="ccc" />
    <path
       style="fill:none;stroke:#000000;stroke-width:0.2;stroke-linecap:butt;stroke-linejoin:miter;stroke-miterlimit:4;stroke-dasharray:none;stroke-opacity:1"
       d="m 45.293875,228.73977 c 0,1.80668 0,1.80668 0,1.80668"
       id="path2188" />
    <g
       id="g1545"
       style="display:inline"
       transform="translate(-60.857472,191.27054)">
      <path
         style="display:inline;fill:#000000;fill-opacity:1;stroke:#000000;stroke-width:0.224;stroke-linecap:round;stroke-linejoin:round;stroke-miterlimit:4;stroke-dasharray:none;stroke-opacity:1;paint-order:stroke fill markers"
         id="path1677"
         transform="rotate(120.04771,48.594995,-84.249991)"
         d="m 162.13943,-174.89752 a 6,6 0 0 1 -4.44708,5.79555 6,6 0 0 1 -6.74907,-2.79555 6,6 0 0 1 0.95351,-7.24264 6,6 0 0 1 7.24265,-0.95351 l -3.00001,5.19615 z"
         sodipodi:type="arc"
         sodipodi:arc-type="slice"
         sodipodi:start="0"
         sodipodi:end="5.2359878"
         sodipodi:ry="6"
         sodipodi:rx="6"
         sodipodi:cy="-174.89752"
         sodipodi:cx="156.13943" />
      <path
         style="fill:none;stroke:#000000;stroke-width:0.200555px;stroke-linecap:butt;stroke-linejoin:miter;stroke-opacity:1"
         d="m 78.192363,58.576063 c 0,2.656888 0,2.656888 0,2.656888"
         id="path1805" />
      <path
         style="fill:none;stroke:#000000;stroke-width:0.200555px;stroke-linecap:butt;stroke-linejoin:miter;stroke-opacity:1"
         d="m 78.728491,58.576063 c 0,2.656888 0,2.656888 0,2.656888"
         id="path1807" />
      <path
         style="fill:none;stroke:#000000;stroke-width:0.200555px;stroke-linecap:butt;stroke-linejoin:miter;stroke-opacity:1"
         d="m 79.264619,58.576063 c 0,2.656888 0,2.656888 0,2.656888"
         id="path1809" />
      <path
         style="fill:none;stroke:#000000;stroke-width:0.200555px;stroke-linecap:butt;stroke-linejoin:miter;stroke-opacity:1"
         d="m 79.800747,58.576063 c 0,2.656888 0,2.656888 0,2.656888"
         id="path1811" />
      <path
         style="fill:none;stroke:#000000;stroke-width:0.200555px;stroke-linecap:butt;stroke-linejoin:miter;stroke-opacity:1"
         d="m 80.336874,58.576063 c 0,2.656888 0,2.656888 0,2.656888"
         id="path1813" />
      <path
         style="fill:none;stroke:#000000;stroke-width:0.188493px;stroke-linecap:butt;stroke-linejoin:miter;stroke-opacity:1"
         d="m 80.44315,61.137746 c -2.346918,0 -2.346918,0 -2.346918,0"
         id="path1421" />
      <path
         style="display:inline;fill:none;stroke:#000000;stroke-width:0.200555px;stroke-linecap:butt;stroke-linejoin:miter;stroke-opacity:1"
         d="m 72.333287,44.827767 c 0,2.656888 0,2.656888 0,2.656888"
         id="path1805-9" />
      <path
         style="display:inline;fill:none;stroke:#000000;stroke-width:0.200555px;stroke-linecap:butt;stroke-linejoin:miter;stroke-opacity:1"
         d="m 72.869415,44.827767 c 0,2.656888 0,2.656888 0,2.656888"
         id="path1807-4" />
      <path
         style="display:inline;fill:none;stroke:#000000;stroke-width:0.200555px;stroke-linecap:butt;stroke-linejoin:miter;stroke-opacity:1"
         d="m 73.405543,44.827767 c 0,2.656888 0,2.656888 0,2.656888"
         id="path1809-0" />
      <path
         style="display:inline;fill:none;stroke:#000000;stroke-width:0.188493px;stroke-linecap:butt;stroke-linejoin:miter;stroke-opacity:1"
         d="m 74.584074,47.38945 c -2.346918,0 -2.346918,0 -2.346918,0"
         id="path1421-1" />
      <path
         style="display:inline;fill:none;stroke:#000000;stroke-width:0.200555px;stroke-linecap:butt;stroke-linejoin:miter;stroke-opacity:1"
         d="m 66.446682,58.404532 c 0,2.656888 0,2.656888 0,2.656888"
         id="path1805-99" />
      <path
         style="display:inline;fill:none;stroke:#000000;stroke-width:0.188493px;stroke-linecap:butt;stroke-linejoin:miter;stroke-opacity:1"
         d="m 68.697469,60.966215 c -2.346918,0 -2.346918,0 -2.346918,0"
         id="path1421-9" />
    </g>
    <g
       id="g19137"
       transform="matrix(0.49946097,0,0,0.86216916,-20.297,75.778727)"
       style="display:inline">
      <path
         d="m 65.507357,182.74987 0.08162,-1.55025 0.08162,-2.62751 H 65.09474 q 0.01813,-0.11825 0.02268,-0.24524 h 0.562252 q 0.02268,-0.63499 0.03627,-0.74447 0.02721,-0.2321 0.08162,-0.36347 0.05441,-0.13576 0.140564,-0.2321 0.08615,-0.0963 0.226715,-0.17517 0.145097,-0.0832 0.335538,-0.127 0.19044,-0.0438 0.439828,-0.0438 0.145097,0 0.294729,0.0175 0.154168,0.0175 0.417158,0.0701 0.0091,0.13138 0.04081,0.30217 -0.426226,-0.14451 -0.775366,-0.14451 -0.194976,0 -0.353677,0.0525 -0.154165,0.0481 -0.249387,0.11823 -0.09522,0.0701 -0.163236,0.17956 -0.06347,0.10948 -0.09522,0.24085 -0.03174,0.13138 -0.04535,0.38975 0,0.0525 -0.0136,0.45982 h 1.351222 q -0.01813,0.11386 -0.02268,0.24523 h -1.337624 l -0.10429,4.17777 q -0.117891,-0.004 -0.19044,-0.004 -0.06802,0 -0.185906,0.004 z"
         id="path18860"
         style="font-size:40px;font-family:'Eras Light ITC';-inkscape-font-specification:'Eras Light ITC';white-space:pre;stroke-width:0.228151" />
      <ellipse
         style="opacity:1;fill:none;fill-opacity:0.301205;stroke:#000000;stroke-width:0.264583;stroke-miterlimit:3.9;stroke-dasharray:none;stroke-opacity:1;paint-order:stroke fill markers"
         id="path19053"
         cx="65.229637"
         cy="178.99448"
         rx="0.53203338"
         ry="0.54372644" />
    </g>
    <g
       id="g1557">
      <path
         d="m 0.23964908,289.33185 0.40238687,-0.85163 0.68350645,-1.47588 0.071658,-0.16536 q 0.034451,0.001 0.057878,0.001 0.023427,0 0.057878,-0.001 l -1.01836955,2.18281 -0.13780371,0.31006 q -0.0344509,-0.003 -0.0578776,-0.003 -0.0261827,0 -0.0592565,0.003 z"
         style="font-size:2.82222px;line-height:1.25;font-family:'Eras Light ITC';-inkscape-font-specification:'Eras Light ITC';stroke-width:0.264583"
         id="path12261" />
      <path
         d="m 2.8744562,289.33185 q -0.034451,-0.003 -0.060634,-0.003 -0.024805,0 -0.060634,0.003 l -0.1350476,-0.32108 -0.96187,-2.17179 q 0.035829,0.001 0.059256,0.001 0.024805,0 0.060634,-0.001 l 0.089572,0.21773 0.6917746,1.56958 z"
         style="font-size:2.82222px;line-height:1.25;font-family:'Eras Light ITC';-inkscape-font-specification:'Eras Light ITC';stroke-width:0.264583"
         id="path12263" />
      <path
         d="m 2.5106543,289.33185 0.4023869,-0.85163 0.6835064,-1.47588 0.071658,-0.16536 q 0.034451,0.001 0.057878,0.001 0.023427,0 0.057878,-0.001 l -1.0183695,2.18281 -0.1378037,0.31006 q -0.034451,-0.003 -0.057878,-0.003 -0.026183,0 -0.059256,0.003 z"
         style="font-size:2.82222px;line-height:1.25;font-family:'Eras Light ITC';-inkscape-font-specification:'Eras Light ITC';stroke-width:0.264583"
         id="path12265" />
      <path
         d="m 5.1454613,289.33185 q -0.034451,-0.003 -0.060634,-0.003 -0.024805,0 -0.060634,0.003 l -0.1350477,-0.32108 -0.9618699,-2.17179 q 0.035829,0.001 0.059256,0.001 0.024805,0 0.060634,-0.001 l 0.089572,0.21773 0.6917747,1.56958 z"
         style="font-size:2.82222px;line-height:1.25;font-family:'Eras Light ITC';-inkscape-font-specification:'Eras Light ITC';stroke-width:0.264583"
         id="path12267" />
      <path
         d="m 4.7816595,289.33185 0.4023868,-0.85163 0.6835065,-1.47588 0.071658,-0.16536 q 0.034451,0.001 0.057878,0.001 0.023427,0 0.057878,-0.001 l -1.0183694,2.18281 -0.1378038,0.31006 q -0.034451,-0.003 -0.057878,-0.003 -0.026183,0 -0.059256,0.003 z"
         style="font-size:2.82222px;line-height:1.25;font-family:'Eras Light ITC';-inkscape-font-specification:'Eras Light ITC';stroke-width:0.264583"
         id="path12269" />
      <path
         d="m 7.4164667,289.33185 q -0.034451,-0.003 -0.060634,-0.003 -0.024805,0 -0.060634,0.003 l -0.1350476,-0.32108 -0.9618699,-2.17179 q 0.035829,0.001 0.059256,0.001 0.024805,0 0.060634,-0.001 l 0.089572,0.21773 0.6917747,1.56958 z"
         style="font-size:2.82222px;line-height:1.25;font-family:'Eras Light ITC';-inkscape-font-specification:'Eras Light ITC';stroke-width:0.264583"
         id="path12271" />
      <path
         d="m 7.0526646,289.33185 0.4023869,-0.85163 0.6835064,-1.47588 0.071658,-0.16536 q 0.034451,0.001 0.057878,0.001 0.023427,0 0.057878,-0.001 l -1.0183695,2.18281 -0.1378037,0.31006 q -0.034451,-0.003 -0.057878,-0.003 -0.026183,0 -0.059256,0.003 z"
         style="font-size:2.82222px;line-height:1.25;font-family:'Eras Light ITC';-inkscape-font-specification:'Eras Light ITC';stroke-width:0.264583"
         id="path12273" />
      <path
         d="m 9.6874712,289.33185 q -0.03445,-0.003 -0.06063,-0.003 -0.02481,0 -0.06063,0.003 l -0.135047,-0.32108 -0.9618703,-2.17179 q 0.035829,0.001 0.059255,0.001 0.024805,0 0.060634,-0.001 l 0.089572,0.21773 0.6917746,1.56958 z"
         style="font-size:2.82222px;line-height:1.25;font-family:'Eras Light ITC';-inkscape-font-specification:'Eras Light ITC';stroke-width:0.264583"
         id="path12275" />
      <path
         d="m 9.3236698,289.33185 0.4023864,-0.85163 0.6835068,-1.47588 0.07166,-0.16536 q 0.03445,0.001 0.05788,0.001 0.02343,0 0.05788,-0.001 l -1.0183698,2.18281 -0.137803,0.31006 q -0.03445,-0.003 -0.05788,-0.003 -0.026183,0 -0.059256,0.003 z"
         style="font-size:2.82222px;line-height:1.25;font-family:'Eras Light ITC';-inkscape-font-specification:'Eras Light ITC';stroke-width:0.264583"
         id="path12277" />
      <path
         d="m 11.958477,289.33185 q -0.03445,-0.003 -0.06063,-0.003 -0.0248,0 -0.06063,0.003 l -0.135048,-0.32108 -0.96187,-2.17179 q 0.03583,0.001 0.05926,0.001 0.0248,0 0.06063,-0.001 l 0.08957,0.21773 0.691774,1.56958 z"
         style="font-size:2.82222px;line-height:1.25;font-family:'Eras Light ITC';-inkscape-font-specification:'Eras Light ITC';stroke-width:0.264583"
         id="path12279" />
      <path
         d="m 11.594675,289.33185 0.402387,-0.85163 0.683507,-1.47588 0.07166,-0.16536 q 0.03445,0.001 0.05788,0.001 0.02343,0 0.05788,-0.001 l -1.01837,2.18281 -0.137803,0.31006 q -0.03445,-0.003 -0.05788,-0.003 -0.02618,0 -0.05926,0.003 z"
         style="font-size:2.82222px;line-height:1.25;font-family:'Eras Light ITC';-inkscape-font-specification:'Eras Light ITC';stroke-width:0.264583"
         id="path12281" />
      <path
         d="m 14.229482,289.33185 q -0.03445,-0.003 -0.06063,-0.003 -0.0248,0 -0.06063,0.003 l -0.135047,-0.32108 -0.96187,-2.17179 q 0.03583,0.001 0.05926,0.001 0.02481,0 0.06063,-0.001 l 0.08957,0.21773 0.691774,1.56958 z"
         style="font-size:2.82222px;line-height:1.25;font-family:'Eras Light ITC';-inkscape-font-specification:'Eras Light ITC';stroke-width:0.264583"
         id="path12283" />
      <path
         d="m 13.86568,289.33185 0.402387,-0.85163 0.683506,-1.47588 0.07166,-0.16536 q 0.03445,0.001 0.05788,0.001 0.02343,0 0.05788,-0.001 l -1.018369,2.18281 -0.137804,0.31006 q -0.03445,-0.003 -0.05788,-0.003 -0.02618,0 -0.05926,0.003 z"
         style="font-size:2.82222px;line-height:1.25;font-family:'Eras Light ITC';-inkscape-font-specification:'Eras Light ITC';stroke-width:0.264583"
         id="path12285" />
      <path
         d="m 16.500487,289.33185 q -0.03445,-0.003 -0.06063,-0.003 -0.02481,0 -0.06063,0.003 l -0.135048,-0.32108 -0.96187,-2.17179 q 0.03583,0.001 0.05926,0.001 0.02481,0 0.06063,-0.001 l 0.08957,0.21773 0.691775,1.56958 z"
         style="font-size:2.82222px;line-height:1.25;font-family:'Eras Light ITC';-inkscape-font-specification:'Eras Light ITC';stroke-width:0.264583"
         id="path12287" />
      <path
         d="m 16.136685,289.33185 0.402387,-0.85163 0.683506,-1.47588 0.07166,-0.16536 q 0.03445,0.001 0.05788,0.001 0.02343,0 0.05788,-0.001 l -1.018369,2.18281 -0.137804,0.31006 q -0.03445,-0.003 -0.05788,-0.003 -0.02618,0 -0.05926,0.003 z"
         style="font-size:2.82222px;line-height:1.25;font-family:'Eras Light ITC';-inkscape-font-specification:'Eras Light ITC';stroke-width:0.264583"
         id="path12289" />
      <path
         d="m 18.771493,289.33185 q -0.03445,-0.003 -0.06063,-0.003 -0.0248,0 -0.06063,0.003 l -0.135048,-0.32108 -0.96187,-2.17179 q 0.03583,0.001 0.05926,0.001 0.0248,0 0.06063,-0.001 l 0.08957,0.21773 0.691774,1.56958 z"
         style="font-size:2.82222px;line-height:1.25;font-family:'Eras Light ITC';-inkscape-font-specification:'Eras Light ITC';stroke-width:0.264583"
         id="path12291" />
      <path
         d="m 18.40769,289.33185 0.402387,-0.85163 0.683507,-1.47588 0.07166,-0.16536 q 0.03445,0.001 0.05788,0.001 0.02343,0 0.05788,-0.001 l -1.01837,2.18281 -0.137803,0.31006 q -0.03445,-0.003 -0.05788,-0.003 -0.02618,0 -0.05926,0.003 z"
         style="font-size:2.82222px;line-height:1.25;font-family:'Eras Light ITC';-inkscape-font-specification:'Eras Light ITC';stroke-width:0.264583"
         id="path12293" />
      <path
         d="m 21.042497,289.33185 q -0.03445,-0.003 -0.06063,-0.003 -0.02481,0 -0.06063,0.003 l -0.135047,-0.32108 -0.96187,-2.17179 q 0.03583,0.001 0.05926,0.001 0.02481,0 0.06063,-0.001 l 0.08957,0.21773 0.691775,1.56958 z"
         style="font-size:2.82222px;line-height:1.25;font-family:'Eras Light ITC';-inkscape-font-specification:'Eras Light ITC';stroke-width:0.264583"
         id="path12295" />
      <path
         d="m 20.678696,289.33185 0.402387,-0.85163 0.683506,-1.47588 0.07166,-0.16536 q 0.03445,0.001 0.05788,0.001 0.02343,0 0.05788,-0.001 l -1.018369,2.18281 -0.137804,0.31006 q -0.03445,-0.003 -0.05788,-0.003 -0.02618,0 -0.05926,0.003 z"
         style="font-size:2.82222px;line-height:1.25;font-family:'Eras Light ITC';-inkscape-font-specification:'Eras Light ITC';stroke-width:0.264583"
         id="path12297" />
      <path
         d="m 23.313502,289.33185 q -0.03445,-0.003 -0.06063,-0.003 -0.02481,0 -0.06063,0.003 l -0.135048,-0.32108 -0.96187,-2.17179 q 0.03583,0.001 0.05926,0.001 0.02481,0 0.06063,-0.001 l 0.08957,0.21773 0.691775,1.56958 z"
         style="font-size:2.82222px;line-height:1.25;font-family:'Eras Light ITC';-inkscape-font-specification:'Eras Light ITC';stroke-width:0.264583"
         id="path12299" />
      <path
         d="m 22.949702,289.33185 0.402387,-0.85163 0.683506,-1.47588 0.07166,-0.16536 q 0.03445,0.001 0.05788,0.001 0.02343,0 0.05788,-0.001 l -1.018369,2.18281 -0.137804,0.31006 q -0.03445,-0.003 -0.05788,-0.003 -0.02618,0 -0.05926,0.003 z"
         style="font-size:2.82222px;line-height:1.25;font-family:'Eras Light ITC';-inkscape-font-specification:'Eras Light ITC';stroke-width:0.264583"
         id="path12301" />
      <path
         d="m 25.584508,289.33185 q -0.03445,-0.003 -0.06063,-0.003 -0.0248,0 -0.06063,0.003 l -0.135048,-0.32108 -0.96187,-2.17179 q 0.03583,0.001 0.05926,0.001 0.0248,0 0.06063,-0.001 l 0.08957,0.21773 0.691774,1.56958 z"
         style="font-size:2.82222px;line-height:1.25;font-family:'Eras Light ITC';-inkscape-font-specification:'Eras Light ITC';stroke-width:0.264583"
         id="path12303" />
      <path
         d="m 25.220705,289.33185 0.402387,-0.85163 0.683507,-1.47588 0.07166,-0.16536 q 0.03445,0.001 0.05788,0.001 0.02343,0 0.05788,-0.001 l -1.01837,2.18281 -0.137803,0.31006 q -0.03445,-0.003 -0.05788,-0.003 -0.02618,0 -0.05926,0.003 z"
         style="font-size:2.82222px;line-height:1.25;font-family:'Eras Light ITC';-inkscape-font-specification:'Eras Light ITC';stroke-width:0.264583"
         id="path12305" />
      <path
         d="m 27.855514,289.33185 q -0.03445,-0.003 -0.06063,-0.003 -0.02481,0 -0.06063,0.003 l -0.135047,-0.32108 -0.96187,-2.17179 q 0.03583,0.001 0.05925,0.001 0.02481,0 0.06063,-0.001 l 0.08957,0.21773 0.691775,1.56958 z"
         style="font-size:2.82222px;line-height:1.25;font-family:'Eras Light ITC';-inkscape-font-specification:'Eras Light ITC';stroke-width:0.264583"
         id="path12307" />
      <path
         d="m 27.491711,289.33185 0.402387,-0.85163 0.683506,-1.47588 0.07166,-0.16536 q 0.03445,0.001 0.05788,0.001 0.02343,0 0.05788,-0.001 l -1.018369,2.18281 -0.137804,0.31006 q -0.03445,-0.003 -0.05788,-0.003 -0.02618,0 -0.05926,0.003 z"
         style="font-size:2.82222px;line-height:1.25;font-family:'Eras Light ITC';-inkscape-font-specification:'Eras Light ITC';stroke-width:0.264583"
         id="path12309" />
      <path
         d="m 30.126517,289.33185 q -0.03445,-0.003 -0.06063,-0.003 -0.02481,0 -0.06063,0.003 l -0.135048,-0.32108 -0.96187,-2.17179 q 0.03583,0.001 0.05926,0.001 0.02481,0 0.06063,-0.001 l 0.08957,0.21773 0.691775,1.56958 z"
         style="font-size:2.82222px;line-height:1.25;font-family:'Eras Light ITC';-inkscape-font-specification:'Eras Light ITC';stroke-width:0.264583"
         id="path12311" />
      <path
         d="m 29.757502,289.33185 0.402387,-0.85163 0.683507,-1.47588 0.07166,-0.16536 q 0.03445,0.001 0.05788,0.001 0.02343,0 0.05788,-0.001 l -1.01837,2.18281 -0.137804,0.31006 q -0.03445,-0.003 -0.05788,-0.003 -0.02618,0 -0.05926,0.003 z"
         style="font-size:2.82222px;line-height:1.25;font-family:'Eras Light ITC';-inkscape-font-specification:'Eras Light ITC';stroke-width:0.264583"
         id="path2065" />
      <path
         d="m 32.392309,289.33185 q -0.03445,-0.003 -0.06063,-0.003 -0.02481,0 -0.06063,0.003 l -0.135047,-0.32108 -0.96187,-2.17179 q 0.03583,0.001 0.05926,0.001 0.02481,0 0.06063,-0.001 l 0.08957,0.21773 0.691774,1.56958 z"
         style="font-size:2.82222px;line-height:1.25;font-family:'Eras Light ITC';-inkscape-font-specification:'Eras Light ITC';stroke-width:0.264583"
         id="path2067" />
      <path
         d="m 32.028508,289.33185 0.402386,-0.85163 0.683507,-1.47588 0.07166,-0.16536 q 0.03445,0.001 0.05788,0.001 0.02343,0 0.05788,-0.001 l -1.01837,2.18281 -0.137803,0.31006 q -0.03445,-0.003 -0.05788,-0.003 -0.02618,0 -0.05926,0.003 z"
         style="font-size:2.82222px;line-height:1.25;font-family:'Eras Light ITC';-inkscape-font-specification:'Eras Light ITC';stroke-width:0.264583"
         id="path2069" />
      <path
         d="m 34.663315,289.33185 q -0.03445,-0.003 -0.06063,-0.003 -0.02481,0 -0.06063,0.003 l -0.135048,-0.32108 -0.96187,-2.17179 q 0.03583,0.001 0.05926,0.001 0.02481,0 0.06063,-0.001 l 0.08957,0.21773 0.691775,1.56958 z"
         style="font-size:2.82222px;line-height:1.25;font-family:'Eras Light ITC';-inkscape-font-specification:'Eras Light ITC';stroke-width:0.264583"
         id="path2071" />
      <path
         d="m 34.299513,289.33185 0.402387,-0.85163 0.683506,-1.47588 0.07166,-0.16536 q 0.03445,0.001 0.05788,0.001 0.02343,0 0.05788,-0.001 l -1.018369,2.18281 -0.137804,0.31006 q -0.03445,-0.003 -0.05788,-0.003 -0.02618,0 -0.05926,0.003 z"
         style="font-size:2.82222px;line-height:1.25;font-family:'Eras Light ITC';-inkscape-font-specification:'Eras Light ITC';stroke-width:0.264583"
         id="path2073" />
      <path
         d="m 36.93432,289.33185 q -0.03445,-0.003 -0.06063,-0.003 -0.02481,0 -0.06063,0.003 l -0.135048,-0.32108 -0.96187,-2.17179 q 0.03583,0.001 0.05926,0.001 0.02481,0 0.06063,-0.001 l 0.08957,0.21773 0.691775,1.56958 z"
         style="font-size:2.82222px;line-height:1.25;font-family:'Eras Light ITC';-inkscape-font-specification:'Eras Light ITC';stroke-width:0.264583"
         id="path2075" />
      <path
         d="m 36.570518,289.33185 0.402387,-0.85163 0.683506,-1.47588 0.07166,-0.16536 q 0.03445,0.001 0.05788,0.001 0.02343,0 0.05788,-0.001 l -1.018369,2.18281 -0.137804,0.31006 q -0.03445,-0.003 -0.05788,-0.003 -0.02618,0 -0.05926,0.003 z"
         style="font-size:2.82222px;line-height:1.25;font-family:'Eras Light ITC';-inkscape-font-specification:'Eras Light ITC';stroke-width:0.264583"
         id="path2077" />
      <path
         d="m 39.205325,289.33185 q -0.03445,-0.003 -0.06063,-0.003 -0.02481,0 -0.06063,0.003 l -0.135048,-0.32108 -0.96187,-2.17179 q 0.03583,0.001 0.05926,0.001 0.02481,0 0.06063,-0.001 l 0.08957,0.21773 0.691775,1.56958 z"
         style="font-size:2.82222px;line-height:1.25;font-family:'Eras Light ITC';-inkscape-font-specification:'Eras Light ITC';stroke-width:0.264583"
         id="path2079" />
      <path
         d="m 38.841523,289.33185 0.402387,-0.85163 0.683506,-1.47588 0.07166,-0.16536 q 0.03445,0.001 0.05788,0.001 0.02343,0 0.05788,-0.001 l -1.018369,2.18281 -0.137804,0.31006 q -0.03445,-0.003 -0.05788,-0.003 -0.02618,0 -0.05926,0.003 z"
         style="font-size:2.82222px;line-height:1.25;font-family:'Eras Light ITC';-inkscape-font-specification:'Eras Light ITC';stroke-width:0.264583"
         id="path2081" />
      <path
         d="m 41.47633,289.33185 q -0.03445,-0.003 -0.06063,-0.003 -0.0248,0 -0.06063,0.003 l -0.135048,-0.32108 -0.96187,-2.17179 q 0.03583,0.001 0.05926,0.001 0.0248,0 0.06063,-0.001 l 0.08957,0.21773 0.691774,1.56958 z"
         style="font-size:2.82222px;line-height:1.25;font-family:'Eras Light ITC';-inkscape-font-specification:'Eras Light ITC';stroke-width:0.264583"
         id="path2083" />
      <path
         d="m 41.112528,289.33185 0.402387,-0.85163 0.683507,-1.47588 0.07166,-0.16536 q 0.03445,0.001 0.05788,0.001 0.02343,0 0.05788,-0.001 l -1.01837,2.18281 -0.137803,0.31006 q -0.03445,-0.003 -0.05788,-0.003 -0.02618,0 -0.05926,0.003 z"
         style="font-size:2.82222px;line-height:1.25;font-family:'Eras Light ITC';-inkscape-font-specification:'Eras Light ITC';stroke-width:0.264583"
         id="path2085" />
      <path
         d="m 43.747335,289.33185 q -0.03445,-0.003 -0.06063,-0.003 -0.0248,0 -0.06063,0.003 l -0.135047,-0.32108 -0.96187,-2.17179 q 0.03583,0.001 0.05926,0.001 0.02481,0 0.06063,-0.001 l 0.08957,0.21773 0.691774,1.56958 z"
         style="font-size:2.82222px;line-height:1.25;font-family:'Eras Light ITC';-inkscape-font-specification:'Eras Light ITC';stroke-width:0.264583"
         id="path2087" />
      <path
         d="m 43.383533,289.33185 0.402387,-0.85163 0.683506,-1.47588 0.07166,-0.16536 q 0.03445,0.001 0.05788,0.001 0.02343,0 0.05788,-0.001 l -1.018369,2.18281 -0.137804,0.31006 q -0.03445,-0.003 -0.05788,-0.003 -0.02618,0 -0.05926,0.003 z"
         style="font-size:2.82222px;line-height:1.25;font-family:'Eras Light ITC';-inkscape-font-specification:'Eras Light ITC';stroke-width:0.264583"
         id="path2089" />
      <path
         d="m 46.01834,289.33185 q -0.03445,-0.003 -0.06063,-0.003 -0.02481,0 -0.06063,0.003 l -0.135048,-0.32108 -0.96187,-2.17179 q 0.03583,0.001 0.05926,0.001 0.02481,0 0.06063,-0.001 l 0.08957,0.21773 0.691775,1.56958 z"
         style="font-size:2.82222px;line-height:1.25;font-family:'Eras Light ITC';-inkscape-font-specification:'Eras Light ITC';stroke-width:0.264583"
         id="path2091" />
      <path
         d="m 45.654538,289.33185 0.402387,-0.85163 0.683506,-1.47588 0.07166,-0.16536 q 0.03445,0.001 0.05788,0.001 0.02343,0 0.05788,-0.001 l -1.018369,2.18281 -0.137804,0.31006 q -0.03445,-0.003 -0.05788,-0.003 -0.02618,0 -0.05926,0.003 z"
         style="font-size:2.82222px;line-height:1.25;font-family:'Eras Light ITC';-inkscape-font-specification:'Eras Light ITC';stroke-width:0.264583"
         id="path2093" />
      <path
         d="m 48.289346,289.33185 q -0.03445,-0.003 -0.06063,-0.003 -0.0248,0 -0.06063,0.003 l -0.135048,-0.32108 -0.96187,-2.17179 q 0.03583,0.001 0.05926,0.001 0.0248,0 0.06063,-0.001 l 0.08957,0.21773 0.691774,1.56958 z"
         style="font-size:2.82222px;line-height:1.25;font-family:'Eras Light ITC';-inkscape-font-specification:'Eras Light ITC';stroke-width:0.264583"
         id="path2095" />
      <path
         d="m 47.925543,289.33185 0.402387,-0.85163 0.683507,-1.47588 0.07166,-0.16536 q 0.03445,0.001 0.05788,0.001 0.02343,0 0.05788,-0.001 l -1.01837,2.18281 -0.137803,0.31006 q -0.03445,-0.003 -0.05788,-0.003 -0.02618,0 -0.05926,0.003 z"
         style="font-size:2.82222px;line-height:1.25;font-family:'Eras Light ITC';-inkscape-font-specification:'Eras Light ITC';stroke-width:0.264583"
         id="path2097" />
      <path
         d="m 50.56035,289.33185 q -0.03445,-0.003 -0.06063,-0.003 -0.02481,0 -0.06063,0.003 l -0.135047,-0.32108 -0.96187,-2.17179 q 0.03583,0.001 0.05926,0.001 0.02481,0 0.06063,-0.001 l 0.08957,0.21773 0.691775,1.56958 z"
         style="font-size:2.82222px;line-height:1.25;font-family:'Eras Light ITC';-inkscape-font-specification:'Eras Light ITC';stroke-width:0.264583"
         id="path2099" />
    </g>
    <path
       style="color:#000000;display:inline;fill:#000000;stroke-dasharray:1.05833, 0.264583;-inkscape-stroke:none"
       d="m 37.876578,188.81053 -0.1875,0.1875 0.748047,0.74804 0.1875,-0.18554 z m 0.935547,0.93554 -0.1875,0.1875 0.748046,0.74805 0.1875,-0.18555 z m 0.935546,0.93555 -0.1875,0.1875 0.748047,0.74805 0.1875,-0.1875 z m 0.933594,0.93555 -0.185547,0.1875 0.748047,0.74804 0.1875,-0.1875 z m 0.935547,0.93554 -0.185547,0.1875 0.748047,0.74805 0.1875,-0.1875 z m 0.935547,0.93555 -0.185547,0.1875 0.748047,0.74805 0.1875,-0.1875 z m 0.935547,0.93555 -0.185547,0.1875 0.748047,0.74804 0.185547,-0.1875 z m 0.935547,0.93554 -0.1875,0.1875 0.396484,0.39454 0.1875,-0.1875 z"
       id="path2096" />
    <path
       style="color:#000000;display:inline;fill:#000000;stroke-dasharray:1.05833, 0.264583;-inkscape-stroke:none"
       d="m 45.589468,200.20701 -0.273437,1.02149 0.255859,0.0684 0.273438,-1.02149 z m -0.341797,1.27734 -0.273437,1.02149 0.253906,0.0703 0.275391,-1.02344 z m -0.341796,1.27735 -0.275391,1.02344 0.255859,0.0684 0.273438,-1.02344 z m -0.34375,1.2793 -0.273438,1.02148 0.255859,0.0684 0.273438,-1.02148 z m -0.341797,1.27734 -0.273438,1.02148 0.25586,0.0684 0.273437,-1.02148 z m -0.341797,1.27734 -0.275391,1.02344 0.25586,0.0684 0.273437,-1.02344 z m -0.34375,1.27735 -0.273438,1.02343 0.25586,0.0684 0.273437,-1.02343 z m -0.341797,1.27929 -0.273438,1.02149 0.25586,0.0684 0.273437,-1.02149 z m -0.341797,1.27735 -0.103516,0.38476 0.25586,0.0684 0.103515,-0.38476 z"
       id="path2098" />
    <path
       style="color:#000000;display:inline;fill:#000000;stroke-dasharray:1.05833, 0.264583;-inkscape-stroke:none"
       d="m 13.251286,188.81053 -0.748047,0.75 0.1875,0.18554 0.748047,-0.74804 z m -0.935547,0.93554 -0.748047,0.75 0.1875,0.18555 0.748047,-0.74805 z m -0.935547,0.93555 -0.748047,0.74805 0.1875,0.1875 0.748047,-0.74805 z m -0.935547,0.93555 -0.7480474,0.74804 0.1875,0.1875 0.7480474,-0.74804 z m -0.9355474,0.93554 -0.7480467,0.74805 0.1875,0.1875 0.7480467,-0.74805 z m -0.9355467,0.93555 -0.7480469,0.74805 0.1875,0.1875 0.7480469,-0.74805 z m -0.9355469,0.93555 -0.7480469,0.74804 0.1875,0.1875 0.7480469,-0.74804 z m -0.9335938,0.93554 -0.3964844,0.39454 0.1875,0.1875 0.3945313,-0.39454 z"
       id="path2180" />
    <path
       style="color:#000000;display:inline;fill:#000000;stroke-dasharray:1.05833, 0.264583;-inkscape-stroke:none"
       d="m 5.5383946,200.20701 -0.2558594,0.0684 0.2734375,1.02148 0.2558594,-0.0684 z m 0.3417969,1.27734 -0.2558594,0.0684 0.2734375,1.02344 0.2558594,-0.0703 z m 0.3417968,1.27735 -0.2558593,0.0684 0.2753906,1.02344 0.2539062,-0.0684 z m 0.34375,1.2793 -0.2558593,0.0684 0.2734375,1.02148 0.2558593,-0.0684 z m 0.3417969,1.27734 -0.2558594,0.0684 0.2734375,1.02148 0.2558594,-0.0684 z m 0.3417969,1.27734 -0.2558594,0.0684 0.2753907,1.02344 0.2539062,-0.0684 z m 0.3417969,1.27735 -0.2539063,0.0684 0.2734375,1.02343 0.2558594,-0.0684 z m 0.34375,1.27929 -0.2558594,0.0684 0.2734375,1.02149 0.2558594,-0.0684 z m 0.3417969,1.27735 -0.2558594,0.0684 0.1035156,0.38476 0.2558594,-0.0684 z"
       id="path2182" />
    <path
       d="m 0.21868003,178.16377 0.40238681,-0.85163 0.68350636,-1.47587 0.071658,-0.16537 q 0.034451,0.001 0.057878,0.001 0.023427,0 0.057878,-0.001 l -1.01836936,2.18281 -0.13780375,0.31006 q -0.0344509,-0.003 -0.0578776,-0.003 -0.0261827,0 -0.0592565,0.003 z"
       style="font-size:2.82222px;-inkscape-font-specification:'Eras Light ITC';stroke-width:0.264583"
       id="path12334" />
    <path
       d="m 2.853487,178.16377 q -0.034451,-0.003 -0.060634,-0.003 -0.024805,0 -0.060634,0.003 l -0.1350476,-0.32108 -0.96187,-2.17179 q 0.035829,0.001 0.059256,0.001 0.024805,0 0.060634,-0.001 l 0.089572,0.21773 0.6917746,1.56959 z"
       style="font-size:2.82222px;-inkscape-font-specification:'Eras Light ITC';stroke-width:0.264583"
       id="path12336" />
    <path
       d="m 2.4896851,178.16377 0.4023869,-0.85163 0.6835064,-1.47587 0.071658,-0.16537 q 0.034451,0.001 0.057878,0.001 0.023427,0 0.057878,-0.001 l -1.0183695,2.18281 -0.1378037,0.31006 q -0.034451,-0.003 -0.057878,-0.003 -0.026183,0 -0.059256,0.003 z"
       style="font-size:2.82222px;-inkscape-font-specification:'Eras Light ITC';stroke-width:0.264583"
       id="path12338" />
    <path
       d="m 5.1244921,178.16377 q -0.034451,-0.003 -0.060634,-0.003 -0.024805,0 -0.060634,0.003 L 4.8681764,177.84269 3.9063065,175.6709 q 0.035829,0.001 0.059256,0.001 0.024805,0 0.060634,-0.001 l 0.089572,0.21773 0.6917747,1.56959 z"
       style="font-size:2.82222px;-inkscape-font-specification:'Eras Light ITC';stroke-width:0.264583"
       id="path12340" />
    <path
       d="m 4.7606903,178.16377 0.4023868,-0.85163 0.6835065,-1.47587 0.071658,-0.16537 q 0.034451,0.001 0.057878,0.001 0.023427,0 0.057878,-0.001 l -1.0183694,2.18281 -0.1378038,0.31006 q -0.034451,-0.003 -0.057878,-0.003 -0.026183,0 -0.059256,0.003 z"
       style="font-size:2.82222px;-inkscape-font-specification:'Eras Light ITC';stroke-width:0.264583"
       id="path12342" />
    <path
       d="m 7.3954975,178.16377 q -0.034451,-0.003 -0.060634,-0.003 -0.024805,0 -0.060634,0.003 L 7.1391819,177.84269 6.177312,175.6709 q 0.035829,0.001 0.059256,0.001 0.024805,0 0.060634,-0.001 l 0.089572,0.21773 0.6917747,1.56959 z"
       style="font-size:2.82222px;-inkscape-font-specification:'Eras Light ITC';stroke-width:0.264583"
       id="path12344" />
    <path
       d="m 7.0316954,178.16377 0.4023869,-0.85163 0.6835064,-1.47587 0.071658,-0.16537 q 0.034451,0.001 0.057878,0.001 0.023427,0 0.057878,-0.001 l -1.0183695,2.18281 -0.1378037,0.31006 q -0.034451,-0.003 -0.057878,-0.003 -0.026183,0 -0.059256,0.003 z"
       style="font-size:2.82222px;-inkscape-font-specification:'Eras Light ITC';stroke-width:0.264583"
       id="path12346" />
    <path
       d="m 9.6665024,178.16377 q -0.03445,-0.003 -0.06063,-0.003 -0.02481,0 -0.06063,0.003 L 9.4101866,177.84269 8.4483167,175.6709 q 0.035829,0.001 0.059255,0.001 0.024805,0 0.060634,-0.001 l 0.089572,0.21773 0.6917746,1.56959 z"
       style="font-size:2.82222px;-inkscape-font-specification:'Eras Light ITC';stroke-width:0.264583"
       id="path12348" />
    <path
       d="m 9.3027006,178.16377 0.4023868,-0.85163 0.6835056,-1.47587 0.07166,-0.16537 q 0.03445,0.001 0.05788,0.001 0.02343,0 0.05788,-0.001 l -1.0183686,2.18281 -0.1378037,0.31006 q -0.034451,-0.003 -0.057878,-0.003 -0.026183,0 -0.059256,0.003 z"
       style="font-size:2.82222px;-inkscape-font-specification:'Eras Light ITC';stroke-width:0.264583"
       id="path12350" />
    <path
       d="m 11.937507,178.16377 q -0.03445,-0.003 -0.06063,-0.003 -0.0248,0 -0.06063,0.003 l -0.135048,-0.32108 -0.96187,-2.17179 q 0.03583,0.001 0.05926,0.001 0.0248,0 0.06063,-0.001 l 0.08957,0.21773 0.691774,1.56959 z"
       style="font-size:2.82222px;-inkscape-font-specification:'Eras Light ITC';stroke-width:0.264583"
       id="path12352" />
    <path
       d="m 11.573705,178.16377 0.402387,-0.85163 0.683507,-1.47587 0.07166,-0.16537 q 0.03445,0.001 0.05788,0.001 0.02343,0 0.05788,-0.001 l -1.01837,2.18281 -0.137803,0.31006 q -0.03445,-0.003 -0.05788,-0.003 -0.02618,0 -0.05926,0.003 z"
       style="font-size:2.82222px;-inkscape-font-specification:'Eras Light ITC';stroke-width:0.264583"
       id="path12354" />
    <path
       d="m 14.208512,178.16377 q -0.03445,-0.003 -0.06063,-0.003 -0.0248,0 -0.06063,0.003 l -0.135047,-0.32108 -0.96187,-2.17179 q 0.03583,0.001 0.05926,0.001 0.02481,0 0.06063,-0.001 l 0.08957,0.21773 0.691774,1.56959 z"
       style="font-size:2.82222px;-inkscape-font-specification:'Eras Light ITC';stroke-width:0.264583"
       id="path12356" />
    <path
       d="m 13.84471,178.16377 0.402387,-0.85163 0.683506,-1.47587 0.07166,-0.16537 q 0.03445,0.001 0.05788,0.001 0.02343,0 0.05788,-0.001 l -1.018369,2.18281 -0.137804,0.31006 q -0.03445,-0.003 -0.05788,-0.003 -0.02618,0 -0.05926,0.003 z"
       style="font-size:2.82222px;-inkscape-font-specification:'Eras Light ITC';stroke-width:0.264583"
       id="path12358" />
    <path
       d="m 16.479517,178.16377 q -0.03445,-0.003 -0.06063,-0.003 -0.02481,0 -0.06063,0.003 l -0.135048,-0.32108 -0.96187,-2.17179 q 0.03583,0.001 0.05926,0.001 0.02481,0 0.06063,-0.001 l 0.08957,0.21773 0.691775,1.56959 z"
       style="font-size:2.82222px;-inkscape-font-specification:'Eras Light ITC';stroke-width:0.264583"
       id="path12360" />
    <path
       d="m 16.115715,178.16377 0.402387,-0.85163 0.683506,-1.47587 0.07166,-0.16537 q 0.03445,0.001 0.05788,0.001 0.02343,0 0.05788,-0.001 l -1.018369,2.18281 -0.137804,0.31006 q -0.03445,-0.003 -0.05788,-0.003 -0.02618,0 -0.05926,0.003 z"
       style="font-size:2.82222px;-inkscape-font-specification:'Eras Light ITC';stroke-width:0.264583"
       id="path12362" />
    <path
       d="m 18.750523,178.16377 q -0.03445,-0.003 -0.06063,-0.003 -0.0248,0 -0.06063,0.003 l -0.135048,-0.32108 -0.96187,-2.17179 q 0.03583,0.001 0.05926,0.001 0.0248,0 0.06063,-0.001 l 0.08957,0.21773 0.691774,1.56959 z"
       style="font-size:2.82222px;-inkscape-font-specification:'Eras Light ITC';stroke-width:0.264583"
       id="path12364" />
    <path
       d="m 18.38672,178.16377 0.402387,-0.85163 0.683507,-1.47587 0.07166,-0.16537 q 0.03445,0.001 0.05788,0.001 0.02343,0 0.05788,-0.001 l -1.01837,2.18281 -0.137803,0.31006 q -0.03445,-0.003 -0.05788,-0.003 -0.02618,0 -0.05926,0.003 z"
       style="font-size:2.82222px;-inkscape-font-specification:'Eras Light ITC';stroke-width:0.264583"
       id="path12366" />
    <path
       d="m 21.021527,178.16377 q -0.03445,-0.003 -0.06063,-0.003 -0.02481,0 -0.06063,0.003 l -0.135047,-0.32108 -0.96187,-2.17179 q 0.03583,0.001 0.05926,0.001 0.02481,0 0.06063,-0.001 l 0.08957,0.21773 0.691775,1.56959 z"
       style="font-size:2.82222px;-inkscape-font-specification:'Eras Light ITC';stroke-width:0.264583"
       id="path12368" />
    <path
       d="m 20.657726,178.16377 0.402387,-0.85163 0.683506,-1.47587 0.07166,-0.16537 q 0.03445,0.001 0.05788,0.001 0.02343,0 0.05788,-0.001 l -1.018369,2.18281 -0.137804,0.31006 q -0.03445,-0.003 -0.05788,-0.003 -0.02618,0 -0.05926,0.003 z"
       style="font-size:2.82222px;-inkscape-font-specification:'Eras Light ITC';stroke-width:0.264583"
       id="path12370" />
    <path
       d="m 23.292532,178.16377 q -0.03445,-0.003 -0.06063,-0.003 -0.02481,0 -0.06063,0.003 l -0.135048,-0.32108 -0.96187,-2.17179 q 0.03583,0.001 0.05926,0.001 0.02481,0 0.06063,-0.001 l 0.08957,0.21773 0.691775,1.56959 z"
       style="font-size:2.82222px;-inkscape-font-specification:'Eras Light ITC';stroke-width:0.264583"
       id="path12372" />
    <path
       d="m 22.928732,178.16377 0.402387,-0.85163 0.683506,-1.47587 0.07166,-0.16537 q 0.03445,0.001 0.05788,0.001 0.02343,0 0.05788,-0.001 l -1.018369,2.18281 -0.137804,0.31006 q -0.03445,-0.003 -0.05788,-0.003 -0.02618,0 -0.05926,0.003 z"
       style="font-size:2.82222px;-inkscape-font-specification:'Eras Light ITC';stroke-width:0.264583"
       id="path12374" />
    <path
       d="m 25.563538,178.16377 q -0.03445,-0.003 -0.06063,-0.003 -0.0248,0 -0.06063,0.003 l -0.135048,-0.32108 -0.96187,-2.17179 q 0.03583,0.001 0.05926,0.001 0.0248,0 0.06063,-0.001 l 0.08957,0.21773 0.691774,1.56959 z"
       style="font-size:2.82222px;-inkscape-font-specification:'Eras Light ITC';stroke-width:0.264583"
       id="path12376" />
    <path
       d="m 25.199735,178.16377 0.402387,-0.85163 0.683507,-1.47587 0.07166,-0.16537 q 0.03445,0.001 0.05788,0.001 0.02343,0 0.05788,-0.001 l -1.01837,2.18281 -0.137803,0.31006 q -0.03445,-0.003 -0.05788,-0.003 -0.02618,0 -0.05926,0.003 z"
       style="font-size:2.82222px;-inkscape-font-specification:'Eras Light ITC';stroke-width:0.264583"
       id="path12378" />
    <path
       d="m 27.834544,178.16377 q -0.03445,-0.003 -0.06063,-0.003 -0.02481,0 -0.06063,0.003 l -0.135047,-0.32108 -0.96187,-2.17179 q 0.03583,0.001 0.05925,0.001 0.02481,0 0.06063,-0.001 l 0.08957,0.21773 0.691775,1.56959 z"
       style="font-size:2.82222px;-inkscape-font-specification:'Eras Light ITC';stroke-width:0.264583"
       id="path12380" />
    <path
       d="m 27.470741,178.16377 0.402387,-0.85163 0.683506,-1.47587 0.07166,-0.16537 q 0.03445,0.001 0.05788,0.001 0.02343,0 0.05788,-0.001 l -1.018369,2.18281 -0.137804,0.31006 q -0.03445,-0.003 -0.05788,-0.003 -0.02618,0 -0.05926,0.003 z"
       style="font-size:2.82222px;-inkscape-font-specification:'Eras Light ITC';stroke-width:0.264583"
       id="path12382" />
    <path
       d="m 30.105547,178.16377 q -0.03445,-0.003 -0.06063,-0.003 -0.02481,0 -0.06063,0.003 l -0.135048,-0.32108 -0.96187,-2.17179 q 0.03583,0.001 0.05926,0.001 0.02481,0 0.06063,-0.001 l 0.08957,0.21773 0.691775,1.56959 z"
       style="font-size:2.82222px;-inkscape-font-specification:'Eras Light ITC';stroke-width:0.264583"
       id="path12384" />
    <path
       d="m 30.167282,173.16598 -0.402386,0.85163 -0.683507,1.47587 -0.07166,0.16537 q -0.03445,-0.001 -0.05788,-0.001 -0.02343,0 -0.05788,0.001 l 1.01837,-2.18281 0.137803,-0.31006 q 0.03445,0.003 0.05788,0.003 0.02618,0 0.05926,-0.003 z"
       style="font-size:2.82222px;-inkscape-font-specification:'Eras Light ITC';stroke-width:0.264583"
       id="path12439" />
    <path
       d="m 27.532475,173.16598 q 0.03445,0.003 0.06063,0.003 0.02481,0 0.06063,-0.003 l 0.135047,0.32108 0.96187,2.17179 q -0.03583,-0.001 -0.05926,-0.001 -0.0248,0 -0.06063,0.001 l -0.08957,-0.21773 -0.691775,-1.56959 z"
       style="font-size:2.82222px;-inkscape-font-specification:'Eras Light ITC';stroke-width:0.264583"
       id="path12441" />
    <path
       d="m 27.896277,173.16598 -0.402387,0.85163 -0.683506,1.47587 -0.07166,0.16537 q -0.03445,-0.001 -0.05788,-0.001 -0.02343,0 -0.05788,0.001 l 1.018369,-2.18281 0.137804,-0.31006 q 0.03445,0.003 0.05788,0.003 0.02618,0 0.05926,-0.003 z"
       style="font-size:2.82222px;-inkscape-font-specification:'Eras Light ITC';stroke-width:0.264583"
       id="path12443" />
    <path
       d="m 25.26147,173.16598 q 0.03445,0.003 0.06063,0.003 0.02481,0 0.06063,-0.003 l 0.135047,0.32108 0.96187,2.17179 q -0.03583,-0.001 -0.05926,-0.001 -0.0248,0 -0.06063,0.001 l -0.08957,-0.21773 -0.691774,-1.56959 z"
       style="font-size:2.82222px;-inkscape-font-specification:'Eras Light ITC';stroke-width:0.264583"
       id="path12445" />
    <path
       d="m 25.625272,173.16598 -0.402387,0.85163 -0.683506,1.47587 -0.07166,0.16537 q -0.03445,-0.001 -0.05788,-0.001 -0.02343,0 -0.05788,0.001 l 1.018369,-2.18281 0.137804,-0.31006 q 0.03445,0.003 0.05788,0.003 0.02618,0 0.05926,-0.003 z"
       style="font-size:2.82222px;-inkscape-font-specification:'Eras Light ITC';stroke-width:0.264583"
       id="path12447" />
    <path
       d="m 22.990465,173.16598 q 0.03445,0.003 0.06063,0.003 0.02481,0 0.06063,-0.003 l 0.135048,0.32108 0.96187,2.17179 q -0.03583,-0.001 -0.05926,-0.001 -0.02481,0 -0.06063,0.001 l -0.08957,-0.21773 -0.691775,-1.56959 z"
       style="font-size:2.82222px;-inkscape-font-specification:'Eras Light ITC';stroke-width:0.264583"
       id="path12449" />
    <path
       d="m 23.354267,173.16598 -0.402387,0.85163 -0.683506,1.47587 -0.07166,0.16537 q -0.03445,-0.001 -0.05788,-0.001 -0.02343,0 -0.05788,0.001 l 1.018369,-2.18281 0.137804,-0.31006 q 0.03445,0.003 0.05788,0.003 0.02618,0 0.05926,-0.003 z"
       style="font-size:2.82222px;-inkscape-font-specification:'Eras Light ITC';stroke-width:0.264583"
       id="path12451" />
    <path
       d="m 20.71946,173.16598 q 0.03445,0.003 0.06063,0.003 0.0248,0 0.06063,-0.003 l 0.135048,0.32108 0.96187,2.17179 q -0.03583,-0.001 -0.05926,-0.001 -0.0248,0 -0.06063,0.001 l -0.08957,-0.21773 -0.691774,-1.56959 z"
       style="font-size:2.82222px;-inkscape-font-specification:'Eras Light ITC';stroke-width:0.264583"
       id="path12453" />
    <path
       d="m 21.083262,173.16598 -0.402387,0.85163 -0.683506,1.47587 -0.07166,0.16537 q -0.03445,-0.001 -0.05788,-0.001 -0.02343,0 -0.05788,0.001 l 1.01837,-2.18281 0.137804,-0.31006 q 0.03445,0.003 0.05788,0.003 0.02618,0 0.05926,-0.003 z"
       style="font-size:2.82222px;-inkscape-font-specification:'Eras Light ITC';stroke-width:0.264583"
       id="path12455" />
    <path
       d="m 18.448455,173.16598 q 0.03445,0.003 0.06063,0.003 0.02481,0 0.06063,-0.003 l 0.135047,0.32108 0.96187,2.17179 q -0.03583,-0.001 -0.05926,-0.001 -0.0248,0 -0.06063,0.001 l -0.08957,-0.21773 -0.691775,-1.56959 z"
       style="font-size:2.82222px;-inkscape-font-specification:'Eras Light ITC';stroke-width:0.264583"
       id="path12457" />
    <path
       d="m 18.812256,173.16598 -0.402387,0.85163 -0.683506,1.47587 -0.07166,0.16537 q -0.03445,-0.001 -0.05788,-0.001 -0.02343,0 -0.05788,0.001 l 1.018369,-2.18281 0.137804,-0.31006 q 0.03445,0.003 0.05788,0.003 0.02618,0 0.05926,-0.003 z"
       style="font-size:2.82222px;-inkscape-font-specification:'Eras Light ITC';stroke-width:0.264583"
       id="path12459" />
    <path
       d="m 16.17745,173.16598 q 0.03445,0.003 0.06063,0.003 0.02481,0 0.06063,-0.003 l 0.135048,0.32108 0.96187,2.17179 q -0.03583,-0.001 -0.05926,-0.001 -0.02481,0 -0.06063,0.001 l -0.08957,-0.21773 -0.691775,-1.56959 z"
       style="font-size:2.82222px;-inkscape-font-specification:'Eras Light ITC';stroke-width:0.264583"
       id="path12461" />
    <path
       d="m 16.541251,173.16598 -0.402386,0.85163 -0.683507,1.47587 -0.07166,0.16537 q -0.03445,-0.001 -0.05788,-0.001 -0.02343,0 -0.05788,0.001 l 1.01837,-2.18281 0.137803,-0.31006 q 0.03445,0.003 0.05788,0.003 0.02618,0 0.05926,-0.003 z"
       style="font-size:2.82222px;-inkscape-font-specification:'Eras Light ITC';stroke-width:0.264583"
       id="path12463" />
    <path
       d="m 13.906444,173.16598 q 0.03445,0.003 0.06063,0.003 0.02481,0 0.06063,-0.003 l 0.135047,0.32108 0.96187,2.17179 q -0.03583,-0.001 -0.05926,-0.001 -0.0248,0 -0.06063,0.001 l -0.08957,-0.21773 -0.691774,-1.56959 z"
       style="font-size:2.82222px;-inkscape-font-specification:'Eras Light ITC';stroke-width:0.264583"
       id="path12465" />
    <path
       d="m 14.270247,173.16598 -0.402387,0.85163 -0.683506,1.47587 -0.07166,0.16537 q -0.03445,-0.001 -0.05788,-0.001 -0.02343,0 -0.05788,0.001 l 1.01837,-2.18281 0.137804,-0.31006 q 0.03445,0.003 0.05788,0.003 0.02618,0 0.05926,-0.003 z"
       style="font-size:2.82222px;-inkscape-font-specification:'Eras Light ITC';stroke-width:0.264583"
       id="path12467" />
    <path
       d="m 11.635439,173.16598 q 0.03445,0.003 0.06063,0.003 0.02481,0 0.06063,-0.003 l 0.135048,0.32108 0.961869,2.17179 q -0.03583,-0.001 -0.05926,-0.001 -0.0248,0 -0.06063,0.001 l -0.08957,-0.21773 -0.691775,-1.56959 z"
       style="font-size:2.82222px;-inkscape-font-specification:'Eras Light ITC';stroke-width:0.264583"
       id="path12469" />
    <path
       d="m 11.999241,173.16598 -0.402387,0.85163 -0.683506,1.47587 -0.07166,0.16537 q -0.03445,-0.001 -0.05788,-0.001 -0.02343,0 -0.05788,0.001 l 1.018369,-2.18281 0.137804,-0.31006 q 0.03445,0.003 0.05788,0.003 0.02618,0 0.05926,-0.003 z"
       style="font-size:2.82222px;-inkscape-font-specification:'Eras Light ITC';stroke-width:0.264583"
       id="path12471" />
    <path
       d="m 9.3644357,173.16598 q 0.034451,0.003 0.060634,0.003 0.024805,0 0.060634,-0.003 l 0.135048,0.32108 0.9618703,2.17179 q -0.03583,-0.001 -0.05926,-0.001 -0.0248,0 -0.06063,0.001 l -0.08957,-0.21773 -0.6917743,-1.56959 z"
       style="font-size:2.82222px;-inkscape-font-specification:'Eras Light ITC';stroke-width:0.264583"
       id="path12473" />
    <path
       d="m 9.7282364,173.16598 -0.4023869,0.85163 -0.6835064,1.47587 -0.071658,0.16537 q -0.034451,-0.001 -0.057878,-0.001 -0.023427,0 -0.057878,0.001 l 1.0183693,-2.18281 0.137804,-0.31006 q 0.03445,0.003 0.05788,0.003 0.02618,0 0.05926,-0.003 z"
       style="font-size:2.82222px;-inkscape-font-specification:'Eras Light ITC';stroke-width:0.264583"
       id="path12475" />
    <path
       d="m 7.09343,173.16598 q 0.034451,0.003 0.060634,0.003 0.024805,0 0.060634,-0.003 l 0.1350477,0.32108 0.9618699,2.17179 q -0.035829,-0.001 -0.059256,-0.001 -0.024805,0 -0.060634,0.001 l -0.089572,-0.21773 -0.6917746,-1.56959 z"
       style="font-size:2.82222px;-inkscape-font-specification:'Eras Light ITC';stroke-width:0.264583"
       id="path12477" />
    <path
       d="m 7.4572307,173.16598 -0.4023868,0.85163 -0.6835065,1.47587 -0.071658,0.16537 q -0.034451,-0.001 -0.057878,-0.001 -0.023427,0 -0.057878,0.001 l 1.0183694,-2.18281 0.1378037,-0.31006 q 0.034451,0.003 0.057878,0.003 0.026183,0 0.059256,-0.003 z"
       style="font-size:2.82222px;-inkscape-font-specification:'Eras Light ITC';stroke-width:0.264583"
       id="path12479" />
    <path
       d="m 4.8224244,173.16598 q 0.034451,0.003 0.060634,0.003 0.024805,0 0.060634,-0.003 l 0.1350476,0.32108 0.96187,2.17179 q -0.035829,-0.001 -0.059256,-0.001 -0.024805,0 -0.060634,0.001 l -0.089572,-0.21773 -0.6917746,-1.56959 z"
       style="font-size:2.82222px;-inkscape-font-specification:'Eras Light ITC';stroke-width:0.264583"
       id="path12481" />
    <path
       d="m 5.186227,173.16598 -0.4023869,0.85163 -0.6835064,1.47587 -0.071658,0.16537 q -0.034451,-0.001 -0.057878,-0.001 -0.023427,0 -0.057878,0.001 l 1.0183695,-2.18281 0.1378037,-0.31006 q 0.034451,0.003 0.057878,0.003 0.026183,0 0.059256,-0.003 z"
       style="font-size:2.82222px;-inkscape-font-specification:'Eras Light ITC';stroke-width:0.264583"
       id="path12483" />
    <path
       d="m 2.5514188,173.16598 q 0.034451,0.003 0.060634,0.003 0.024805,0 0.060634,-0.003 l 0.1350476,0.32108 0.9618699,2.17179 q -0.035829,-0.001 -0.059256,-0.001 -0.024805,0 -0.060634,0.001 l -0.089572,-0.21773 -0.6917747,-1.56959 z"
       style="font-size:2.82222px;-inkscape-font-specification:'Eras Light ITC';stroke-width:0.264583"
       id="path12485" />
    <path
       d="m 2.9152213,173.16598 -0.4023868,0.85163 -0.6835064,1.47587 -0.071658,0.16537 q -0.034451,-0.001 -0.057878,-0.001 -0.023427,0 -0.057878,0.001 l 1.0183695,-2.18281 0.1378037,-0.31006 q 0.034451,0.003 0.057878,0.003 0.026183,0 0.059256,-0.003 z"
       style="font-size:2.82222px;-inkscape-font-specification:'Eras Light ITC';stroke-width:0.264583"
       id="path12487" />
    <path
       d="m 0.28041512,173.16598 q 0.0344509,0.003 0.0606336,0.003 0.0248047,0 0.0606336,-0.003 l 0.13504762,0.32108 0.96186986,2.17179 q -0.035829,-0.001 -0.059256,-0.001 -0.024805,0 -0.060634,0.001 l -0.089572,-0.21773 -0.69177456,-1.56959 z"
       style="font-size:2.82222px;-inkscape-font-specification:'Eras Light ITC';stroke-width:0.264583"
       id="path12489" />
    <path
       d="m 29.716735,178.16377 0.402387,-0.85163 0.683506,-1.47587 0.07166,-0.16537 q 0.03445,0.001 0.05788,0.001 0.02343,0 0.05788,-0.001 l -1.018369,2.18281 -0.137804,0.31006 q -0.03445,-0.003 -0.05788,-0.003 -0.02618,0 -0.05926,0.003 z"
       style="font-size:2.82222px;-inkscape-font-specification:'Eras Light ITC';stroke-width:0.264583"
       id="path1960" />
    <path
       d="m 32.351542,178.16377 q -0.03445,-0.003 -0.06063,-0.003 -0.02481,0 -0.06063,0.003 l -0.135048,-0.32108 -0.96187,-2.17179 q 0.03583,0.001 0.05926,0.001 0.02481,0 0.06063,-0.001 l 0.08957,0.21773 0.691775,1.56959 z"
       style="font-size:2.82222px;-inkscape-font-specification:'Eras Light ITC';stroke-width:0.264583"
       id="path1962" />
    <path
       d="m 31.98774,178.16377 0.402387,-0.85163 0.683506,-1.47587 0.07166,-0.16537 q 0.03445,0.001 0.05788,0.001 0.02343,0 0.05788,-0.001 l -1.018369,2.18281 -0.137804,0.31006 q -0.03445,-0.003 -0.05788,-0.003 -0.02618,0 -0.05926,0.003 z"
       style="font-size:2.82222px;-inkscape-font-specification:'Eras Light ITC';stroke-width:0.264583"
       id="path1964" />
    <path
       d="m 34.622547,178.16377 q -0.03445,-0.003 -0.06063,-0.003 -0.02481,0 -0.06063,0.003 l -0.135048,-0.32108 -0.96187,-2.17179 q 0.03583,0.001 0.05926,0.001 0.02481,0 0.06063,-0.001 l 0.08957,0.21773 0.691775,1.56959 z"
       style="font-size:2.82222px;-inkscape-font-specification:'Eras Light ITC';stroke-width:0.264583"
       id="path1966" />
    <path
       d="m 34.258745,178.16377 0.402387,-0.85163 0.683507,-1.47587 0.07166,-0.16537 q 0.03445,0.001 0.05788,0.001 0.02343,0 0.05788,-0.001 l -1.01837,2.18281 -0.137804,0.31006 q -0.03445,-0.003 -0.05788,-0.003 -0.02618,0 -0.05926,0.003 z"
       style="font-size:2.82222px;-inkscape-font-specification:'Eras Light ITC';stroke-width:0.264583"
       id="path1968" />
    <path
       d="m 36.893552,178.16377 q -0.03445,-0.003 -0.06063,-0.003 -0.02481,0 -0.06063,0.003 l -0.135047,-0.32108 -0.96187,-2.17179 q 0.03583,0.001 0.05926,0.001 0.02481,0 0.06063,-0.001 l 0.08957,0.21773 0.691775,1.56959 z"
       style="font-size:2.82222px;-inkscape-font-specification:'Eras Light ITC';stroke-width:0.264583"
       id="path1970" />
    <path
       d="m 36.52975,178.16377 0.402387,-0.85163 0.683507,-1.47587 0.07166,-0.16537 q 0.03445,0.001 0.05788,0.001 0.02343,0 0.05788,-0.001 l -1.01837,2.18281 -0.137804,0.31006 q -0.03445,-0.003 -0.05788,-0.003 -0.02618,0 -0.05926,0.003 z"
       style="font-size:2.82222px;-inkscape-font-specification:'Eras Light ITC';stroke-width:0.264583"
       id="path1972" />
    <path
       d="m 39.164557,178.16377 q -0.03445,-0.003 -0.06063,-0.003 -0.02481,0 -0.06063,0.003 l -0.135047,-0.32108 -0.96187,-2.17179 q 0.03583,0.001 0.05926,0.001 0.0248,0 0.06063,-0.001 l 0.08957,0.21773 0.691774,1.56959 z"
       style="font-size:2.82222px;-inkscape-font-specification:'Eras Light ITC';stroke-width:0.264583"
       id="path1974" />
    <path
       d="m 38.800756,178.16377 0.402386,-0.85163 0.683507,-1.47587 0.07166,-0.16537 q 0.03445,0.001 0.05788,0.001 0.02343,0 0.05788,-0.001 l -1.01837,2.18281 -0.137803,0.31006 q -0.03445,-0.003 -0.05788,-0.003 -0.02618,0 -0.05926,0.003 z"
       style="font-size:2.82222px;-inkscape-font-specification:'Eras Light ITC';stroke-width:0.264583"
       id="path1976" />
    <path
       d="m 41.435563,178.16377 q -0.03445,-0.003 -0.06063,-0.003 -0.0248,0 -0.06063,0.003 l -0.135048,-0.32108 -0.96187,-2.17179 q 0.03583,0.001 0.05926,0.001 0.0248,0 0.06063,-0.001 l 0.08957,0.21773 0.691774,1.56959 z"
       style="font-size:2.82222px;-inkscape-font-specification:'Eras Light ITC';stroke-width:0.264583"
       id="path1978" />
    <path
       d="m 41.071761,178.16377 0.402387,-0.85163 0.683507,-1.47587 0.07166,-0.16537 q 0.03445,0.001 0.05788,0.001 0.02343,0 0.05788,-0.001 l -1.01837,2.18281 -0.137803,0.31006 q -0.03445,-0.003 -0.05788,-0.003 -0.02618,0 -0.05926,0.003 z"
       style="font-size:2.82222px;-inkscape-font-specification:'Eras Light ITC';stroke-width:0.264583"
       id="path1980" />
    <path
       d="m 43.706568,178.16377 q -0.03445,-0.003 -0.06063,-0.003 -0.0248,0 -0.06063,0.003 l -0.135047,-0.32108 -0.96187,-2.17179 q 0.03583,0.001 0.05926,0.001 0.02481,0 0.06063,-0.001 l 0.08957,0.21773 0.691774,1.56959 z"
       style="font-size:2.82222px;-inkscape-font-specification:'Eras Light ITC';stroke-width:0.264583"
       id="path1982" />
    <path
       d="m 43.342766,178.16377 0.402387,-0.85163 0.683506,-1.47587 0.07166,-0.16537 q 0.03445,0.001 0.05788,0.001 0.02343,0 0.05788,-0.001 l -1.018369,2.18281 -0.137804,0.31006 q -0.03445,-0.003 -0.05788,-0.003 -0.02618,0 -0.05926,0.003 z"
       style="font-size:2.82222px;-inkscape-font-specification:'Eras Light ITC';stroke-width:0.264583"
       id="path1984" />
    <path
       d="m 45.977573,178.16377 q -0.03445,-0.003 -0.06063,-0.003 -0.02481,0 -0.06063,0.003 l -0.135048,-0.32108 -0.96187,-2.17179 q 0.03583,0.001 0.05926,0.001 0.02481,0 0.06063,-0.001 l 0.08957,0.21773 0.691775,1.56959 z"
       style="font-size:2.82222px;-inkscape-font-specification:'Eras Light ITC';stroke-width:0.264583"
       id="path1986" />
    <path
       d="m 45.613771,178.16377 0.402387,-0.85163 0.683506,-1.47587 0.07166,-0.16537 q 0.03445,0.001 0.05788,0.001 0.02343,0 0.05788,-0.001 l -1.018369,2.18281 -0.137804,0.31006 q -0.03445,-0.003 -0.05788,-0.003 -0.02618,0 -0.05926,0.003 z"
       style="font-size:2.82222px;-inkscape-font-specification:'Eras Light ITC';stroke-width:0.264583"
       id="path1988" />
    <path
       d="m 48.248579,178.16377 q -0.03445,-0.003 -0.06063,-0.003 -0.0248,0 -0.06063,0.003 l -0.135048,-0.32108 -0.96187,-2.17179 q 0.03583,0.001 0.05926,0.001 0.0248,0 0.06063,-0.001 l 0.08957,0.21773 0.691774,1.56959 z"
       style="font-size:2.82222px;-inkscape-font-specification:'Eras Light ITC';stroke-width:0.264583"
       id="path1990" />
    <path
       d="m 47.884776,178.16377 0.402387,-0.85163 0.683507,-1.47587 0.07166,-0.16537 q 0.03445,0.001 0.05788,0.001 0.02343,0 0.05788,-0.001 l -1.01837,2.18281 -0.137803,0.31006 q -0.03445,-0.003 -0.05788,-0.003 -0.02618,0 -0.05926,0.003 z"
       style="font-size:2.82222px;-inkscape-font-specification:'Eras Light ITC';stroke-width:0.264583"
       id="path1992" />
    <path
       d="m 50.519583,178.16377 q -0.03445,-0.003 -0.06063,-0.003 -0.02481,0 -0.06063,0.003 l -0.135047,-0.32108 -0.96187,-2.17179 q 0.03583,0.001 0.05926,0.001 0.02481,0 0.06063,-0.001 l 0.08957,0.21773 0.691775,1.56959 z"
       style="font-size:2.82222px;-inkscape-font-specification:'Eras Light ITC';stroke-width:0.264583"
       id="path1994" />
    <path
       d="m 50.581318,173.16598 -0.402387,0.85163 -0.683506,1.47587 -0.07166,0.16537 q -0.03445,-0.001 -0.05788,-0.001 -0.02343,0 -0.05788,0.001 l 1.01837,-2.18281 0.137804,-0.31006 q 0.03445,0.003 0.05788,0.003 0.02618,0 0.05926,-0.003 z"
       style="font-size:2.82222px;-inkscape-font-specification:'Eras Light ITC';stroke-width:0.264583"
       id="path2029" />
    <path
       d="m 47.946511,173.16598 q 0.03445,0.003 0.06063,0.003 0.02481,0 0.06063,-0.003 l 0.135047,0.32108 0.96187,2.17179 q -0.03583,-0.001 -0.05926,-0.001 -0.0248,0 -0.06063,0.001 l -0.08957,-0.21773 -0.691775,-1.56959 z"
       style="font-size:2.82222px;-inkscape-font-specification:'Eras Light ITC';stroke-width:0.264583"
       id="path2031" />
    <path
       d="m 48.310312,173.16598 -0.402387,0.85163 -0.683506,1.47587 -0.07166,0.16537 q -0.03445,-0.001 -0.05788,-0.001 -0.02343,0 -0.05788,0.001 l 1.018369,-2.18281 0.137804,-0.31006 q 0.03445,0.003 0.05788,0.003 0.02618,0 0.05926,-0.003 z"
       style="font-size:2.82222px;-inkscape-font-specification:'Eras Light ITC';stroke-width:0.264583"
       id="path2033" />
    <path
       d="m 45.675506,173.16598 q 0.03445,0.003 0.06063,0.003 0.02481,0 0.06063,-0.003 l 0.135048,0.32108 0.96187,2.17179 q -0.03583,-0.001 -0.05926,-0.001 -0.02481,0 -0.06063,0.001 l -0.08957,-0.21773 -0.691775,-1.56959 z"
       style="font-size:2.82222px;-inkscape-font-specification:'Eras Light ITC';stroke-width:0.264583"
       id="path2035" />
    <path
       d="m 46.039307,173.16598 -0.402386,0.85163 -0.683507,1.47587 -0.07166,0.16537 q -0.03445,-0.001 -0.05788,-0.001 -0.02343,0 -0.05788,0.001 l 1.01837,-2.18281 0.137803,-0.31006 q 0.03445,0.003 0.05788,0.003 0.02618,0 0.05926,-0.003 z"
       style="font-size:2.82222px;-inkscape-font-specification:'Eras Light ITC';stroke-width:0.264583"
       id="path2037" />
    <path
       d="m 43.4045,173.16598 q 0.03445,0.003 0.06063,0.003 0.02481,0 0.06063,-0.003 l 0.135047,0.32108 0.96187,2.17179 q -0.03583,-0.001 -0.05926,-0.001 -0.0248,0 -0.06063,0.001 l -0.08957,-0.21773 -0.691774,-1.56959 z"
       style="font-size:2.82222px;-inkscape-font-specification:'Eras Light ITC';stroke-width:0.264583"
       id="path2039" />
    <path
       d="m 43.768303,173.16598 -0.402387,0.85163 -0.683506,1.47587 -0.07166,0.16537 q -0.03445,-0.001 -0.05788,-0.001 -0.02343,0 -0.05788,0.001 l 1.01837,-2.18281 0.137804,-0.31006 q 0.03445,0.003 0.05788,0.003 0.02618,0 0.05926,-0.003 z"
       style="font-size:2.82222px;-inkscape-font-specification:'Eras Light ITC';stroke-width:0.264583"
       id="path2041" />
    <path
       d="m 41.133495,173.16598 q 0.03445,0.003 0.06063,0.003 0.02481,0 0.06063,-0.003 l 0.135048,0.32108 0.961869,2.17179 q -0.03583,-0.001 -0.05926,-0.001 -0.0248,0 -0.06063,0.001 l -0.08957,-0.21773 -0.691775,-1.56959 z"
       style="font-size:2.82222px;-inkscape-font-specification:'Eras Light ITC';stroke-width:0.264583"
       id="path2043" />
    <path
       d="m 41.497297,173.16598 -0.402387,0.85163 -0.683506,1.47587 -0.07166,0.16537 q -0.03445,-0.001 -0.05788,-0.001 -0.02343,0 -0.05788,0.001 l 1.018369,-2.18281 0.137804,-0.31006 q 0.03445,0.003 0.05788,0.003 0.02618,0 0.05926,-0.003 z"
       style="font-size:2.82222px;-inkscape-font-specification:'Eras Light ITC';stroke-width:0.264583"
       id="path2045" />
    <path
       d="m 38.862491,173.16598 q 0.03445,0.003 0.06063,0.003 0.02481,0 0.06063,-0.003 l 0.135047,0.32108 0.961871,2.17179 q -0.03583,-0.001 -0.05926,-0.001 -0.0248,0 -0.06063,0.001 l -0.08957,-0.21773 -0.691775,-1.56959 z"
       style="font-size:2.82222px;-inkscape-font-specification:'Eras Light ITC';stroke-width:0.264583"
       id="path2047" />
    <path
       d="m 39.226291,173.16598 -0.402387,0.85163 -0.683506,1.47587 -0.07166,0.16537 q -0.03445,-0.001 -0.05788,-0.001 -0.02343,0 -0.05788,0.001 l 1.01837,-2.18281 0.137803,-0.31006 q 0.03445,0.003 0.05788,0.003 0.02618,0 0.05926,-0.003 z"
       style="font-size:2.82222px;-inkscape-font-specification:'Eras Light ITC';stroke-width:0.264583"
       id="path2049" />
    <path
       d="m 36.591485,173.16598 q 0.03445,0.003 0.06063,0.003 0.02481,0 0.06063,-0.003 l 0.135048,0.32108 0.96187,2.17179 q -0.03583,-0.001 -0.05926,-0.001 -0.02481,0 -0.06063,0.001 l -0.08957,-0.21773 -0.691775,-1.56959 z"
       style="font-size:2.82222px;-inkscape-font-specification:'Eras Light ITC';stroke-width:0.264583"
       id="path2051" />
    <path
       d="m 36.955286,173.16598 -0.402387,0.85163 -0.683507,1.47587 -0.07166,0.16537 q -0.03445,-0.001 -0.05788,-0.001 -0.02343,0 -0.05788,0.001 l 1.01837,-2.18281 0.137803,-0.31006 q 0.03445,0.003 0.05788,0.003 0.02618,0 0.05926,-0.003 z"
       style="font-size:2.82222px;-inkscape-font-specification:'Eras Light ITC';stroke-width:0.264583"
       id="path2053" />
    <path
       d="m 34.320479,173.16598 q 0.03445,0.003 0.06063,0.003 0.02481,0 0.06063,-0.003 l 0.135048,0.32108 0.96187,2.17179 q -0.03583,-0.001 -0.05926,-0.001 -0.02481,0 -0.06063,0.001 l -0.08957,-0.21773 -0.691775,-1.56959 z"
       style="font-size:2.82222px;-inkscape-font-specification:'Eras Light ITC';stroke-width:0.264583"
       id="path2055" />
    <path
       d="m 34.684282,173.16598 -0.402387,0.85163 -0.683506,1.47587 -0.07166,0.16537 q -0.03445,-0.001 -0.05788,-0.001 -0.02343,0 -0.05788,0.001 l 1.018369,-2.18281 0.137804,-0.31006 q 0.03445,0.003 0.05788,0.003 0.02618,0 0.05926,-0.003 z"
       style="font-size:2.82222px;-inkscape-font-specification:'Eras Light ITC';stroke-width:0.264583"
       id="path2057" />
    <path
       d="m 32.049474,173.16598 q 0.03445,0.003 0.06063,0.003 0.0248,0 0.06063,-0.003 l 0.135047,0.32108 0.96187,2.17179 q -0.03583,-0.001 -0.05926,-0.001 -0.02481,0 -0.06063,0.001 l -0.08957,-0.21773 -0.691774,-1.56959 z"
       style="font-size:2.82222px;-inkscape-font-specification:'Eras Light ITC';stroke-width:0.264583"
       id="path2059" />
    <path
       d="m 32.413276,173.16598 -0.402387,0.85163 -0.683506,1.47587 -0.07166,0.16537 q -0.03445,-0.001 -0.05788,-0.001 -0.02343,0 -0.05788,0.001 l 1.01837,-2.18281 0.137803,-0.31006 q 0.03445,0.003 0.05788,0.003 0.02618,0 0.05926,-0.003 z"
       style="font-size:2.82222px;-inkscape-font-specification:'Eras Light ITC';stroke-width:0.264583"
       id="path2061" />
    <path
       d="m 29.77847,173.16598 q 0.03445,0.003 0.06063,0.003 0.0248,0 0.06063,-0.003 l 0.135048,0.32108 0.96187,2.17179 q -0.03583,-0.001 -0.05926,-0.001 -0.0248,0 -0.06063,0.001 l -0.08957,-0.21773 -0.691775,-1.56959 z"
       style="font-size:2.82222px;-inkscape-font-specification:'Eras Light ITC';stroke-width:0.264583"
       id="path2063" />
    <path
       style="display:inline;fill:none;stroke:#000000;stroke-width:0.258603px;stroke-linecap:butt;stroke-linejoin:miter;stroke-opacity:1"
       d="m 25.612551,207.3614 v 52.25212"
       id="path1822" />
    <path
       style="display:inline;fill:none;stroke:#000000;stroke-width:0.264583px;stroke-linecap:butt;stroke-linejoin:miter;stroke-opacity:1"
       d="m 33.618383,250.11939 c 0,2.65689 0,2.65689 0,2.65689"
       id="path1559" />
    <path
       style="display:inline;fill:none;stroke:#000000;stroke-width:0.251933px;stroke-linecap:butt;stroke-linejoin:miter;stroke-opacity:1"
       d="m 33.335928,250.36737 c 0,2.40891 0,2.40891 0,2.40891"
       id="path1561" />
    <path
       style="display:inline;fill:none;stroke:#000000;stroke-width:0.251933px;stroke-linecap:butt;stroke-linejoin:miter;stroke-opacity:1"
       d="m 32.942408,250.36737 c 0,2.40891 0,2.40891 0,2.40891"
       id="path1563" />
    <path
       style="display:inline;fill:none;stroke:#000000;stroke-width:0.251933px;stroke-linecap:butt;stroke-linejoin:miter;stroke-opacity:1"
       d="m 32.365216,250.36737 c 0,2.40891 0,2.40891 0,2.40891"
       id="path1565" />
    <path
       style="display:inline;fill:none;stroke:#000000;stroke-width:0.251933px;stroke-linecap:butt;stroke-linejoin:miter;stroke-opacity:1"
       d="m 31.55487,250.36737 c 0,2.40891 0,2.40891 0,2.40891"
       id="path1567" />
    <path
       style="display:inline;fill:none;stroke:#000000;stroke-width:0.251933px;stroke-linecap:butt;stroke-linejoin:miter;stroke-opacity:1"
       d="m 30.173285,250.36737 c 0,2.40891 0,2.40891 0,2.40891"
       id="path1569" />
    <path
       style="color:#000000;fill:#000000;stroke-dasharray:1.05833, 0.264583;-inkscape-stroke:none"
       d="m 7.5,264.38477 -0.2285156,0.13085 0.5292968,0.91797 0.2285157,-0.13281 z m 0.6621094,1.14453 -0.2304688,0.13281 0.5292969,0.91601 0.2304688,-0.13281 z m 0.6601562,1.14648 -0.2285156,0.13086 0.5292969,0.91797 0.2285156,-0.13281 z m 0.6621094,1.14453 -0.2285156,0.13281 0.5292969,0.91602 0.2285157,-0.13086 z m 0.662109,1.14649 -0.2304684,0.13281 0.5292974,0.91601 0.230468,-0.13281 z m 0.660157,1.14648 -0.228516,0.13086 0.529297,0.91797 0.228516,-0.13281 z m 0.662109,1.14453 -0.228516,0.13281 0.529297,0.91602 0.228516,-0.13281 z m 0.662109,1.14649 -0.230468,0.13086 0.529297,0.91796 0.230468,-0.13281 z m 0.660157,1.14453 -0.228516,0.13281 0.529297,0.91602 0.228516,-0.13086 z"
       id="path1184" />
    <path
       style="color:#000000;fill:#000000;stroke-dasharray:1.05833, 0.264583;-inkscape-stroke:none"
       d="m 13.273438,247.82031 -0.339844,0.58789 0.230469,0.13282 0.33789,-0.5879 z m -0.470704,0.81641 -0.529296,0.91797 0.228515,0.13086 0.529297,-0.91602 z m -0.662109,1.14648 -0.529297,0.91602 0.228516,0.13281 0.529297,-0.91601 z m -0.662109,1.14453 -0.529297,0.91797 0.230469,0.13086 0.529296,-0.91601 z m -0.660157,1.14649 -0.529296,0.91601 0.228515,0.13282 0.529297,-0.91602 z m -0.662109,1.14648 -0.5292969,0.91602 0.2285157,0.13281 0.5292972,-0.91797 z m -0.6621094,1.14453 -0.5292968,0.91602 0.2304687,0.13281 0.5292969,-0.91601 z m -0.6601562,1.14649 -0.5292969,0.91601 0.2285156,0.13282 0.5292969,-0.91797 z m -0.6621094,1.14453 -0.5292969,0.91797 0.2285156,0.13086 0.5292969,-0.91602 z m -0.6621094,1.14648 -0.5292969,0.91602 0.2304688,0.13281 0.5292969,-0.91601 z m -0.6601562,1.14649 -0.5292969,0.91601 0.2285156,0.13282 0.5292969,-0.91797 z"
       id="path1301" />
    <path
       style="color:#000000;fill:#000000;stroke-dasharray:1.05833, 0.264583;-inkscape-stroke:none"
       d="m 44.455078,264.38477 -0.529297,0.91601 0.228516,0.13281 0.529297,-0.91797 z m -0.662109,1.14453 -0.529297,0.91601 0.228515,0.13281 0.529297,-0.91601 z m -0.66211,1.14648 -0.529297,0.91602 0.230469,0.13281 0.529297,-0.91797 z m -0.660156,1.14453 -0.529297,0.91797 0.228516,0.13086 0.529297,-0.91602 z m -0.662109,1.14649 -0.529297,0.91601 0.228515,0.13281 0.529297,-0.91601 z m -0.66211,1.14648 -0.529297,0.91602 0.230469,0.13281 0.529297,-0.91797 z m -0.660156,1.14453 -0.529297,0.91602 0.228516,0.13281 0.529297,-0.91602 z m -0.662109,1.14649 -0.529297,0.91601 0.228515,0.13281 0.529297,-0.91796 z m -0.66211,1.14453 -0.529297,0.91797 0.230469,0.13086 0.529297,-0.91602 z"
       id="path1383" />
    <path
       style="color:#000000;fill:#000000;stroke-dasharray:1.05833, 0.264583;-inkscape-stroke:none"
       d="m 38.679687,247.82031 -0.228515,0.13281 0.339844,0.5879 0.228515,-0.13282 z m 0.472657,0.81641 -0.228516,0.13281 0.529297,0.91602 0.228516,-0.13086 z m 0.662109,1.14648 -0.230469,0.13282 0.529297,0.91601 0.230469,-0.13281 z m 0.660156,1.14453 -0.228515,0.13282 0.529297,0.91601 0.228515,-0.13086 z m 0.66211,1.14649 -0.228516,0.13281 0.529297,0.91602 0.228516,-0.13282 z m 0.662109,1.14648 -0.230469,0.13086 0.529297,0.91797 0.230469,-0.13281 z m 0.660156,1.14453 -0.228515,0.13282 0.529297,0.91601 0.228515,-0.13281 z m 0.66211,1.14649 -0.228516,0.13086 0.529297,0.91797 0.228516,-0.13282 z m 0.662109,1.14453 -0.230469,0.13281 0.529297,0.91602 0.230469,-0.13086 z m 0.660156,1.14648 -0.228515,0.13282 0.529297,0.91601 0.228515,-0.13281 z m 0.66211,1.14649 -0.228516,0.13086 0.529297,0.91797 0.228516,-0.13282 z"
       id="path1385" />
  </g>
  <g
     inkscape:groupmode="layer"
     id="layer2"
     inkscape:label="components"
     style="display:inline">
    <circle
       style="display:inline;fill:#ff0000;stroke:none;stroke-width:0;paint-order:stroke fill markers"
       id="path1939"
       cx="12.823709"
       cy="50.360989"
       r="2.2489583"
       inkscape:label="FREQ" />
    <circle
       style="display:inline;fill:#ff0000;stroke:none;stroke-width:0;paint-order:stroke fill markers"
       id="circle3479"
       cx="6.4348187"
       cy="29.90588"
       r="2.2489583"
       inkscape:label="FREQ_CV" />
    <circle
       style="display:inline;fill:#ff0000;stroke:none;stroke-width:0;paint-order:stroke fill markers"
       id="circle3481"
       cx="38.273933"
       cy="50.361004"
       r="2.2489583"
       inkscape:label="Q" />
    <circle
       style="display:inline;fill:#ff0000;stroke:none;stroke-width:0;paint-order:stroke fill markers"
       id="circle3483"
       cx="45.333035"
       cy="29.90588"
       r="2.2489583"
       inkscape:label="Q_CV" />
    <circle
       style="display:inline;fill:#ff0000;stroke:none;stroke-width:0;paint-order:stroke fill markers"
       id="circle3485"
       cx="12.353084"
       cy="76.600395"
       r="2.2489583"
       inkscape:label="BAND" />
    <circle
       style="display:inline;fill:#ff0000;stroke:none;stroke-width:0;paint-order:stroke fill markers"
       id="circle3487"
       cx="38.498878"
       cy="76.719681"
       r="2.2489583"
       inkscape:label="RATIO" />
    <circle
       style="display:inline;fill:#ff0000;stroke:#000000;stroke-width:0;paint-order:stroke fill markers"
       id="circle3489"
       cx="8.3116426"
       cy="94.374802"
       r="2.2489583" />
    <circle
       style="display:inline;fill:#ff0000;stroke:none;stroke-width:0;paint-order:stroke fill markers"
       id="circle3491"
       cx="8.3116426"
       cy="94.374802"
       r="2.2489583"
       inkscape:label="BAND_CV" />
    <circle
       style="display:inline;fill:#00ff00;fill-opacity:1;stroke:none;stroke-width:1;stroke-linecap:butt;stroke-linejoin:bevel;stroke-dasharray:none;stroke-dashoffset:0;paint-order:normal"
       id="circle2143"
       cx="16.637266"
       cy="16.860762"
       r="3.5546818"
       inkscape:label="FREQ_CV" />
    <circle
       style="display:inline;fill:#00ff00;fill-opacity:1;stroke:none;stroke-width:1;stroke-linecap:butt;stroke-linejoin:bevel;stroke-dasharray:none;stroke-dashoffset:0;paint-order:normal"
       id="circle833"
       cx="34.705517"
       cy="16.860754"
       r="3.5546818"
       inkscape:label="Q_CV" />
    <circle
       style="display:inline;fill:#00ff00;fill-opacity:1;stroke:none;stroke-width:1;stroke-linecap:butt;stroke-linejoin:bevel;stroke-dasharray:none;stroke-dashoffset:0;paint-order:normal"
       id="circle835"
       cx="15.357212"
       cy="110.30502"
       r="3.5546818"
       inkscape:label="BAND_CV" />
    <circle
       style="display:inline;fill:#00ff00;fill-opacity:1;stroke:none;stroke-width:1;stroke-linecap:butt;stroke-linejoin:bevel;stroke-dasharray:none;stroke-dashoffset:0;paint-order:normal"
       id="circle837"
       cx="25.612551"
       cy="34.015202"
       r="3.5546818"
       inkscape:label="SIGNAL" />
    <circle
       style="fill:#0000ff;fill-opacity:1;stroke:none;stroke-width:1;stroke-linejoin:bevel"
       id="path6028"
       cx="25.612551"
       cy="95.791832"
       r="3.2348239"
       inkscape:label="MIX" />
    <g
       id="g986"
       transform="matrix(0.01928605,0,0,0.01928605,21.106416,120.65978)"
       style="display:inline">
      <path
         d="M 289.79,385.23 A 100.59,100.59 0 0 1 200,239.45 L 122.25,155 V 379.59 H 53.9 V 50.73 h 65.2 l 130.54,141.73 a 99.25,99.25 0 0 1 40.15,-8.34 100.56,100.56 0 1 1 0,201.11 M 111,126.32 l 102.65,111.45 -2,3.54 a 89.37,89.37 0 1 0 78.12,-46 88.09,88.09 0 0 0 -39.05,9 L 247,206.13 114.19,61.93 H 65.1 V 368.38 H 111 Z M 289.79,328 a 41.88,41.88 0 0 1 -7.25,-0.62 43.26,43.26 0 0 1 -36,-39.12 c -0.1,-1.18 -0.16,-2.41 -0.16,-3.65 a 43.45,43.45 0 0 1 43.39,-43.39 c 0.9,0 1.81,0.05 2.71,0.1 a 43.47,43.47 0 0 1 40.68,43.29 v 0.67 a 42.43,42.43 0 0 1 -1.76,11.59 43.29,43.29 0 0 1 -32.83,30.26 l -0.65,0.11 a 45,45 0 0 1 -8.15,0.76 m 0,-75.57 a 32.22,32.22 0 0 0 -32.18,32.18 c 0,0.92 0,1.84 0.11,2.71 a 32.12,32.12 0 0 0 26.72,29 32.54,32.54 0 0 0 11.87,-0.2 l 0.55,-0.11 a 32.1,32.1 0 0 0 23.82,-22.33 31.26,31.26 0 0 0 1.29,-8.49 v -0.6 a 32.23,32.23 0 0 0 -30.11,-32.11 c -0.67,0 -1.37,-0.07 -2.07,-0.07"
         id="path963" />
      <path
         d="m 289.81,131.85 a 43.39,43.39 0 1 1 43.39,-43.39 43.45,43.45 0 0 1 -43.39,43.39 m 0,-75.57 A 32.18,32.18 0 1 0 322,88.46 32.22,32.22 0 0 0 289.82,56.28"
         id="path965" />
      <polygon
         points="243.59,236.52 102.76,83.56 87.84,83.56 87.84,345.41 61.82,371.43 62.86,373.97 116.41,373.98 116.41,140.68 206.55,238.58 "
         id="polygon967" />
      <path
         d="M 199.93,317.51 227,307.58 a 66.69,66.69 0 0 0 45.87,41.53 63.28,63.28 0 0 0 10.94,1.9 68.18,68.18 0 0 0 13.49,-0.18 h 0.08 a 66.75,66.75 0 0 0 54.23,-41.94 65.32,65.32 0 0 0 4.2,-17.32 l 0.1,-1.18 a 66.31,66.31 0 0 0 -3.81,-28.68 l 27.08,-9.92 -0.43,0.16 A 95,95 0 1 1 200.4,317.34"
         id="path969" />
      <path
         d="m 254.08,297.66 a 37.31,37.31 0 0 1 -2.3,-13.08 c 0,-1 0,-2.11 0.14,-3.19 A 37.82,37.82 0 0 1 292.82,247 c 0.81,0.07 1.61,0.18 2.4,0.3 a 37.81,37.81 0 0 1 29.83,24.33 v 0 l 27.08,-9.93 a 66.62,66.62 0 0 0 -52.57,-42.9 c -1.41,-0.2 -2.82,-0.4 -4.23,-0.53 a 66.68,66.68 0 0 0 -72.11,60.62 c -0.16,1.89 -0.24,3.78 -0.24,5.61 a 66.13,66.13 0 0 0 4,23.06 z"
         id="path971" />
      <path
         d="M 255.11,101.8 A 37.753304,37.753304 0 1 0 325.67,74.92 Z"
         id="path973" />
    </g>
    <circle
       style="display:inline;fill:#ff0000;stroke:none;stroke-width:0;paint-order:stroke fill markers"
       id="circle979"
       cx="43.213646"
       cy="94.374802"
       r="2.2489583"
       inkscape:label="RATIO_CV" />
    <circle
       style="display:inline;fill:#00ff00;fill-opacity:1;stroke:none;stroke-width:1;stroke-linecap:butt;stroke-linejoin:bevel;stroke-dasharray:none;stroke-dashoffset:0;paint-order:normal"
       id="circle982"
       cx="36.598763"
       cy="110.30504"
       r="3.5546818"
       inkscape:label="RATIO_CV" />
  </g>
  <g
     inkscape:groupmode="layer"
     id="layer3"
     inkscape:label="inv comp"
     style="display:none">
    <circle
       style="display:inline;fill:#1a1a1a;stroke:#000000;stroke-width:0.2272"
       id="circle981"
       cx="35.004612"
       cy="112.91367"
       r="3.8864" />
    <circle
       style="display:inline;fill:#1a1a1a;stroke:#000000;stroke-width:0.2272"
       id="circle983"
       cx="22.710215"
       cy="112.91367"
       r="3.8864" />
    <circle
       style="display:inline;fill:#1a1a1a;stroke:#000000;stroke-width:0.2272"
       id="circle985"
       cx="10.148547"
       cy="113.04731"
       r="3.8864" />
    <path
       style="display:inline;fill:none;stroke:#000000;stroke-width:0.264583px;stroke-linecap:butt;stroke-linejoin:miter;stroke-opacity:1"
       d="M 1.0690781,176.89954 59.868375,176.63227"
       id="path484"
       transform="translate(0,-168.49998)" />
    <path
       style="display:inline;fill:none;stroke:#000000;stroke-width:0.264583px;stroke-linecap:butt;stroke-linejoin:miter;stroke-opacity:1"
       d="M 1.0690781,176.89954 59.868375,176.63227"
       id="path1043"
       transform="translate(0,-168.49998)" />
    <path
       style="display:inline;fill:none;stroke:#000000;stroke-width:0.264583px;stroke-linecap:butt;stroke-linejoin:miter;stroke-opacity:1"
       d="M 2.5390605,289.13227 H 58.264755"
       id="path486"
       transform="translate(0,-168.49998)" />
  </g>
  <g
     id="g1421">
    <path
       d="m 12.530854,33.919474 q -0.0062,-0.148828 -0.02481,-0.26355 0.244946,0.10852 0.461988,0.151929 0.21704,0.04341 0.396875,0.04341 0.238745,0 0.406176,-0.06821 0.170533,-0.06821 0.257349,-0.201538 0.08682,-0.133326 0.08682,-0.279053 0,-0.06511 -0.0155,-0.124024 -0.0124,-0.06201 -0.04341,-0.120923 -0.03101,-0.06201 -0.07131,-0.111621 -0.03721,-0.05271 -0.108521,-0.117827 -0.06821,-0.06511 -0.16123,-0.145728 -0.09302,-0.08061 -0.291455,-0.244946 -0.198438,-0.164331 -0.328662,-0.282153 -0.127124,-0.120923 -0.213941,-0.241846 -0.08372,-0.124023 -0.120922,-0.226342 -0.03411,-0.10232 -0.03411,-0.20774 0,-0.179834 0.111621,-0.347265 0.114722,-0.170533 0.325561,-0.26045 0.213941,-0.08992 0.539502,-0.08992 0.272852,0 0.613916,0.07131 0.0031,0.136426 0.0186,0.26355 -0.198437,-0.08372 -0.356567,-0.111621 -0.155029,-0.03101 -0.31626,-0.03101 -0.201538,0 -0.37207,0.06201 -0.170532,0.05891 -0.257349,0.176734 -0.08372,0.114721 -0.08372,0.251147 0,0.07441 0.0186,0.139526 0.0186,0.06511 0.05891,0.133326 0.04031,0.06511 0.10232,0.136425 0.06511,0.06821 0.164331,0.161231 0.102319,0.08992 0.291455,0.251147 0.192236,0.15813 0.285254,0.241846 0.09302,0.08062 0.15813,0.148828 0.06821,0.06821 0.127124,0.151929 0.06201,0.08062 0.09922,0.15813 0.03721,0.07752 0.05581,0.15813 0.0186,0.07752 0.0186,0.158129 0,0.195337 -0.114722,0.36897 -0.114722,0.173633 -0.334863,0.272852 -0.217041,0.09922 -0.523999,0.09922 -0.114722,0 -0.288355,-0.0186 -0.170532,-0.0186 -0.275952,-0.04031 -0.102319,-0.0186 -0.260449,-0.06511 z"
       id="path12319"
       style="font-size:24px;font-family:'Eras Light ITC';-inkscape-font-specification:'Eras Light ITC';word-spacing:0px;white-space:pre;stroke-width:0.264583" />
    <path
       d="m 15.791603,26.723077 0.0093,-0.306958 q 0.07751,0.0031 0.15813,0.0031 0.08062,0 0.15813,-0.0031 l -0.0093,0.306958 q -0.07752,-0.0062 -0.15813,-0.0062 -0.08062,0 -0.15813,0.0062 z m -0.111621,3.925342 q 0.03411,-0.465088 0.07752,-1.621607 0.04651,-1.156518 0.04651,-1.509985 0.08061,0.0031 0.124023,0.0031 0.04651,0 0.127124,-0.0031 -0.04341,0.589111 -0.08682,1.606103 -0.04031,1.016993 -0.04031,1.525489 -0.08062,-0.0031 -0.124023,-0.0031 -0.04341,0 -0.124024,0.0031 z"
       id="path12321"
       style="font-size:24px;font-family:'Eras Light ITC';-inkscape-font-specification:'Eras Light ITC';word-spacing:0px;white-space:pre;stroke-width:0.264583" />
    <path
       d="m 17.458651,27.601853 0.10542,-1.894458 0.0279,-0.889868 q 0.0062,-0.238745 0.0062,-0.347266 0.08061,0.0031 0.120922,0.0031 0.03721,0 0.117823,-0.0031 l -0.04031,0.706934 q 0.06821,-0.145727 0.111621,-0.220142 0.04651,-0.07752 0.124023,-0.164331 0.07751,-0.08682 0.182935,-0.16123 0.10852,-0.07751 0.257348,-0.127124 0.151929,-0.05271 0.310059,-0.07441 0.15813,-0.02481 0.313159,-0.02481 0.260449,0 0.505396,0.05891 0.244946,0.05891 0.406176,0.204639 0.161231,0.142627 0.220142,0.331763 0.06201,0.186035 0.06201,0.399975 0,0.09612 -0.0093,0.285254 l -0.06511,1.410767 -0.0124,0.505395 q -0.06201,-0.0031 -0.120923,-0.0031 -0.05891,0 -0.117822,0.0031 0.03101,-0.387573 0.04961,-0.74104 l 0.04341,-0.79375 q 0.02481,-0.440283 0.02481,-0.63562 0,-0.204639 -0.05891,-0.365869 -0.05891,-0.161231 -0.204641,-0.26665 -0.142627,-0.108521 -0.341065,-0.15503 -0.198437,-0.04961 -0.409277,-0.04961 -0.294556,0 -0.520899,0.08061 -0.21394,0.07752 -0.37517,0.229443 -0.161231,0.148829 -0.26355,0.378272 -0.07751,0.167432 -0.117823,0.468189 -0.03721,0.260449 -0.06201,0.852661 -0.0217,0.589111 -0.0217,0.998388 -0.08062,-0.0031 -0.124023,-0.0031 -0.04341,0 -0.124023,0.0031 z"
       id="path12323"
       style="font-size:24px;font-family:'Eras Light ITC';-inkscape-font-specification:'Eras Light ITC';word-spacing:0px;white-space:pre;stroke-width:0.264583" />
    <path
       d="m 24.714986,25.813239 q -0.02481,0.114722 -0.03721,0.232544 -0.257348,0.07441 -0.461987,0.10232 -0.204639,0.03101 -0.418579,0.03101 -0.37207,0 -0.660425,-0.09922 -0.285254,-0.10232 -0.489892,-0.334863 -0.204639,-0.235645 -0.291455,-0.5271 -0.08682,-0.291455 -0.08682,-0.620117 0,-0.430982 0.148828,-0.806153 0.148828,-0.378271 0.489892,-0.626318 0.341065,-0.248047 0.84646,-0.248047 0.347266,0 0.629419,0.130225 0.282153,0.127124 0.437183,0.418579 0.15813,0.291455 0.15813,0.691431 0,0.07441 -0.0062,0.142626 l -2.452564,0.0031 q -0.0155,0.201539 -0.0155,0.303858 0,0.294556 0.08682,0.570508 0.08682,0.275952 0.260449,0.461987 0.176734,0.186035 0.42168,0.275952 0.244946,0.08992 0.517798,0.08992 0.415478,0 0.923974,-0.192236 z m -2.167309,-1.680517 2.204516,0.0031 q -0.0031,-0.21394 -0.0248,-0.328662 -0.0217,-0.114722 -0.08061,-0.235645 -0.05891,-0.120922 -0.142627,-0.207739 -0.08061,-0.08992 -0.192236,-0.148828 -0.10852,-0.06201 -0.244946,-0.09302 -0.136426,-0.03101 -0.285254,-0.03101 -0.164331,0 -0.322461,0.03721 -0.15813,0.03721 -0.288355,0.102319 -0.130224,0.06511 -0.244946,0.167432 -0.111621,0.09922 -0.186035,0.217041 -0.07131,0.117822 -0.111621,0.226343 -0.03721,0.10542 -0.08061,0.291455 z"
       id="path12325"
       style="font-size:24px;font-family:'Eras Light ITC';-inkscape-font-specification:'Eras Light ITC';word-spacing:0px;white-space:pre;stroke-width:0.264583" />
    <path
       d="m 27.394255,26.255697 0.105419,-1.894458 0.02791,-0.889868 q 0.0062,-0.238745 0.0062,-0.347266 0.08062,0.0031 0.120923,0.0031 0.03721,0 0.117822,-0.0031 l -0.04031,0.706934 q 0.06821,-0.145728 0.111621,-0.220142 0.04651,-0.07752 0.124024,-0.164331 0.07751,-0.08682 0.182934,-0.16123 0.108521,-0.07751 0.257349,-0.127124 0.151929,-0.05271 0.310058,-0.07441 0.15813,-0.0248 0.31316,-0.0248 0.260449,0 0.505395,0.05891 0.244946,0.05891 0.406177,0.204638 0.16123,0.142627 0.220142,0.331763 0.06201,0.186035 0.06201,0.399976 0,0.09612 -0.0093,0.285254 l -0.06511,1.410766 -0.0124,0.505396 q -0.06201,-0.0031 -0.120924,-0.0031 -0.05891,0 -0.117822,0.0031 0.03101,-0.387574 0.04961,-0.74104 l 0.04341,-0.79375 q 0.02481,-0.440284 0.02481,-0.63562 0,-0.204639 -0.05891,-0.36587 -0.05891,-0.16123 -0.204638,-0.26665 -0.142627,-0.10852 -0.341065,-0.155029 -0.198437,-0.04961 -0.409277,-0.04961 -0.294556,0 -0.520898,0.08061 -0.213941,0.07752 -0.375171,0.229443 -0.161231,0.148828 -0.26355,0.378271 -0.07751,0.167432 -0.117822,0.468189 -0.03721,0.260449 -0.06201,0.852661 -0.0217,0.589111 -0.0217,0.998389 -0.08061,-0.0031 -0.124024,-0.0031 -0.04341,0 -0.124023,0.0031 z"
       id="path12327"
       style="font-size:24px;font-family:'Eras Light ITC';-inkscape-font-specification:'Eras Light ITC';word-spacing:0px;white-space:pre;stroke-width:0.264583" />
    <path
       d="m 31.960207,27.542942 q -0.0062,-0.148828 -0.02481,-0.26355 0.244947,0.108521 0.461989,0.151929 0.21704,0.04341 0.396875,0.04341 0.238745,0 0.406176,-0.06821 0.170532,-0.06821 0.257349,-0.201538 0.08682,-0.133325 0.08682,-0.279053 0,-0.06511 -0.0155,-0.124024 -0.0124,-0.06201 -0.04341,-0.120922 -0.03101,-0.06201 -0.07131,-0.111621 -0.03721,-0.05271 -0.108521,-0.117823 -0.06821,-0.06511 -0.16123,-0.145727 -0.09302,-0.08062 -0.291456,-0.244947 -0.198437,-0.164331 -0.328661,-0.282153 -0.127125,-0.120923 -0.213941,-0.241846 -0.08372,-0.124023 -0.120923,-0.226342 -0.03411,-0.10232 -0.03411,-0.20774 0,-0.179833 0.111621,-0.347265 0.114721,-0.170532 0.325561,-0.260449 0.213941,-0.08992 0.539502,-0.08992 0.272852,0 0.613916,0.07131 0.0031,0.136425 0.0186,0.263549 -0.198437,-0.08372 -0.356568,-0.111621 -0.155029,-0.03101 -0.316259,-0.03101 -0.201538,0 -0.37207,0.06201 -0.170533,0.05891 -0.257349,0.176734 -0.08372,0.114722 -0.08372,0.251147 0,0.07441 0.0186,0.139526 0.0186,0.06511 0.05891,0.133326 0.04031,0.06511 0.102319,0.136426 0.06511,0.06821 0.164331,0.16123 0.10232,0.08992 0.291455,0.251147 0.192237,0.15813 0.285254,0.241846 0.09302,0.08061 0.15813,0.148828 0.06821,0.06821 0.127124,0.151929 0.06201,0.08061 0.09922,0.15813 0.03721,0.07751 0.05581,0.15813 0.0186,0.07751 0.0186,0.15813 0,0.195337 -0.114721,0.368969 -0.114722,0.173633 -0.334864,0.272852 -0.21704,0.09922 -0.523998,0.09922 -0.114722,0 -0.288355,-0.0186 -0.170532,-0.0186 -0.275952,-0.04031 -0.10232,-0.0186 -0.26045,-0.06511 z"
       id="path12329"
       style="font-size:24px;font-family:'Eras Light ITC';-inkscape-font-specification:'Eras Light ITC';word-spacing:0px;white-space:pre;stroke-width:0.264583" />
    <path
       d="m 35.362657,27.148179 0.0093,-0.306958 q 0.07752,0.0031 0.15813,0.0031 0.08062,0 0.15813,-0.0031 l -0.0093,0.306958 q -0.07751,-0.0062 -0.158129,-0.0062 -0.08062,0 -0.158131,0.0062 z m -0.111621,3.925341 q 0.03411,-0.465087 0.07751,-1.621606 0.04651,-1.156518 0.04651,-1.509985 0.08061,0.0031 0.124024,0.0031 0.04651,0 0.127123,-0.0031 -0.04341,0.589111 -0.08682,1.606103 -0.04031,1.016992 -0.04031,1.525488 -0.08062,-0.0031 -0.124024,-0.0031 -0.04341,0 -0.124023,0.0031 z"
       id="path12331"
       style="font-size:24px;font-family:'Eras Light ITC';-inkscape-font-specification:'Eras Light ITC';word-spacing:0px;white-space:pre;stroke-width:0.264583" />
    <path
       d="m 36.489419,33.919474 q -0.0062,-0.148828 -0.02481,-0.26355 0.244947,0.108521 0.461988,0.151929 0.217041,0.04341 0.396875,0.04341 0.238745,0 0.406176,-0.06821 0.170533,-0.06821 0.257349,-0.201538 0.08682,-0.133325 0.08682,-0.279053 0,-0.06511 -0.0155,-0.124024 -0.0124,-0.06201 -0.04341,-0.120922 -0.03101,-0.06201 -0.07131,-0.111621 -0.03721,-0.05271 -0.108521,-0.117823 -0.06821,-0.06511 -0.16123,-0.145727 -0.09302,-0.08062 -0.291455,-0.244947 -0.198438,-0.164331 -0.328662,-0.282153 -0.127124,-0.120923 -0.213941,-0.241846 -0.08372,-0.124023 -0.120923,-0.226342 -0.03411,-0.10232 -0.03411,-0.20774 0,-0.179833 0.111621,-0.347265 0.114722,-0.170532 0.325562,-0.260449 0.21394,-0.08992 0.539502,-0.08992 0.272851,0 0.613916,0.07131 0.0031,0.136425 0.0186,0.263549 -0.198437,-0.08372 -0.356567,-0.111621 -0.155029,-0.03101 -0.31626,-0.03101 -0.201538,0 -0.37207,0.06201 -0.170532,0.05891 -0.257349,0.176734 -0.08371,0.114722 -0.08371,0.251147 0,0.07441 0.0186,0.139526 0.0186,0.06511 0.05891,0.133326 0.04031,0.06511 0.102319,0.136426 0.06511,0.06821 0.164331,0.16123 0.10232,0.08992 0.291455,0.251147 0.192237,0.15813 0.285254,0.241846 0.09302,0.08061 0.15813,0.148828 0.06821,0.06821 0.127124,0.151929 0.06201,0.08062 0.09922,0.15813 0.03721,0.07752 0.05581,0.15813 0.0186,0.07752 0.0186,0.15813 0,0.195337 -0.114722,0.368969 -0.114721,0.173633 -0.334863,0.272852 -0.217041,0.09922 -0.523999,0.09922 -0.114722,0 -0.288355,-0.0186 -0.170532,-0.0186 -0.275951,-0.04031 -0.10232,-0.0186 -0.26045,-0.06511 z"
       id="path12333"
       style="font-size:24px;font-family:'Eras Light ITC';-inkscape-font-specification:'Eras Light ITC';word-spacing:0px;white-space:pre;stroke-width:0.264583" />
  </g>
</svg>
